<?xml version="1.0" encoding="utf-8"?>
<!-- Generator: Adobe Illustrator 25.2.1, SVG Export Plug-In . SVG Version: 6.00 Build 0)  -->
<svg version="1.1" id="Capa_1" xmlns="http://www.w3.org/2000/svg" xmlns:xlink="http://www.w3.org/1999/xlink" x="0px" y="0px"
	 viewBox="0 0 595.28 841.89" style="enable-background:new 0 0 595.28 841.89;" xml:space="preserve">
<style type="text/css">
	.st0{fill:#FFFFFF;stroke:#000000;stroke-miterlimit:10;}
</style>
<path class="st0" d="M237.65,444.48c8.04-3.51,7.82-9.46,5.45-16.76c-2.81-8.63-3.99-17.8-6.97-26.35
	c-11.04-31.68-3.58-61.49,8.48-90.88c12.56-30.62,25.47-61.09,37.84-91.79c1.23-3.04-0.21-7.15-0.45-11.7
	c8.19-0.42,17.2-1.66,26.08-1.1c6.91,0.43,12.03,4.09,10.76,12.82c-1.72,11.83,0.47,22.9,5.73,33.94
	c9.35,19.62,17.64,39.75,26.06,59.8c14.1,33.55,18.21,67.52,3.84,102.22c-2.22,5.37-4.1,11.08-4.83,16.8
	c-0.43,3.36,1.63,7.07,2.71,10.59c0.66,2.14,1.15,4.53,2.47,6.22c2.28,2.93,7.16,7.94,7.46,7.71c5.85-4.68,8.78,0.88,12.73,3.02
	c7.22,3.9,14.57,7.55,24.52,12.67c-8.78,1.1-16.1,3.19-23.21,2.61c-9.43-0.76-14.52,2.8-17.98,11.11
	c-4.05,9.72-8.84,19.14-13.86,29.85c-3.14-5.4-6.81-11.69-10.53-18.09c-2.85,4.23-5.85,8.68-8.88,13.18
	c-2.31-7.76-4.68-14.02-5.96-20.49c-1.49-7.56-1.76-15.36-3.11-22.95c-0.4-2.26-2.65-4.19-4.05-6.27c-2.18,1.75-6.13,3.38-6.24,5.25
	c-0.76,12.61-1.76,25.38-0.38,37.84c0.55,4.96,6.29,10.19,10.9,13.67c7.21,5.43,15.71,9.13,23.2,14.23
	c5.31,3.62,9.71,8.41,7.37,17.77c-9.05-21.01-24.64-11.63-40.98-11.44c4.01,3.37,6.07,5.13,8.15,6.85
	c15.49,12.83,31.6,25,46.28,38.69c10.6,9.89,6.23,20.9-9.62,24.55c7.41-17.12-2.18-29.12-12.03-40.35
	c-3.37-3.84-10.97-7.89-14.74-6.55c-5.63,2.01-10.22,8.29-13.85,13.69c-1.06,1.59,1.98,6.91,4.24,9.6
	c26.3,31.34,52.82,62.49,79.26,93.72c2.02,2.39,3.89,4.9,7.35,9.29c-33.77,0-65.4,0-97.06,0c2.57,11.6,7.43,22.1,6.4,31.99
	c-1.05,10.04-7.91,19.47-13.55,32.14c-5.55-12.5-12.81-22.16-13.45-32.24c-0.62-9.69,5.63-19.82,9.33-31.2c-31.95,0-63.55,0-98.03,0
	c3.66-4.87,5.51-7.6,7.62-10.1c25.99-30.75,52.14-61.37,77.88-92.33c2.82-3.39,5.79-9.76,4.42-12.88
	c-2.98-6.82-7.54-14.16-17.51-12.29c-0.84,0.16-1.73,0.02-4.37,0.02c10.12-7.38,18.94-13.81,28.05-20.44
	c-17.4-8.99-32.88-6.12-41.44,7.15c-1.4-7.07-0.38-10.53,6.82-15.52c7.72-5.35,15.96-9.97,24.16-14.58
	c7.54-4.24,11.43-10.42,11.2-19.02c-0.28-10.38-0.4-20.79-1.44-31.1c-0.24-2.34-3.99-4.32-6.12-6.47c-1.52,2.29-3.82,4.4-4.43,6.92
	c-2.44,9.93-4.49,19.97-6.38,30.02c-0.69,3.64-0.55,7.43-0.88,12.69c-3.15-2.64-5.85-4.91-9.16-7.69
	c-2.94,4.42-6.03,9.07-8.21,12.35c-6.08-10.58-11.78-21.34-18.31-31.57c-4.03-6.3-10.14-9.25-18.25-8.93
	c-5.68,0.23-11.46-1.87-16.9-2.88c9.32-5.26,17.49-9.89,25.68-14.49c1.9-1.07,3.99-3.15,5.73-2.91
	C242.66,455.47,239.1,449.58,237.65,444.48z M298.38,582.11c-28.83,32.32-56.71,63.59-85.69,96.07c58.04,0,113.61,0,171.41,0
	C354.91,645.46,327.15,614.35,298.38,582.11z M296.95,734.54c11.25-17.39,11.21-24.71,0.2-37.75
	C287.35,708.97,285.55,721.33,296.95,734.54z"/>
<path class="st0" d="M400.88,199.52c8.57,1.31,13.33,5.37,11.74,14.54c-0.2,1.16,0.84,3.34,1.85,3.77
	c6.55,2.81,8.08,7.73,7.13,14.29c-0.2,1.41,0.95,3.65,2.19,4.55c8.05,5.84,6.77,12.4,1.76,19.19c8.29,10.11,8.3,12.86,0.11,22.75
	c4.76,7.22,6.56,14.21-2.66,19.65c-0.28,0.16-0.84,0.39-0.82,0.44c3.37,10.14-5.44,15.95-8,23.85
	c-3.34,10.34-1.81,10.92-12.57,14.27c0.23,9.71-3.53,15.71-14.33,14.23c-1.28,3.07-1.72,6.44-3.64,8.16
	c-2.37,2.13-5.92,3.68-9.07,3.87c-1.27,0.08-3.4-3.92-4.11-6.36c-4.56-15.85-8.97-31.75-13.06-47.73c-0.58-2.25,0.07-5.67,1.51-7.45
	c22.98-28.35,19.68-53.82-9.99-75.41c-1.03-0.75-1.96-1.64-3.68-3.08c26.12-49.53,52.23-99.05,78.34-148.56
	c0.48-0.08,0.96-0.15,1.44-0.23c-1.9,8.41-2.2,17.64-6.01,25.07c-11.96,23.36-25.23,46.05-38,68.99c-1.89,3.4-4.45,6.59-5.54,10.22
	c-0.7,2.35-0.04,5.9,1.43,7.84c1.08,1.42,4.72,1.97,6.78,1.39C396.45,184.14,398.8,185.49,400.88,199.52z"/>
<path class="st0" d="M207.74,351.37c-8.77,1.28-12.32-4.95-12.27-14.89c-8.41-1.23-13.22-5.3-11.89-14.41
	c0.18-1.23-0.72-3.43-1.72-3.9c-8.49-3.94-8.58-10.48-5.65-18.35c-10.08-5.4-10.46-12.99-4.53-21.53
	c-8.22-9.5-8.22-12.41-0.06-22.02c-4.6-7.09-6.54-13.98,2.19-19.94c1.31-0.89,1.02-3.89,1.86-5.74c1.85-4.1,4.86-7.91,5.73-12.17
	c2.11-10.34,10.62-16.36,15.25-24.8c3.51-6.41,6.49-9.9,14.17-7.53c2.9,0.89,6.37-0.06,9.58-0.18c-0.17-3.83,0.94-8.36-0.7-11.38
	c-12.27-22.5-25.39-44.53-37.57-67.08c-3.94-7.29-6.25-15.57-8.52-23.62c-0.94-3.33,0.2-7.25,1.52-11.12
	c18.41,53.74,51.32,99.75,76.64,149.62c-6.02,5.63-12.16,10.45-17.19,16.24c-15.52,17.84-15.15,40.48,0.12,58.51
	c2,2.36,4.21,6.4,3.52,8.87c-5.32,18.94-11.34,37.68-17.93,59.05C216.5,360.91,212.93,357.02,207.74,351.37z"/>
<path class="st0" d="M143.65,610c-13.21-0.94-13.21-0.94-28.36,15.95c-6.97-9.77-0.89-26.21,11.14-27.15
	c10.11-0.79,17.59-5.63,25.67-10.35c3.48-2.03,7.74-2.72,11.58-4.17c2-0.76,4.71-1.33,5.68-2.88
	c13.02-20.85,25.78-41.86,39.08-63.61c-7.62-3.13-14.08-5.79-21.64-8.9c2.25-2.15,3.32-4.02,4.82-4.47
	c8.99-2.7,16.58-5.89,21.37-15.62c2.76-5.62,11.29-6.07,17.19-1.15c11.77,9.81,14.81,22.53,9.92,37.33
	c-1.6,4.83-2.17,9.99-3.43,16.01c-2.98-2.5-5.46-4.58-9.29-7.8c-0.29,4.6-0.23,7.7-0.74,10.7c-0.5,2.96-0.8,7.43-2.61,8.31
	c-2.14,1.04-5.86-0.9-8.77-1.89c-1.41-0.48-2.55-1.75-4.63-3.24c-10.42,13.25-20.53,26.1-31.79,40.43c3.84-0.47,5.67-0.61,7.46-0.93
	c17.17-3.08,27.05,7.1,23.17,24.2c-0.47,2.07-2.73,5.07-4.35,5.19c-1.84,0.14-4.98-2.08-5.65-3.95c-2.45-6.88-6.37-10.94-13.83-8.13
	c-7.05,2.65-15.9,4.05-16.34,14.17c-0.35,8.17,3.59,13.5,11.95,15.31c2.32,0.5,4.41,2.03,7.3,3.42c-4.69,7.9-10.68,8.29-18.01,7.19
	c-16.48-2.48-12.73-14.85-12.11-25.64c-12.14,3.78-16.25,9.54-17.01,20.16c-0.27,3.74-3.28,7.29-5.05,10.92
	c-2.25-3.22-5.61-6.15-6.53-9.71c-2.22-8.58-2.19-16.77,8.1-21.2C140.17,617.54,141.21,613.78,143.65,610z"/>
<path class="st0" d="M439.5,618.06c0.86,10.86,4.48,23.09-11.62,25.84c-8.58,1.46-11.87,0.79-18.23-7.32
	c3.37-1.42,7.14-1.99,9.34-4.16c3.83-3.76,8.33-8.15,9.39-12.97c0.7-3.2-3.2-8.92-6.59-11.25c-11.49-7.91-14.72-6.77-23.53,5.04
	c-1.17,1.56-3.81,3.13-5.5,2.87c-1.57-0.24-3.74-2.75-4.01-4.5c-3.04-19.99,7.52-29.85,23.24-25.01c1.73,0.53,3.59,0.63,7.67,1.31
	c-11.56-14.61-21.72-27.45-30.21-38.18c-7.27,0.53-14.88,3.11-17.05,0.73c-2.84-3.12-1.39-10.16-1.89-16.96
	c-3.37,2.72-5.71,4.62-8.27,6.69c-2.5-7.91-5.42-15.59-7.32-23.51c-2.84-11.78,10.8-32.13,20.92-31.55c3.07,0.18,8.1,1.04,8.76,2.86
	c4.1,11.26,13.9,13.93,23.47,17.31c0.76,0.27,1.21,1.4,2.78,3.34c-7.04,3.08-13.59,5.95-21.07,9.22
	c10.81,17.79,21.35,35.18,31.94,52.54c4.27,7.01,7.23,15.11,18.2,14.68c3.51-0.14,7.01,4.41,10.83,6.09
	c6.07,2.67,12.23,5.63,18.66,6.85c13.02,2.49,19.79,14.75,14.22,28.29c-8.75-5.7-11.66-21.07-28.9-15.61c2.73,3.49,4.46,6.95,7.23,9
	c8.02,5.92,10.29,19.87,3.64,27.22c-1.2,1.33-5.24,2.32-5.54,1.87c-1.65-2.5-3.39-5.45-3.56-8.34
	C455.7,627.3,452.6,622.67,439.5,618.06z"/>
<path class="st0" d="M317.15,150.14c1.39,15.84,2.94,33.48,4.36,49.7c-9.09,0-16.58,0.35-24.03-0.08
	c-11.65-0.67-23.33-1.47-34.87-3.09c-2.75-0.39-5.02-4.24-6.8-7.61c6.93,0.14,13.57,6.07,20.63-3.15
	c-4.57-0.59-7.46-0.96-11.03-1.42c1.39-1.83,2.58-3.39,5.89-7.73c-7.44,0.89-12.17,1.46-18.65,2.24c-4.29-4.32-2.6-8.84,3.82-13.03
	c6.92-4.52,13.47-9.64,20.54-13.91c2.52-1.52,6.08-1.76,9.18-1.83C295.79,150,305.4,150.14,317.15,150.14z M257.49,172.75
	c3.83,0.56,7.19,1.52,10.51,1.38c2.49-0.11,4.92-1.64,7.38-2.54c-2.08-2-3.83-5.01-6.3-5.81
	C263.61,164.02,259.26,165.83,257.49,172.75z"/>
<path class="st0" d="M208.49,369.56c4.11,2.71,7.28,4.8,11.7,7.72c-30.48,51.05-56.12,104.99-109.32,137.17
	C151,471.78,177.96,420.21,208.49,369.56z"/>
<path class="st0" d="M85.26,474.5c43.51-32.18,74.2-75.78,107.72-117.36c1.86,1.32,3.22,2.12,4.39,3.15
	c1.93,1.69,3.73,3.51,6.2,5.87c-27.37,35.24-52.72,71.85-88.32,99.36C106.82,472.02,97.56,477.62,85.26,474.5z"/>
<path class="st0" d="M486.28,515.84c-4.53-2.59-9.89-4.35-13.43-7.92c-14.56-14.68-30.37-28.61-42.35-45.24
	c-19.24-26.7-35.8-55.33-54.09-84.08c4.92-3.41,8.22-5.69,12.52-8.67c30.4,50.15,57.29,102.02,99.08,143.59
	C487.44,514.3,486.86,515.07,486.28,515.84z"/>
<path class="st0" d="M392.34,367.15c4.99-4.43,7.86-6.98,11.65-10.35c33.54,41.71,64.32,85.5,108.66,116.73
	c-0.61,1.2-1.22,2.39-1.83,3.59c-6.43-1.84-13.79-2.28-19.11-5.81c-10.98-7.29-22.17-15.05-30.95-24.72
	C437.55,421,415.56,394.29,392.34,367.15z"/>
<path class="st0" d="M134.22,19.81c15.05,55.92,44.68,101.91,73.75,149.07c-2.97,2.41-5.6,4.54-8.54,6.92
	c-1.59-1.66-2.88-2.64-3.7-3.93c-22.66-35.48-46.42-70.46-60.43-110.54c-3.71-10.62-3.44-22.67-4.69-34.1
	C130.43,25.72,132.1,24.01,134.22,19.81z"/>
<path class="st0" d="M398.52,175.29c-9.1-3.04-9.05-7.36-4.54-14.58c21.46-34.34,43.36-68.48,57.7-106.68
	c3.95-10.54,7.5-21.23,11.23-31.85c0.99,0.01,1.98,0.03,2.97,0.04c0.48,6.13,2.67,12.74,1.1,18.29
	c-4.55,16.11-8.79,32.75-16.47,47.44c-14.53,27.8-31.36,54.4-47.32,81.46C401.93,171.57,400.07,173.37,398.52,175.29z"/>
<path class="st0" d="M193.4,181.1c-3.37,3.59-5.95,6.36-9.25,9.88c-4.76-5.8-9.4-10.72-13.21-16.21
	c-18.26-26.31-36.83-52.43-54.09-79.39c-5.21-8.14-6.96-18.66-9.49-28.3c-0.97-3.71,0.28-8,2.07-12.6
	C129.54,101.74,161.68,140.61,193.4,181.1z"/>
<path class="st0" d="M413.94,191.88c-4.25-4.51-6.67-7.08-10.12-10.74c31.22-39.98,63.76-79.11,82.46-127.23
	c1.2,0.3,2.41,0.6,3.61,0.9c-0.34,6.46,0.99,13.61-1.34,19.25c-6.4,15.5-12.82,31.37-21.99,45.26
	C450.35,143.88,432.09,167.08,413.94,191.88z"/>
<path class="st0" d="M67.52,430.44c43.14-21.68,76.6-55.31,111.2-89.29c2.99,3.3,5.68,6.27,9.4,10.38
	c-6.47,6.25-12.41,12.57-18.94,18.2c-19.89,17.14-39.55,34.6-60.26,50.69c-7.94,6.17-18.32,9.44-27.95,13.07
	c-3.8,1.43-8.6,0.23-12.94,0.23C67.87,432.63,67.69,431.54,67.52,430.44z"/>
<path class="st0" d="M408.15,352.68c4.52-5.18,7.03-8.05,10.18-11.67c34.49,33.78,68.08,67.66,111.38,89.46
	c-0.18,1.04-0.36,2.08-0.53,3.13c-4.69,0-10.04,1.47-13.95-0.28c-11.75-5.23-24.21-10.12-34.09-18.03
	C456.39,395.49,432.91,374.1,408.15,352.68z"/>
<path class="st0" d="M424.61,204.99c-7.89-6.04-8.14-10.75-0.49-17.64c32.05-28.82,62.8-58.91,84.57-96.9
	c0.96,0.26,1.92,0.52,2.87,0.79c-0.62,5.35,0.04,11.3-2.13,15.92c-4.64,9.88-9.33,20.36-16.53,28.3
	c-20.83,22.99-42.91,44.86-64.55,67.11C427.32,203.65,425.78,204.25,424.61,204.99z"/>
<path class="st0" d="M87.33,88.44c24.59,42.84,58.73,74.39,93.48,106.34c-2.74,3.85-5.07,7.12-8.05,11.31
	c-29.86-27.73-60.2-53.58-80.59-88.54C87.55,109.63,83.9,101,87.33,88.44z"/>
<path class="st0" d="M163.1,223.26c-43.82-25.95-99.47-69.85-93.04-93.85c1.42,1.03,2.89,1.71,3.82,2.84
	c24.52,29.48,54.98,51.92,86.4,73.24C170.45,212.39,170.41,212.45,163.1,223.26z"/>
<path class="st0" d="M529.63,131.1c-2.92,6.91-4.58,14.81-9.04,20.52c-8.13,10.41-17.06,20.57-27.21,28.93
	c-18.72,15.41-38.57,29.45-57.97,44.07c-8.84-12.2-8.89-12.27,1.42-19.17c31.93-21.37,62.61-44.2,87.3-74.1
	c0.56-0.68,1.54-1.01,2.33-1.5C527.51,130.26,528.57,130.68,529.63,131.1z"/>
<path class="st0" d="M421.9,336.01c3.06-5.21,4.98-8.48,7.46-12.69c36.57,23.45,72.98,45.46,114.97,56.22
	c-0.18,1.33-0.37,2.65-0.55,3.98c-6.74,0.52-14.11,3.06-20.1,1.18c-17.19-5.39-34.33-11.5-50.51-19.34
	C455.8,356.95,439.55,346.24,421.9,336.01z"/>
<path class="st0" d="M52.91,379.58c41.94-10.88,78.4-32.75,114.82-56.34c2.56,4.36,4.61,7.86,7.18,12.23
	c-32.15,20.18-62.97,41.17-100.12,49.15c-6.71,1.44-14.12-0.45-21.21-0.8C53.35,382.4,53.13,380.99,52.91,379.58z"/>
<path class="st0" d="M130.61,547.54c16.5-25.88,33.97-51.2,49.23-77.8c15.12-26.35,27.99-53.99,43.9-81.01
	c0,5.87,1.89,12.59-0.3,17.48c-20.06,44.79-43.48,87.7-74.82,125.79c-5.12,6.22-11.52,11.38-17.33,17.03
	C131.06,548.53,130.84,548.03,130.61,547.54z"/>
<path class="st0" d="M464.53,548.08c-4.75-4.22-10.07-7.95-14.16-12.73C416.74,495.97,392.4,450.9,371.26,404
	c-2.09-4.63-0.28-11.02,1.91-17.04c14.11,27.51,27.23,55.58,42.61,82.37c15.25,26.56,32.77,51.82,49.29,77.65
	C464.89,547.35,464.71,547.71,464.53,548.08z"/>
<path class="st0" d="M49.49,334.86c36.43-9.43,73.22-18.95,110.99-28.73c0.8,1.95,2.34,5.73,3.84,9.4
	C129.73,338.09,60.78,348.42,49.49,334.86z"/>
<path class="st0" d="M159.41,235.92c-0.5,1.89-1.49,5.58-2.45,9.15c-33.44-1.12-97.88-40.34-101.15-59.84
	C89.24,201.59,123.54,218.37,159.41,235.92z"/>
<path class="st0" d="M549.84,335.39c-5.54,1.93-11.26,5.6-16.96,5.56c-11.88-0.08-24.08-0.79-35.54-3.67
	c-21.59-5.42-42.74-12.57-65.17-19.32c2.22-5.67,3.69-9.45,4.63-11.85C474.57,315.9,511.58,325.48,549.84,335.39z"/>
<path class="st0" d="M543.93,185.17c-5.43,6.78-9.72,15.18-16.53,19.99c-12.89,9.11-26.84,16.97-41.07,23.84
	c-14.2,6.86-29.29,11.88-45.08,18.14c-1.57-5.1-2.76-8.95-3.49-11.33c35.28-17.2,69.75-34.01,104.23-50.82
	C542.63,185.05,543.28,185.11,543.93,185.17z"/>
<path class="st0" d="M553.13,283.53c-7.9,10.54-18.21,14.13-28.71,14.46c-21.33,0.67-42.73-0.14-64.08-0.73
	c-6.36-0.17-12.69-1.63-19.92-2.62c0.59-4.89,1.07-8.9,1.34-11.11C478.98,283.53,515.12,283.53,553.13,283.53z"/>
<path class="st0" d="M48.58,233.69c34.49,8.16,69.85,16.52,106.12,25.1c0,0.69,0.1,2.92-0.03,5.13c-0.11,1.87-0.47,3.73-0.69,5.46
	C111.57,272.25,53.37,251.49,48.58,233.69z"/>
<path class="st0" d="M442.97,271.3c-0.32-5.93-0.54-9.99-0.68-12.5c36.4-8.59,71.81-16.95,108.66-25.64
	c-4.55,4.61-8.36,11.07-13.94,13.59c-13.76,6.22-28.05,11.77-42.67,15.49C478.1,266.37,461.26,268.18,442.97,271.3z"/>
<path class="st0" d="M155.38,283.54c0.29,2.15,0.84,6.16,1.37,10.02c-39.41,13.39-100.98,7.74-111.42-10.02
	C81.68,283.54,117.98,283.54,155.38,283.54z"/>
<path class="st0" d="M220.87,758.31c14.3,1.65,14.32,1.64,15.18,15.6c0.36,5.77,0.6,11.54,3.12,18.5
	c4.11-5.79,8.22-11.58,12.33-17.37c5.89-8.3,5.89-8.31,15.34-3.59c-6.68,7.93-14.75,37.86-11.98,47.53c-5.13-1.45-9.48-2.69-12-3.4
	c3.24-10.79,6.23-20.76,9.22-30.73c-0.58-0.36-1.16-0.72-1.74-1.08c-5.87,7.59-11.75,15.18-17.62,22.76
	c-0.86-0.07-1.71-0.13-2.57-0.2c-0.64-10.31-1.28-20.63-1.92-30.94c-0.76-0.15-1.52-0.29-2.27-0.44
	c-2.71,10.88-5.42,21.75-8.34,33.47c-1.54-0.37-4.51-1.08-5.83-1.4c4.23-13.98,8.56-27.46,12.21-41.13c0.59-2.19-1.87-5.2-2.92-7.83
	L220.87,758.31z"/>
<path class="st0" d="M499.88,663.01c5.82,7.31,11.63,14.63,17.45,21.94c-0.44,0.68-0.87,1.36-1.31,2.04
	c-9.35-1.54-18.7-3.07-28.05-4.61c-0.27,0.67-0.55,1.34-0.82,2.01c9.19,5.2,18.37,10.4,28.09,15.9c-0.58,1.05-1.93,3.5-3.32,6
	c-12.16-11.61-26.29-18.54-41.76-24.92c1.54-6.56,5.26-10.64,14.52-7.76c6.35,1.97,13.18,2.44,22.75,4.08
	c-6.32-7.45-10.49-13.08-15.4-17.97c-5.36-5.34-6.43-10.16-1.9-14.17c14.26,8.19,27.98,16.07,42.6,24.47
	c-0.84,1.51-2.93,5.26-4.3,7.72c-9.51-5.81-18.25-11.15-26.99-16.48C500.91,661.85,500.39,662.43,499.88,663.01z"/>
<path class="st0" d="M328.97,770.14c10.1-0.67,22.67-10.54,33.69,1.23c8.45,9.02,10.61,20.91,6.27,32.74
	c-5.49,14.98-20.52,10.51-29.51,14.67C335.91,802.46,332.58,786.95,328.97,770.14z M363.27,795.89c-2.29-6.51-3.74-14.44-7.82-20.65
	c-2.01-3.06-8.87-2.93-13.54-4.24c-0.49,3.46-1.82,7.05-1.32,10.36c1.2,7.98,2.97,15.91,5.12,23.7c0.74,2.66,3.43,6.85,5.04,6.76
	c3.07-0.16,6.82-2.25,8.79-4.72C361.58,804.55,361.83,800.57,363.27,795.89z"/>
<path class="st0" d="M157.11,778.31c-17.05-7.24-0.75-20.56-6.22-31.77c-4.36,5.83-8.16,10.92-12.71,17
	c-2.33-1.91-5.84-4.78-8.9-7.28c13.36-10.71,23.31-22.94,31.35-37.99c5.64,6.92,17.97,8.8,18.03,21.17
	c0.03,6.56-6.92,11.59-18.33,14.52C159.31,761.77,158.22,769.93,157.11,778.31z M153.42,743.57c7.94,5.24,12.2,1.61,15.87-3.24
	c3.51-4.64,3.12-8.72-3.17-12.24C162.01,733.1,158.05,737.93,153.42,743.57z"/>
<path class="st0" d="M299.16,808.38c-17.29-2.69-23.33,2-19.07,13.69c-2.85,0-5.5,0-8.51,0c0.38-0.98,0.62-1.8,1-2.55
	c5.53-10.98,11.19-21.9,16.58-32.95c7.29-14.93,13.1-18.14,29.31-14.77c2.12,0.44,3.62,3.84,6.66,7.3
	c-7.68-2.29-12.61-3.76-20.24-6.03c1.4,9.13,2,15.35,3.74,21.23c0.19,0.65,6.83-0.6,10.93-1.01c0,1.63,0,4.08,0,4.91
	c-4.42,0.69-11.71,0.94-11.83,2c-0.63,5.57-1.32,12.96,1.74,16.51c2.21,2.56,10.23,0.12,16.78-0.13c1.16,2.8-0.21,5.57-6.24,5.51
	c-8.08-0.09-16.16-0.02-23.67-0.02C297.23,817.76,298.13,813.38,299.16,808.38z M284.27,803.5c5.97-0.31,9.64-0.5,14-0.73
	c-0.46-7.72-0.84-14.28-1.23-20.83c-0.69-0.15-1.37-0.29-2.06-0.44C291.7,788.24,288.42,794.98,284.27,803.5z"/>
<path class="st0" d="M221.08,758.06c-3.92,2.66-8.35,4.82-11.68,8.09c-9.15,8.99-17.83,18.45-26.7,27.72
	c-0.88-0.36-1.76-0.72-2.65-1.08c1.71-17.39,3.42-34.78,5.23-53.19c4,1.81,8.46,3.83,13.14,5.95c-8.73,9.57-5.35,20.81-7.34,31.02
	c0.86,0.53,1.71,1.05,2.57,1.58c6.77-7.68,13.55-15.37,20.32-23.05c-0.39-1.12-0.77-2.25-1.16-3.37c2.68,2.2,5.37,4.39,8.06,6.59
	C220.87,758.31,221.08,758.06,221.08,758.06z"/>
<path class="st0" d="M106.01,641.53c0.05,0.16,0.89,2.76,1.71,5.32c-17.81,0-34.98,0-52.15,0c-0.34-0.66-0.67-1.31-1.01-1.97
	c13.03-11.16,26.05-22.32,39.94-34.23c1.6,3.97,3.41,8.47,5.28,13.13c-12.74,1.61-18.59,11.84-27.58,17.62
	c0.29,0.86,0.57,1.72,0.86,2.59C83.39,643.22,93.7,642.45,106.01,641.53z"/>
<path class="st0" d="M457.79,697.16c16.05,5.97,32.11,11.94,48.97,18.21c-2.83,3.25-5.71,6.56-7.71,8.86
	c-4.91-2.41-9.88-6.91-12.91-5.85c-4.14,1.44-8.48,6.72-9.52,11.11c-0.73,3.1,3.88,7.47,6.72,12.31c-0.33,0.38-1.94,2.22-3.57,4.1
	c-8.04-15.96-15.84-31.46-23.65-46.96C456.68,698.35,457.23,697.75,457.79,697.16z M473.55,726c3.26-4.31,5.51-7.28,8.3-10.96
	c-6.22-2.34-10.74-4.04-17.74-6.67C467.86,715.39,470.23,719.82,473.55,726z"/>
<path class="st0" d="M415.86,769.2c-4.65,1.38-8.06,2.38-13.29,3.93c4.86,7.4,8.81,13.43,13.22,20.15
	c-3.06,1.52-7.56,3.75-10.11,5.02c-7.43-15.09-14.65-29.75-22.24-45.17c4.42-2.17,11.1-5.25,17.6-8.69
	c6.33-3.35,7.83-0.02,8.48,4.37c-5.37,0.59-10.37,1.14-17.09,1.87c3.91,7.8,6.6,13.15,9.87,19.68c3.69-2.68,6.53-4.75,9.99-7.26
	C413.18,764.62,414.54,766.94,415.86,769.2z"/>
<path class="st0" d="M137.15,695.54c-6.09,9.91-11.54,18.79-17,27.67c0.65,0.8,1.29,1.59,1.94,2.39
	c9.63-4.46,19.27-8.92,30.17-13.97c-0.1-0.12,1.63,1.95,2.81,3.36c-16.25,6.92-32.06,13.64-47.86,20.37c-0.7-0.58-1.4-1.16-2.1-1.74
	c8.06-15.37,16.12-30.74,24.48-46.7C132.2,689.9,135.3,693.43,137.15,695.54z"/>
<path class="st0" d="M41.75,596.11c-0.41-2.95-1.04-7.59-1.42-10.33c16.61-1.94,32.37-3.78,48.65-5.68
	c5.61,16.03,4.55,24.71-5.38,25.32c1.87-2.64,4.07-4.52,4.56-6.77c0.56-2.62-0.38-5.56-0.83-9.85c-6.65,1.39-12.56,2.23-18.05,4.24
	c-0.7,0.26,0.81,6.57,1.38,10.65c-1.71,0.17-4.1,0.4-5.82,0.57c-0.56-4.12-1.2-10.64-1.49-10.62
	C56.37,594.01,49.44,595.07,41.75,596.11z"/>
<path class="st0" d="M496.95,626.55c12.04,0,22.46,0,32.88,0c0.3-0.69,0.6-1.38,0.9-2.06c-8.74-5.64-17.47-11.29-27.48-17.75
	c-0.02,0.07,0.67-2.59,1.24-4.78c14.31,10.42,28.28,20.6,42.26,30.78c-0.28,0.75-0.56,1.51-0.84,2.26
	c-17.15,1.08-34.29,2.15-52.31,3.29C494.84,633.91,496.05,629.68,496.95,626.55z"/>
<path class="st0" d="M121.3,687.49c-0.28-5.54-0.49-9.69-0.83-16.53c-14.66,10.6-29.32,15.81-38.96,29.73
	c-2.71-4.28-5.38-8.49-8.24-12.99c8.85-1.31,23.01-9.51,41.05-23.83c-4.23-2.67-7.8-4.92-12.18-7.69c1.05-0.88,3.21-2.69,6.28-5.26
	c7.04,10.55,13.6,20.39,20.77,31.13C126.34,684.01,123.88,685.71,121.3,687.49z"/>
<path class="st0" d="M543.34,603.32c3.12-3.73,6.18-6.63,8.07-10.16c0.49-0.92-2.82-5.57-4.08-5.45c-4.4,0.43-8.92,1.7-12.92,3.62
	c-3.4,1.63-6.01,6.29-9.25,6.59c-5.26,0.49-13.12,0.29-15.51-2.9c-2.88-3.83-1.75-11.18-1-16.82c0.16-1.19,6.18-1.61,9.49-2.39
	c0.17,0.98,0.34,1.95,0.51,2.93c-1.06,0.5-2.42,0.74-3.11,1.55c-1.94,2.26-3.61,4.75-5.39,7.15c3.31,1.17,7.11,3.94,9.82,3.12
	c3.69-1.11,6.63-4.88,9.76-7.66c6.08-5.4,12.7-6.39,19.58-2.01c6.62,4.21,6.21,10.72,4.83,17.38
	C552.68,605.22,548.87,606.31,543.34,603.32z"/>
<path class="st0" d="M474.6,746.87c-1.71,4-2.02,5.52-2.87,6.6c-5.96,7.52-15.36,10.5-23.31,7.53c-9.64-3.6-19.17-18.12-18.67-28.6
	c0.47-9.95,7.27-14.64,15.39-18.07c5.95-2.51,8.07,0.89,8.86,4.51c-5.35,1.12-13.37,0.8-14.53,3.47c-2.08,4.8-0.81,11.57,0.52,17.16
	c0.92,3.85,3.95,7.41,6.64,10.59c7.01,8.29,13.48,8.59,21.6,1.55C469.49,750.51,470.91,749.6,474.6,746.87z"/>
<path class="st0" d="M411.67,736.84c2.19-1.33,5.99-3.65,10-6.09c1.65,10.59,18.27,37.29,26.73,42.15c-4.7,2.89-8.83,5.44-10.9,6.71
	C428.84,765.25,420.56,751.56,411.67,736.84z"/>
<path class="st0" d="M364.83,760.34c2.31-0.86,6.75-2.51,10.87-4.05c1.82,17.26,7.83,32.32,16.66,47.18
	c-3.24,1.3-7.64,3.07-10.27,4.13C376.3,791.75,370.7,776.42,364.83,760.34z"/>
<path class="st0" d="M254.53,566.34c-5.82,13.76-18.52,24.31-8.94,41.29c-0.95,0.55-1.9,1.11-2.86,1.66
	c-3.98-3.34-9.99-6.01-11.37-10.21c-1.37-4.18,0.48-11.07,3.45-14.68C240.42,577.59,247.85,572.28,254.53,566.34z"/>
<path class="st0" d="M298.38,582.11c28.77,32.24,56.53,63.36,85.72,96.07c-57.8,0-113.36,0-171.41,0
	C241.67,645.69,269.55,614.43,298.38,582.11z M298.3,594.43c-22.51,25.4-44.06,49.71-66.95,75.54c45.51,0,88.6,0,134.01,0
	C342.45,644.17,320.88,619.86,298.3,594.43z"/>
<path class="st0" d="M296.95,734.54c-11.4-13.21-9.6-25.56,0.2-37.75C308.16,709.83,308.2,717.15,296.95,734.54z"/>
<path class="st0" d="M257.49,172.75c1.77-6.92,6.12-8.73,11.59-6.97c2.47,0.79,4.22,3.8,6.3,5.81c-2.46,0.9-4.89,2.43-7.38,2.54
	C264.68,174.27,261.32,173.3,257.49,172.75z"/>
<path class="st0" d="M363.27,795.89c-1.44,4.68-1.69,8.66-3.73,11.21c-1.97,2.48-5.72,4.57-8.79,4.72c-1.61,0.08-4.3-4.1-5.04-6.76
	c-2.16-7.78-3.92-15.71-5.12-23.7c-0.5-3.31,0.82-6.9,1.32-10.36c4.67,1.31,11.53,1.18,13.54,4.24
	C359.53,781.45,360.99,789.38,363.27,795.89z"/>
<path class="st0" d="M153.42,743.57c4.63-5.64,8.59-10.47,12.7-15.48c6.29,3.52,6.68,7.61,3.17,12.24
	C165.62,745.19,161.36,748.81,153.42,743.57z"/>
<path class="st0" d="M284.27,803.5c4.15-8.52,7.43-15.26,10.71-22c0.69,0.15,1.37,0.29,2.06,0.44c0.39,6.55,0.77,13.11,1.23,20.83
	C293.91,803,290.24,803.19,284.27,803.5z"/>
<path class="st0" d="M473.55,726c-3.31-6.18-5.68-10.61-9.45-17.64c7,2.63,11.53,4.34,17.74,6.67
	C479.05,718.72,476.8,721.7,473.55,726z"/>
<path class="st0" d="M298.3,594.43c22.57,25.43,44.15,49.74,67.06,75.54c-45.4,0-88.5,0-134.01,0
	C254.25,644.14,275.79,619.83,298.3,594.43z M282.14,627.66c-0.87,5.61-3.06,8.95-9.75,9.67c-3.86,0.41-7.3,4.69-10.93,7.23
	c0.48,0.75,0.96,1.5,1.44,2.25c5.85-1.1,13.78,5.17,17.02-5.77c0.34-1.13,3.83-1.82,5.88-1.87c8.73-0.22,17.47-0.19,26.2-0.07
	c1.84,0.03,5.1,0.51,5.27,1.31c2.5,11.33,10.61,5.41,18.17,6.62c-6.02-11.61-18.37-12.73-26.03-20.14
	c-4.53-4.38-18.08,0.58-27.57,1.34c3.18-1.48,6.28-3.93,9.57-4.23c7.16-0.65,14.41-0.2,21.63-0.2c0.28-0.83,0.57-1.66,0.85-2.49
	c-5.02-5.61-10.04-11.21-15.68-17.52c-8.85,10.03-16.94,19.21-25.04,28.39c0.78,0.75,1.57,1.49,2.35,2.24
	C277.73,632.17,279.94,629.92,282.14,627.66z M246.84,662.15c34.93,0,68.26,0,103.3,0c-3.46-3.71-5.6-6-6.55-7.02
	c-4.71,1.47-7.97,3.34-11.24,3.37c-22.74,0.26-45.48,0.27-68.21-0.01c-3.6-0.04-7.17-1.98-11.5-3.26
	C251.4,656.71,249.57,658.9,246.84,662.15z"/>
<path class="st0" d="M281.85,628.24c9.49-0.76,23.04-5.72,27.57-1.34c7.67,7.41,20.02,8.52,26.03,20.14
	c-7.56-1.21-15.67,4.71-18.17-6.62c-0.18-0.81-3.44-1.29-5.27-1.31c-8.73-0.12-17.47-0.14-26.2,0.07c-2.05,0.05-5.54,0.74-5.88,1.87
	c-3.24,10.94-11.17,4.67-17.02,5.77c-0.48-0.75-0.96-1.5-1.44-2.25c3.63-2.54,7.07-6.82,10.93-7.23c6.69-0.72,8.87-4.06,9.74-9.67
	C282.14,627.66,281.85,628.24,281.85,628.24z"/>
<path class="st0" d="M246.84,662.15c2.73-3.25,4.56-5.44,5.8-6.92c4.33,1.28,7.9,3.22,11.5,3.26c22.73,0.28,45.48,0.26,68.21,0.01
	c3.27-0.04,6.52-1.9,11.24-3.37c0.95,1.02,3.09,3.32,6.55,7.02C315.1,662.15,281.77,662.15,246.84,662.15z"/>
<path class="st0" d="M281.85,628.24c0,0,0.29-0.58,0.29-0.58c-2.2,2.25-4.41,4.51-6.61,6.76c-0.78-0.75-1.57-1.49-2.35-2.24
	c8.1-9.18,16.19-18.36,25.04-28.39c5.65,6.31,10.66,11.91,15.68,17.52c-0.28,0.83-0.57,1.66-0.85,2.49c-7.22,0-14.47-0.45-21.63,0.2
	C288.13,624.31,285.04,626.76,281.85,628.24z"/>
</svg>
