<?xml version="1.0" encoding="utf-8"?>
<!-- Generator: Adobe Illustrator 25.2.1, SVG Export Plug-In . SVG Version: 6.00 Build 0)  -->
<svg version="1.1" id="Capa_1" xmlns="http://www.w3.org/2000/svg" xmlns:xlink="http://www.w3.org/1999/xlink" x="0px" y="0px"
	 viewBox="0 0 595.3 346.7" style="enable-background:new 0 0 595.3 346.7;" xml:space="preserve">
<style type="text/css">
	.st0{fill:#FFFFFF;}
</style>
<g>
	<path class="st0" d="M396.2,163.9c0,4.1,0,7.8,0,11.6c0,5,0,10,0,15c0,0.9,0,1.8,0,2.6c0.3,7.9,2.1,10.4,8.5,11.3
		c1.1,0.2,2.2,0.2,3.4,0.4c0,1.2,0,2.1,0,3.3c-12,0-23.8,0-35.9,0c-0.1-1-0.2-1.9-0.3-3c1.8-0.4,3.5-0.7,5.2-1.2
		c3.7-1.1,5.1-3,5.6-7.6c0.2-1.7,0.2-3.5,0.2-5.3c0-24.8,0-49.6,0-74.4c0-2-0.1-4-0.3-6c-0.4-2.9-1.7-4.7-4.1-5.2
		c-1.4-0.3-2.8-0.5-4.5-0.8c-0.1,1.8-0.2,3.3-0.2,4.7c0,6.9,0,13.8-1,20.6c-2.3,14.2-8.5,24.6-18.9,31.2c-5.7,3.6-11.9,5.5-18.2,6.5
		c-12.3,1.9-24.5,1.3-36.5-2.8c-3.3-1.1-6.5-2.7-9.5-4.6c-9.5-5.8-14.8-15.4-16.1-28.5c-0.4-4.3-0.6-8.7-0.7-13.1
		c-0.1-15.2,0-30.3-0.1-45.5c0-4.2-0.5-8.5-1-12.7c-0.7-6.3-4-9.6-8.8-10.5c-2.5-0.5-5-0.8-7.6-1.2c0-1.1,0-2.1,0-3.4
		c17.8,0,35.4,0,53.2,0c0,1.2,0,2.2,0,3.4c-2.3,0.4-4.5,0.7-6.7,1.1c-1.1,0.2-2.2,0.5-3.2,0.9c-2.9,1.1-4.9,3.4-5.6,7.2
		c-0.5,2.8-0.8,5.7-0.8,8.5c-0.1,18-0.1,36.1,0,54.1c0,4.6,0.5,9.3,1.4,13.7c2.3,12.1,8.5,20.1,18.1,23.4
		c10.5,3.6,21.1,3.6,31.5-0.5c13.4-5.2,21.1-18.1,21.4-35.5c0.2-12.1,0.1-24.3,0.1-36.4c0-6,0-12,0-18c0-1.9-0.1-3.8-0.4-5.6
		c-1.1-7.3-3.5-10.4-9.4-11.6c-2.4-0.5-4.8-0.7-7.5-1.1c-0.1-0.9-0.2-2-0.3-2.8c0.9-1.1,38.7-1.2,42.3-0.3c0,0.9,0,1.9,0,2.8
		c-0.3,0.2-0.5,0.4-0.8,0.5c-2.5,0.5-5,0.9-7.4,1.6c-3.6,1.2-5.9,4.2-6.7,8.8c-0.4,1.9-0.7,3.9-0.7,5.9c-0.1,8.6-0.1,17.3-0.1,25.9
		c0,0.6,0.1,1.2,0.2,2.3c7.6-2.3,14.8-5.7,22.2-9.5c0,4.6,0,8.7,0,13.3c0.9-0.6,1.5-0.9,2-1.4c2.8-2.4,5.5-5,8.5-7.1
		c13.7-9.5,36.7-3.9,40.8,24.9c1.7,12.3,0.8,24.3-4.4,35.3c-6.1,12.8-15.3,19.6-27.2,20.3c-6.4,0.4-12.6-0.8-18.3-5
		C397.3,164.2,396.9,164.2,396.2,163.9z M396.2,129.3c0,6.6,0.1,13.3,0,19.9c-0.1,2.7,0.5,4.9,2.2,6.6c1.9,1.8,3.7,3.9,5.8,5.2
		c8.3,5.1,20.8,4.1,26.7-11.3c0.7-1.9,1.3-3.9,1.8-5.9c1.7-7.3,1.8-14.8,1-22.3c-0.7-6.9-2.8-13.3-6.8-18.4
		c-4.7-6.1-10.4-8.2-17-6.6c-4.6,1.1-8.3,4.1-11.9,7.6c-1.3,1.3-1.9,2.7-1.8,4.8C396.2,115.5,396.2,122.4,396.2,129.3z"/>
	<path class="st0" d="M89,231.8c0.7-0.8,1.2-1.8,2-2.5c2.6-2.3,5.3-4.5,8.5-7.3c-4.2-0.9-7.7-1.9-11.2-1.2c-1,0.2-2,1.5-2.8,2.6
		c-0.6,0.9-1,2.1-1.7,3.8c-0.7-3.3,0-5.3,1.5-6.9c1.5-1.6,3.3-2.9,5-4.2c2-1.5,4.1-2.7,6.1-4.2c1.4-1,2.4-2.4,2.6-4.4
		c0.6-6,0.4-11.9-0.6-18c-1.1,0-2.1,0-3.4,0c0,2,0.2,3.7,0,5.4c-0.3,2.6-0.6,5.2-1.4,7.6c-0.8,2.4-1.6,4.5-0.4,7.1
		c-2.3,0.6-2.9-1.7-3.9-3c-1.3,2.3-2.4,4.4-4,7.2c-0.3-1.5-0.5-2.3-0.5-3c-0.5-6.9-4-11.3-8.1-15.1c-0.6-0.6-1.7-0.4-2.6-0.6
		c-2-0.3-4-0.5-5.9-1c-0.6-0.1-1-0.9-1.5-1.6c4.2,0,7.2-2.9,10.3-5.7c0.5-0.4,1.2-0.3,1.8-0.5c0.7-0.2,1.5-0.5,2.5-0.9
		c-0.6-1.1-1-1.8-1.5-2.6c1-1.1,2-2.1,3.1-3.2c-1.2-5.7-2.2-11.5-3.7-17c-2.3-7.9-2-15.8-0.1-23.6c1.2-5.1,2.9-10.1,4.5-15.1
		c1.7-5.3,3.6-10.6,5.4-15.9c2.3-6.7,4.6-13.3,7.1-19.9c0.7-1.9,1.2-3.6-1.4-4.9c1.3-0.5,1.9-0.8,2.5-0.8c2.6-0.2,5.2-0.4,7.8-0.3
		c1,0,2.1,0.7,3.1,1.2c1.3,0.7,1.6,2,1.4,3.7c-0.2,1.6-0.4,3.3-0.3,4.9c0.2,2.2,0.4,4.5,1,6.6c2.1,6.3,4.5,12.6,6.8,18.8
		c0.8,2.3,1.7,4.6,2.6,6.8c3.6,8.5,5.5,17.7,6,27.3c0.2,3.1-0.6,6.4-1.3,9.6c-1.4,6.3-3,12.4-4.6,18.8c0.6,0.6,1.1,1.2,1.6,1.7
		c0.7,0.8,1.7,1.1,1,2.9c-0.2,0.7,1.1,2.3,1.8,3.5c1-0.7,1.7-1.2,2.4-1.7c3.6,2.6,6.6,7,12,6.1c-1.5,2.4-3,2.7-4.5,2.9
		c-2,0.2-4,0.2-6,0.1c-1.6-0.1-2.7,0.7-3.5,2.3c-1.3,2.7-2.7,5.3-3.8,8.1c-0.8,2.2-1.1,4.7-1.6,7.1c-1.9-1.6-2.3-2.3-4.6-8.6
		c-0.9,2.6-1.4,5.6-4.2,6c0.5-3.7,0.3-3.6-1-7.9c-0.7-2.3-0.9-4.8-1.2-7.3c-0.2-1.6,0-3.2,0-5c-0.7-0.2-1.1-0.4-1.6-0.4
		c-0.5,0-1,0.1-1.6,0.2c-1,5.8-1.2,11.6-0.7,17.5c0.2,2.3,1.3,3.9,2.9,5c2.2,1.5,4.4,2.9,6.6,4.5c1.5,1.1,3.1,2.4,4.4,3.9
		c1.4,1.5,2.1,3.5,1.3,6.4c-0.4-0.7-0.7-1-0.8-1.5c-1.1-3.9-3.5-4.9-6.5-4.5c-2.2,0.3-4.4,0.5-7.2,0.9c1.1,1.1,1.6,1.8,2.2,2.3
		c4.7,4.4,9.5,8.8,14.2,13.3c1.2,1.1,2.3,2.4,3.3,3.8c2.3,3.3,1.8,6.9-1.2,9.1c-0.8,0.6-1.7,1-3,1.7c0.2-1.2,0.1-1.8,0.3-2.3
		c1.4-3.6,0.7-6.8-1.1-9.8c-1.5-2.5-3-5.1-4.8-7.1c-2.4-2.7-4.6-2.2-6.9,0.7c-0.3,0.5-0.7,0.9-1,1.4c-1.7,2.8-1.7,3.1,0.1,5.7
		c9.5,13.1,19,26.2,28.5,39.3c0.9,1.2,1.7,2.4,2.5,3.6c-0.1,0.3-0.1,0.4-0.2,0.5c0,0.1-0.1,0.2-0.2,0.2c-0.2,0.1-0.4,0.2-0.6,0.2
		c-11.2,0.2-22.3,0.4-33.6,0.6c0.2,2.8,1.4,5,2.3,7.2c1.1,2.4,1.2,4.5,0,7c-1.7,3.7-3,7.6-4.7,12.2c-0.9-2.3-1.7-4-2.3-5.7
		c-1.1-2.9-3-5.9-3-8.9c0-3,1.9-5.9,2.9-8.9c0.3-0.8,0.5-1.6,0.9-2.9c-11.8-0.2-23.2-0.4-35.3-0.7c1-1.5,1.6-2.5,2.2-3.4
		c9.6-13.2,19.1-26.4,28.7-39.6c0.5-0.7,1.2-1.4,1.6-2.3c0.3-0.7,0.4-1.7,0.2-2.4C95.7,232.3,92.8,230.6,89,231.8L89,231.8z
		 M101.8,240.4c-10.3,13.5-20.3,26.6-30.7,40.3c20.8,0,40.8,0,61.5,0C122.1,267,112.1,253.8,101.8,240.4z M101.3,288.1
		c-1,2.7-2,5.1-2.9,7.6c-0.2,0.6-0.2,1.5,0,2.1c0.8,2.3,1.7,4.6,2.7,7.1c4-7.8,4-8.8,0.7-16.1C101.8,288.6,101.8,288.5,101.3,288.1z
		"/>
	<path class="st0" d="M559.8,137.8c0.8,0.7,1.5,1.2,2.3,1.9c-0.4,1-0.7,1.9-1.1,2.7c-2.7,5.6-5.7,10.9-9.6,15.3
		c-8.8,10-19.1,12.9-30.2,8.3c-10.9-4.5-17.1-14.9-19.6-28.6c-1.4-7.9-1.2-15.9,0.5-23.8c3.6-17,15.3-29.3,29.4-31
		c5.5-0.7,10.8-0.3,16.1,1.7c3,1.2,5.7,3,8.1,5.7c2.6,3,3.9,6.7,3.5,11.1c-0.2,1.5-0.7,3.2-1.4,4.4c-3.4,5-10.7,3.6-12.7-2.5
		c-0.6-1.8-0.9-3.8-1.3-5.8c-1.4-6.3-4.1-8.8-9.4-9c-5.3-0.2-9.8,2.2-13.5,7c-2.5,3.3-4.4,7.2-5.4,11.6c-2.3,9.7-2.2,19.3,0.6,28.7
		c7.2,23.5,28.8,23.3,38.4,10.2C556.1,143.2,557.8,140.7,559.8,137.8z"/>
	<path class="st0" d="M492.5,154.9c0.5,0.8,1.1,1.5,1.4,2c0,0.7,0,1-0.1,1.1c-2.4,3-4.6,6.3-7.3,8.8c-4.7,4.4-10.2,5-15.8,3.8
		c-4.8-1.1-7.9-4.9-8.9-10.9c-0.5-2.8-0.7-5.7-0.7-8.6c-0.1-17.3,0-34.6,0-51.9c0-1.4,0-2.7,0-4.5c-3.7-0.1-7.1-0.3-10.4-0.4
		c-0.7-2.1,0.3-2.7,1.1-3.4c2.5-2.1,5-4.1,7.4-6.5c4.9-5,8.5-11.3,11.5-18.2c1.1-2.6,1.1-2.6,4-2c0,7.7,0,15.6,0,23.8
		c5.7,0,11.1,0,16.7,0c0,2.2,0,4,0,6.3c-5.4,0-10.8,0-16.4,0c-0.1,1.5-0.3,2.5-0.3,3.6c0,16.8,0,33.6,0,50.3c0,1.9,0.2,3.8,0.4,5.6
		c0.6,4.3,2.4,6.4,5.9,6.7c3.1,0.3,5.9-1,8.5-3.2C490.4,156.9,491.3,156,492.5,154.9z"/>
	<path class="st0" d="M118.5,89.4c0.5-1.3,0.9-2.4,1.4-3.5c4.6-9.8,9.2-19.7,13.8-29.5c4.4-9.4,8.7-18.8,11.7-29.2
		c0.1-0.5,0.4-1,1.3-1.4c0.1,1.1,0.4,2.3,0.4,3.4c0,3.7-1,7.2-2.5,10.3c-4.2,8.9-8.6,17.8-12.9,26.7c-0.6,1.2-1.1,2.4-1.8,3.5
		c-0.7,1.3-0.9,2.6-0.1,3.8c0.9,1.4,2,1.3,3.2,0.5c2.4-1.4,4.3-0.8,5.1,1.5c0.4,1.1,0.4,2.4,0.6,3.6c4,1.3,4.7,2.5,4.2,7
		c1.1,1.2,2.4,2.1,3,3.5c0.5,1.1,0.2,2.9,0.3,4.3c0.8,1.2,2.2,2.4,2.6,4c0.3,1.5-0.4,3.4-0.7,5.5c0.5,1.1,1.6,2.7,1.6,4.3
		c0,1.6-1,3.3-1.7,5.1c0.3,1.2,1.1,3.1,0.8,4.6c-0.3,1.6-1.6,2.9-2.6,4.5c0,1.1,0.5,3,0,4.4c-0.5,1.4-1.8,2.5-3,3.9
		c0.2,4.8-0.2,5.4-4.1,6.9c-0.7,5.2-1.3,6-5.5,6c-0.2,0.8-0.4,1.7-0.7,2.6c-0.6,1.8-1.7,2.7-3.3,2.6c-1,0-1.7-0.6-1.9-1.9
		c-0.2-1.4-0.2-2.8-0.5-4.1c-1.4-6.2-2.9-12.4-4.5-19.4c4.1-4.2,7-10,6-17.7C127.8,97.8,123.4,93.3,118.5,89.4z"/>
	<path class="st0" d="M57.9,25.8c0.6,2,1.2,3.9,1.8,5.9c3.5,11,8.2,21.1,13.1,31.2c3.6,7.5,7.2,15,10.8,22.5
		c0.6,1.2,1.1,2.4,1.7,3.8c-0.8,0.7-1.5,1.3-2.2,2c-1.9,2.2-4,4.2-5.5,6.8c-4.1,6.9-3.5,15.3,1.1,21.7c0.7,0.9,1.6,1.5,2.4,2.3
		c-3.2,8.7-5.4,17.1-6.1,25.9c-3.1,0.6-3.8-0.2-4.5-4.2c-1.6-0.6-3.3-0.8-4.4-1.9c-0.9-0.8-1-2.8-1.5-4.5c-1-0.7-2.5-1.3-3.4-2.6
		c-0.7-1.1-0.6-3-0.9-4.8c-0.8-0.9-2.1-2-2.7-3.5c-0.5-1.3-0.1-3.1-0.1-4.8c-0.7-1.1-2.1-2.4-2.4-4c-0.3-1.6,0.5-3.4,0.8-5.5
		c-2.7-3.4-2.7-4.8,0.2-8.9c-2.1-4.6-1.7-6.3,1.5-8.7c0.1-1.8,0-3.7,0.5-5.1c0.4-1.2,1.7-1.9,2.4-2.8c0.4-1.9,0.5-3.9,1.2-5.5
		c0.5-1.1,2-1.4,3.4-2.3c0-0.1,0.1-0.6,0.1-1.2c0.5-3.9,2.4-5.3,5.3-3.7c1.3,0.7,2.3,0.9,3.3-0.4c0.9-1.3,0.6-2.7,0-4.1
		c-3.5-7.1-7-14.3-10.5-21.4c-1.5-3.1-3.1-6.2-4.3-9.4c-1-2.8-1.6-5.9-2.1-8.9c-0.2-1.2,0.2-2.6,0.3-3.9
		C57.4,25.7,57.7,25.7,57.9,25.8z"/>
	<path class="st0" d="M580.3,189.8c0,2,0,4.1,0,6.1c-2.3,0.7-168.9,1-173.3,0.3c0-2,0-4.1,0-6.2c0,0,0.1-0.1,0.2-0.2
		c0.1-0.1,0.2-0.2,0.2-0.2c0.7-0.1,1.4-0.2,2.1-0.2c56.6,0,113.2,0,169.7,0.1C579.6,189.4,579.9,189.6,580.3,189.8z"/>
	<path class="st0" d="M224.1,196.3c0-2.3,0-4.3,0-6.2c0.1-0.1,0.2-0.2,0.3-0.3c0.1-0.1,0.1-0.2,0.2-0.2c0.3-0.1,0.6-0.2,0.9-0.2
		c45.3,0,90.6,0,136,0c0.4,0,0.8,0.1,1.4,0.2c0,2.1,0,4.2,0,6.3c0,0-0.1,0.1-0.1,0.2c-0.1,0.1-0.2,0.2-0.2,0.2
		c-45.3,0.1-90.6,0.1-135.9,0.2C225.8,196.5,225.1,196.4,224.1,196.3z"/>
	<path class="st0" d="M61.6,209.5c1.5-2.7,3.3-3.1,5-3.4c1.6-0.3,2.6-1.1,3.1-2.9c0.9-3,2.7-4.3,5.2-4c0.9,0.1,2,0.6,2.6,1.4
		c1.4,1.8,2.6,3.8,3.6,6c1.4,2.7,1.5,5.4,0.3,8.5c-0.9,2.4-1.2,5.2-1.9,8.1c-0.9-1-1.8-2-3.2-3.5c0,2.4,0,4-0.1,5.7
		c-0.1,2.4-1.1,3.4-2.9,2.5c-1-0.5-1.9-1.3-3-2.2c-3.7,5.5-7.3,10.9-11.4,17c1.7-0.5,2.7-0.8,3.8-1c2.3-0.5,4.5-0.2,6,2.3
		c1.7,2.7,2,6,1.3,9.3c-0.4,1.9-1.9,2.2-3.1,0.8c-0.4-0.5-0.6-1.2-0.9-1.9c-1.1-2.8-2.1-3.6-4.5-2.8c-1.2,0.4-2.2,1.1-3.3,1.7
		c-1.9,1-2.7,2.7-2.5,5.3c0.3,2.5,1.2,4.1,3.2,4.9c1.2,0.5,2.4,1,3.7,1.6c-1,2.9-2.6,3.7-4.5,3.6c-1.4-0.1-2.8-0.5-4.1-1.1
		c-2.4-1.1-2.7-1.9-2.6-5.1c0-1.5,0.1-3,0.1-4.5c0-0.1-0.1-0.2-0.1-0.3c-3.9,1.4-5.6,4-5.6,8.6c0,0.4,0,0.8,0,1.1
		c-0.1,1.5-0.3,2.9-1.6,3.2c-1.5,0.4-2.1-1.1-2.5-2.5c-0.3-1.3-0.6-2.7-0.7-4c-0.2-2.6,0.3-4.7,2.4-5.9c1.4-0.8,2.8-1.7,2.2-4.1
		c-2.8-0.9-4.9,0.3-6.6,3.1c-0.8,1.4-1.8,2.6-2.8,4.1c-1.2-1-1.2-2.4-1.3-3.7c-0.1-4,2.7-8.5,5.9-8.6c3.4,0,5.9-2.1,8.5-4.1
		c1.4-1.1,2.7-2,4.5-1.9c0.7,0,1.6-0.6,2-1.3c4.6-8.6,9.1-17.3,13.9-26.4C66.8,212,64.4,210.9,61.6,209.5z"/>
	<path class="st0" d="M142.5,209.5c-2.7,1.3-5.1,2.4-7.6,3.6c0.4,0.9,0.7,1.7,1.1,2.4c4,7.7,8,15.3,12,23c0.8,1.6,1.7,2.5,3.4,2.5
		c0.9,0,1.9,0.6,2.8,1.1c0.9,0.5,1.8,1.2,2.6,1.9c1.9,1.6,3.9,2.6,6.4,2.8c4.3,0.3,7.1,5.5,6.1,10.7c-0.1,0.5-0.4,1-0.8,1.9
		c-1.1-1.6-2.2-2.9-3.1-4.4c-1.7-2.9-3.8-3.8-6.6-2.8c-0.4,2,0.6,3,1.8,3.7c1.4,0.8,2.7,1.8,2.8,4c0.2,2.8,0,5.5-1.4,7.9
		c-0.8,1.4-2.3,1.3-2.9-0.3c-0.4-0.8-0.5-1.9-0.5-2.9c-0.1-5.2-1.1-7-5.5-9.1c0,1.9-0.1,3.7,0,5.5c0.1,2-0.6,3.3-2,4.2
		c-2.1,1.2-4.2,2-6.4,1.1c-1-0.4-1.9-1.6-3.5-2.9c1.9-0.9,3.1-1.5,4.2-2c2.3-1,3.2-2.5,3.3-5.5c0.1-1.8-0.3-3.3-1.6-4.1
		c-1.4-0.9-2.9-1.8-4.4-2.4c-2.2-0.8-3.3,0-4.3,2.6c-0.3,0.8-0.6,1.6-1.1,2.2c-1.2,1.3-2.5,0.8-3-1.1c-1.9-6.8,2.2-12.6,7.8-11.3
		c0.8,0.2,1.7,0.4,3.1,0.7c-4-5.9-7.6-11.3-11.2-16.7c-1.8,1-3.2,3.5-5.8,1.7c-0.1-2.2-0.2-4.6-0.4-7.7c-1.3,1.4-2.2,2.5-3.1,3.5
		c-0.9-3.6-2-7.1-2.6-10.7c-0.3-1.5,0-3.3,0.6-4.7c0.9-2.2,2-4.3,3.3-6.2c2.6-3.8,6.5-3.3,8.3,1.2c0.8,2.1,1.8,3.3,3.8,3.5
		C139.4,206.5,141.1,207,142.5,209.5z"/>
	<path class="st0" d="M94.8,77.8c-6.3,1.6-7.8,0.9-8.3-3.7c2.1,0.6,4,2.9,6.2,1.1c0.3-0.3,0.4-1,0.8-1.8c-1.5-0.1-2.8-0.2-4.6-0.3
		c1.1-0.9,1.7-1.4,2.4-1.9c-2.3-1.8-3-1.7-5.3,0.8c-0.5-1.1-1.2-2-1.3-3c-0.2-1.4,0.4-2.7,1.5-3.4c0.8-0.5,1.6-1.2,2.4-1.5
		c2-0.7,3.6-2.1,4.9-4c0.6-0.8,1.6-1.3,2.5-1.5c1.1-0.2,2.2,0.1,3.3,0c2.9-0.2,5.7-0.4,8.8-0.7c1.3,7.2,2.4,14.9,1.7,23.2
		c-4-3.2-8.3-0.9-12.5-1.2C96.1,79.8,94.8,80.2,94.8,77.8z M87.1,68.1c1.7,0.3,3.1,0.8,4.6,0.9c0.6,0.1,1.2-0.5,1.8-0.8
		c-0.3-0.8-0.4-2-0.9-2.5C90.6,64,88.6,64.9,87.1,68.1z M96.5,63.5c1.4,2.6,2.1,2.4,3.6-1.1C98.7,62.9,97.6,63.2,96.5,63.5z"/>
	<path class="st0" d="M130.2,154.1c1.5-1.2,2.8-2.1,4.2-3.2c11,21.4,20.9,43.5,36.1,61c-2,0.8-3.2-0.2-4.3-1.2
		c-2.9-2.7-5.8-5.4-8.4-8.5c-5.2-6.1-9.8-12.9-13.8-20.4c-4.3-8-8.3-16.2-12.5-24.4C131.1,156.5,130.8,155.5,130.2,154.1z"/>
	<path class="st0" d="M33.5,211.5c15-17.3,24.9-39.3,36-60.8c1.4,1.1,2.7,2,4.2,3.2c-0.6,1.3-1,2.5-1.5,3.5
		c-4,7.8-7.8,15.7-11.9,23.4c-4.8,9.1-10.5,17.4-17.1,24.6c-2,2.1-4.2,3.9-6.3,5.7c-0.8,0.7-1.9,0.8-2.9,1.2
		C33.7,212,33.6,211.8,33.5,211.5z"/>
	<path class="st0" d="M135.9,149.2c1.4-1.4,2.6-2.6,3.9-3.8c12.1,17.9,23.5,36.4,39.7,49.7c-2.2,1.2-3.8,0.8-5.4,0.2
		c-3.4-1.3-6.4-3.6-9.1-6.5c-3.8-4.2-7.7-8.4-11.2-13.1c-5.5-7.6-10.7-15.6-16.1-23.4C137.1,151.4,136.7,150.4,135.9,149.2z"/>
	<path class="st0" d="M67.8,149.2c-0.8,1.3-1.2,2.2-1.8,3.1c-5,7.4-9.8,14.9-15,22c-3.7,5.1-7.9,9.6-12,14.2c-2.6,2.9-5.6,5.3-9,6.6
		c-1.6,0.7-3.2,1-5.6,0.1c2.8-2.7,5.3-5,7.6-7.4c2.4-2.5,4.8-5,7-7.6c2.3-2.7,4.4-5.5,6.5-8.3c2.1-2.8,4.2-5.7,6.2-8.7
		c2-2.9,4-5.9,6-8.9c2-2.9,4-5.9,6.1-9.1C65.4,146.7,66.5,147.9,67.8,149.2z"/>
	<path class="st0" d="M69.3,66.7c-1,1-2.1,1.9-3.2,3c-0.8-1.3-1.6-2.3-2.1-3.4c-5.1-10-10.4-19.9-15.3-30.1
		c-3.3-6.9-6.1-14.1-7.3-22.1c-0.5-3.3-0.7-6.7,1.4-10.4c3.1,11.8,6.6,22.7,11.6,32.8C59.2,46.6,64.3,56.5,69.3,66.7z"/>
	<path class="st0" d="M137.6,69.7c-1.2-1.1-2.1-2-3.3-3.1c10.4-19.8,21.2-39.2,26.5-62.4c1.6,1.3,1.9,2.9,1.8,4.5
		c-0.2,3.3-0.2,6.9-1.1,9.9c-1.6,5.6-3.4,11.3-5.8,16.4c-5.1,10.8-10.7,21.2-16.1,31.8C139.1,67.7,138.4,68.5,137.6,69.7z"/>
	<path class="st0" d="M169.9,17.6c1.1,2.3,1.1,4.5,0.8,6.7c-0.6,4.9-2.1,9.4-4.3,13.5c-4,7.5-8.2,14.8-12.5,22
		c-3.3,5.5-7,10.6-10.7,16.2c-1.1-1.7-2-3.1-3.1-5c3.3-5,7.2-10.6,10.8-16.4c3.6-5.7,7.1-11.5,10.3-17.6
		C164.3,30.9,166.9,24.3,169.9,17.6z"/>
	<path class="st0" d="M34.4,17.7c6.8,20.6,18.5,37,29.8,53.9C63,73.2,62,74.5,61,75.8c-0.4-0.4-0.8-0.5-0.9-0.8
		c-7.9-11.7-16-23.2-22.3-36.4c-2.2-4.6-4.3-9.4-4.7-14.9C33,21.9,33.2,20,33.3,18C33.7,17.9,34.1,17.8,34.4,17.7z"/>
	<path class="st0" d="M58.9,138.7c1.2,1.6,2.2,3,3.1,4.3c-0.3,0.6-0.4,0.9-0.6,1.2c-8.7,10.1-17.3,20.1-27.3,28.1
		c-3.3,2.6-6.8,4.9-10.7,5.7c-1.6,0.3-3.2,0.4-5-1.1c3.1-2.2,6.1-4.2,8.9-6.4c2.9-2.2,5.7-4.6,8.5-7.1c2.7-2.4,5.2-5.1,7.8-7.7
		c2.6-2.7,5.1-5.6,7.7-8.4C53.8,144.5,56.3,141.7,58.9,138.7z"/>
	<path class="st0" d="M141.5,143.3c1.2-1.7,2.2-3,3.3-4.5c0.9,1,1.7,1.8,2.5,2.7c4.8,5.3,9.6,10.7,14.4,16
		c6.3,6.8,13.3,12.6,20.7,17.4c0.9,0.6,1.7,1.2,2.9,2.1c-1.7,1.5-3.2,1.5-4.7,1.2c-3.8-0.8-7.3-2.9-10.5-5.4
		c-6.6-5.3-12.7-11.4-18.5-18C148.3,151,145.1,147.3,141.5,143.3z"/>
	<path class="st0" d="M26.3,33.1c8.6,17.5,20.9,30.8,33.4,44.2c-1,1.7-2,3.3-3,5c-9.8-10.6-19.6-20.8-27.2-33.7
		c-1.6-2.7-2.7-5.8-3.7-8.9c-0.6-1.8-0.4-4-0.6-6.1C25.6,33.5,25.9,33.3,26.3,33.1z"/>
	<path class="st0" d="M147,82.2c-1-1.7-1.8-3-2.8-4.6c0.7-0.9,1.3-1.7,1.9-2.4c4-4.4,8-8.8,11.9-13.3c6.8-7.8,12.9-16.4,18.1-26
		c0.5-0.9,1.1-1.8,2.2-2.6c0.1,1.3,0.3,2.5,0.2,3.8c-0.3,4-1.7,7.5-3.6,10.6c-2.8,4.5-5.7,9.2-8.9,13.2c-5.7,7-11.8,13.6-17.7,20.3
		C147.9,81.5,147.5,81.7,147,82.2z"/>
	<path class="st0" d="M531,307.8c-2.1,0-4.3,0-7.2,0c1-1,1.9-1.5,2.2-2.3c0.3-1,0.2-2.2,0.2-3.3c0-3.1,0-6.3,0-9.4
		c0-3.5-0.8-4.9-2.7-4.8c-2,0.1-3.2,1.9-3.3,4.8c0,3.4,0,6.8,0,10.1c0,1.8-0.3,3.9,2.5,4.1c-0.2,0.2-0.5,0.5-0.7,0.7
		c-2.2,0-4.5,0-6.9,0c0.6-0.9,1.4-1.6,1.6-2.4c0.3-1,0.2-2.2,0.3-3.3c0-3.3,0-6.5,0-9.8c0-2,0-4-2.9-4.6c2.4-1.1,3.9-1.9,5.7-2.7
		c0.3,0.9,0.5,1.7,0.7,2.5c4.7-3.7,5.7-3.6,8.6,0.6c0.9-0.7,1.7-1.5,2.6-2.2c3.2-2.4,6.2-0.7,6.5,3.9c0.3,4.3,0.2,8.7,0.2,13.1
		c0,2,0.1,3.7,1.8,4.9c-2.2,0-4.5,0-7.5,0c3.2-1.6,2.5-4.4,2.5-6.9c0-3,0.1-6,0-9c-0.1-2.6-0.9-3.7-2.6-3.8c-1.8,0-3.3,1.6-3.4,3.8
		c-0.1,4-0.1,8,0,12C529.5,305.1,530.4,306.3,531,307.8z"/>
	<path class="st0" d="M148.9,131.2c13.2,10.1,26.5,19.2,41.6,23.8c-0.7,2-1.9,2.2-3.1,2.4c-3.4,0.7-6.7,0.2-9.8-1.4
		c-6.3-3.3-12.6-6.6-18.7-10.4c-4.3-2.6-8.4-5.9-12.8-9.1C147.1,134.8,147.9,133.2,148.9,131.2z"/>
	<path class="st0" d="M13.5,155c14.9-4.5,28.2-13.5,41.4-23.7c0.9,1.8,1.8,3.4,2.8,5.3c-3.9,2.8-7.4,5.7-11.1,8
		c-6,3.7-12.1,7.3-18.3,10.6c-3.5,1.9-7.3,2.9-11.2,2.3c-1.2-0.2-2.4-0.9-3.6-1.3C13.5,155.8,13.5,155.4,13.5,155z"/>
	<path class="st0" d="M55.6,84.5c-0.8,1.9-1.4,3.5-2.1,5.1c-0.5-0.2-0.9-0.2-1.2-0.5C43.9,82.6,35.5,76,28.1,67.7
		c-3-3.3-5.8-6.9-7.6-11.5c-1.1-2.9-1.2-3.4-0.7-6.8c2.8,3.5,5.4,6.9,8.2,10.1c2.8,3.2,5.7,6.3,8.8,9.1c2.9,2.8,6,5.4,9.1,8
		C49,79.2,52.2,81.7,55.6,84.5z"/>
	<path class="st0" d="M150.5,90.2c-0.9-2.2-1.6-3.8-2.4-5.8c12.9-10.1,25.6-20.4,35.8-35.4c0.8,2.5,0.6,4.3-0.2,5.8
		c-1.6,3.2-3,6.6-5.1,9.1c-3.3,4.1-6.9,8-10.7,11.4C162.4,80.5,156.6,85.1,150.5,90.2z"/>
	<path class="st0" d="M74.6,157.4c1.5,4.4,1.1,7.8-0.4,11.4c-6.8,16.2-13.9,32.2-23.3,46.3c-1.9,2.9-4,5.7-6.1,8.3
		c-1.5,1.9-1.7,1.9-4.2,2.5c1.1-2.9,3-4.7,4.4-7c1.5-2.4,3-4.7,4.5-7.1c1.4-2.3,2.7-4.7,4-7.1c1.3-2.5,2.6-5,3.9-7.6
		c1.3-2.6,2.5-5.2,3.7-7.8c1.2-2.6,2.4-5.2,3.5-7.9c1.1-2.5,2.2-5.1,3.3-7.6c1.1-2.7,2.2-5.3,3.3-8
		C72.2,163.2,73.3,160.6,74.6,157.4z"/>
	<path class="st0" d="M162.6,225.3c-1.9,0.3-3.1-0.9-4.1-2.1c-2-2.5-3.9-5-5.7-7.7c-7.1-10.9-13.4-22.5-18.6-34.9
		c-1.8-4.3-3.5-8.8-5.5-12.9c-1.7-3.4-1.2-6.5-0.2-10.7C138.8,181,147.8,205.4,162.6,225.3z"/>
	<path class="st0" d="M151.9,123c13.3,6.1,26.5,11,40.8,11.9c-1.1,2.6-2.7,3.1-4.2,3.6c-4,1.4-8,0.8-12-0.1
		c-8.7-2-17.1-5.3-25.4-9.1c-0.3-0.1-0.5-0.4-1-0.8C150.6,126.7,151.2,125,151.9,123z"/>
	<path class="st0" d="M11.2,134.9C25.6,134,38.7,129,51.8,123c0.4,1.1,0.8,1.9,1.1,2.8c0.3,0.8,0.5,1.6,0.8,2.6
		c-0.4,0.3-0.8,0.8-1.2,1c-9.1,4.1-18.2,7.8-27.8,9.5c-3.2,0.6-6.4,0.6-9.6-0.5C13.7,137.9,12.2,137.5,11.2,134.9z"/>
	<path class="st0" d="M14.4,71.8c4.2,3,8.1,6.1,12.1,8.7c4,2.6,8.2,4.8,12.4,6.9c4.3,2.2,8.7,4,13.3,6.1c-0.4,1.9-0.8,3.7-1.3,5.9
		c-2.4-1-4.6-1.8-6.7-2.9c-6.2-3.2-12.4-6.4-18.5-9.9c-3.3-1.9-6.3-4.5-8.7-7.9C15.6,77,14.3,75,14.4,71.8z"/>
	<path class="st0" d="M189.5,71.6c0,2.8-0.7,4.7-1.9,6.2c-2.1,2.5-4.2,5.1-6.6,6.9c-8.6,6.5-18.1,10.7-28,14.7
		c-0.5-1.9-0.9-3.6-1.4-5.7c1.1-0.5,2-1.1,3-1.5c5.7-2.7,11.5-5.1,17.1-8.3c5.2-3,10-6.7,15-10.2C187.5,73.1,188.3,72.5,189.5,71.6z
		"/>
	<path class="st0" d="M225.4,228.6c3.5-0.9,6.6-0.7,10-0.1c-2.8,1.2-2.9,3.8-2.9,6.7c0.1,4.5,0,9,0,13.5c0,1.5,0.1,3,0.3,4.5
		c0.7,4.4,2.6,6.5,5.9,6.6c3.3,0.1,5.9-2,6.7-6.1c0.4-2,0.6-4.2,0.6-6.3c0.1-3.7,0-7.5,0-11.3c0-3.1,0.1-6.3-3.2-7.6
		c2.6-0.7,5-0.6,8.2-0.2c-3.7,2.2-3.1,5.7-3.2,8.9c-0.1,4.6,0.1,9.3-0.3,13.9c-0.7,9.3-6.9,13.8-13.9,10.3c-3-1.5-4.6-4.4-4.9-8.3
		c-0.2-2.2-0.2-4.5-0.2-6.7c0-3.4,0.1-6.8,0-10.1C228.5,233.1,229,229.7,225.4,228.6z"/>
	<path class="st0" d="M153.6,109.4c-0.1-2.3-0.2-4-0.2-6.2c13.3-1.9,26.4-4.5,39.1-11.3c-0.3,3.1-1.6,4.5-2.8,5.8
		c-2.6,2.7-5.6,4.3-8.8,5.6c-6.9,2.7-14,4.1-21.2,5.3C157.8,108.8,155.9,109,153.6,109.4z"/>
	<path class="st0" d="M413,246.4c0,3.7-0.1,7,0,10.4c0.1,2.2,0.2,2.2,2.7,3.8c-1.9,1-6.5,1.1-10,0.1c3.2-1,3.4-3.7,3.3-6.7
		c0-6.1-0.1-12.3,0-18.4c0-3.1,0.1-6-2.9-7.4c0.4-0.1,0.9-0.3,1.3-0.3c2.9,0,5.8,0,8.7,0c0.7,0,1.4,0.2,2.1,0.3c4,1,5.8,3.7,5.7,8.6
		c0,5.1-2.2,8.4-6.2,9.1C416.4,246.2,414.9,246.3,413,246.4z M413,243.9c2.6,0.9,4.6,0.1,6-2.3c1.4-2.2,1.4-6.6,0.2-8.9
		c-1.5-2.6-3.5-3-6.2-2.1C412.8,235,412.8,239.4,413,243.9z"/>
	<path class="st0" d="M11.4,92c12.7,6.5,25.5,9.4,38.7,11.1c0,2,0,3.8,0,5.9c-0.7,0.1-1.4,0.3-2.1,0.2c-7.9-1.2-15.7-2.5-23.3-5.2
		c-3.8-1.3-7.4-3-10.5-6.2C13,96.5,11.7,95.1,11.4,92z"/>
	<path class="st0" d="M153.3,113.7c7,0.7,13.5,1.7,20.1,1.8c6.6,0.1,13.1-0.6,20-1c-0.7,2.1-1.9,3.2-3.2,3.8
		c-2.5,1.1-5.1,2.5-7.7,2.8c-9.8,1.1-19.6,0.3-29.7-1.6C152.9,117.6,153.1,115.8,153.3,113.7z"/>
	<path class="st0" d="M10.1,113.8c13.8,2.7,26.8,1.8,40.1-0.5c0.3,2.1,0.6,3.8,1,6c-1.1,0.2-1.9,0.5-2.8,0.6
		c-8.4,1.5-16.8,2.1-25.2,1.3c-2.9-0.3-5.9-1.4-8.7-2.4C12.8,118.2,11.3,116.9,10.1,113.8z"/>
	<path class="st0" d="M477.4,261.7c-2-3.2-0.3-5.4,1.2-7.9c-0.4-0.7-0.8-1.4-1.1-2.1c-1.6-3.3-1.5-6.7-0.1-10
		c1.2-2.9,3.5-4.1,6.1-3.4c2.1,0.6,4.2,1.4,6.2,2.1c-0.4,1.4-0.4,1.4-1.9,2.2c0,1.7,0.1,3.3,0,4.9c-0.3,4.2-2.6,6.8-5.9,6.9
		c-0.5,0-1.1-0.3-1.5,0c-0.5,0.4-1.2,1.1-1.2,1.7c0,0.5,0.7,1.6,1.1,1.7c1.9,0.4,3.8,0.6,5.7,0.7c3.3,0.1,5,3.8,3.6,7.8
		c-1,2.7-2.6,4.6-4.9,5.2c-2,0.6-4.2,0.9-6.2,0.5c-3.3-0.6-4.3-4-2.7-7.6C476.2,263.6,476.8,262.8,477.4,261.7z M482.3,262.2
		c0,0.1,0,0.1,0,0.2c-0.8,0-1.6-0.1-2.4-0.1c-1.2-0.1-2.1,0.6-2.2,2c-0.1,1.2-0.1,2.9,0.5,3.7c1.9,2.9,8,2.1,9.6-1.2
		c0.8-1.6,0.6-3-0.9-3.5C485.4,262.7,483.8,262.6,482.3,262.2z M484.9,246.8c-0.3-1.4-0.6-3.5-1.3-5.4c-0.3-0.7-1.4-1.4-2.2-1.4
		c-0.6,0-1.4,1-1.6,1.8c-0.9,3.2-0.5,6.4,0.8,9.3c0.3,0.8,1.5,1.5,2.2,1.3c0.7-0.1,1.4-1.2,1.7-2.1
		C484.9,249.6,484.8,248.5,484.9,246.8z"/>
	<path class="st0" d="M523.8,240.3c0.6,2.4-1.5,1.4-1.8,1.9c-0.1,2.5,0.1,4.7-0.3,6.7c-0.7,3.6-2.7,5.4-5.7,5.5
		c-0.4,0-0.8,0-1.2-0.1c-1-0.1-1.5,0.7-1.6,1.7c-0.2,1.3,0.6,1.7,1.5,1.8c1.8,0.2,3.6,0.4,5.4,0.6c3.6,0.5,5,3.6,3.6,7.8
		c-0.9,2.6-2.5,4.4-4.6,5.1c-2,0.6-4.2,1-6.2,0.7c-3.4-0.5-4.6-4-2.9-7.7c0.4-0.9,0.9-1.7,1.4-2.7c-2.1-3.1-0.2-5.5,1.3-8
		c-1.7-2.2-2.5-4.8-2.3-7.9c0.4-6.1,4.1-9,8.7-6.8C520.7,239.7,522.3,239.9,523.8,240.3z M516.2,262.3c0,0.1,0,0.1,0,0.2
		c-0.6,0-1.2,0-1.8-0.1c-1.6-0.3-2.4,0.8-2.9,2.5c-0.4,1.7,0.2,2.9,1.3,3.8c2.3,1.9,6.8,1.3,8.7-1.1c1.5-2,1.2-3.7-0.9-4.4
		C519.2,262.6,517.7,262.5,516.2,262.3z M513.5,245.8c0.3,1.4,0.6,3.5,1.3,5.4c0.3,0.8,1.4,1.4,2.2,1.4c0.6,0,1.5-1,1.7-1.7
		c0.7-3.4,0.5-6.7-1-9.7c-0.3-0.7-1.4-1.2-2-1.1c-0.6,0.1-1.4,1-1.7,1.8C513.6,242.8,513.7,244,513.5,245.8z"/>
	<path class="st0" d="M354.3,286.8c0.4,2.4-1.3,1.6-2,2.4c0.1,0.9,0.3,2,0.3,3.1c0.2,5.2-2.8,9.3-6.5,8.7c-0.5-0.1-1.1-0.2-1.5,0.1
		c-0.4,0.4-0.9,1.1-0.9,1.7c0,0.5,0.6,1.4,1,1.5c1.8,0.4,3.6,0.5,5.4,0.7c1.8,0.2,3.5,0.5,4.2,2.9c0.7,2.4,0.3,4.7-1,6.7
		c-2.3,3.8-7.8,5.5-11.3,3.5c-2.2-1.2-3-3.7-1.9-6.5c0.4-1.1,1.1-2.1,1.7-3.4c-1.9-3-0.4-5.4,1.4-8c-1.6-2.2-2.5-4.6-2.3-7.7
		c0.2-4.8,3.4-10,8.9-7C351.1,286.4,352.7,286.5,354.3,286.8z M346.9,308.9c0,0.1,0,0.1,0,0.2c-0.7,0-1.4,0-2.1-0.1
		c-1.5-0.2-2.2,0.7-2.7,2.3c-0.5,1.7,0,2.9,1.1,3.9c2.2,2.1,7,1.5,8.9-1.1c1.4-1.9,1.1-3.5-0.8-4.2
		C349.9,309.3,348.4,309.2,346.9,308.9z M349.7,294.3c-0.4-2-0.7-4.1-1.4-6c-0.3-0.8-1.3-1.5-2.1-1.7c-1.2-0.2-1.9,1-2,2.3
		c-0.1,2.1-0.2,4.2,0.1,6.3c0.4,3,1.7,4.4,3.2,4.1C348.9,299,349.5,297.5,349.7,294.3z"/>
	<path class="st0" d="M390.9,239.2c0.5-7.5,0.5-7.8-1.9-10.3c1.7-0.7,3.2-1.4,5.2-2.2c0,1.9,0,3.3,0,4.6c0,7.9,0,15.7,0,23.6
		c0,1.6-0.2,3.4,1.7,4.5c-1.4,0.7-2.8,1.5-4.4,2.3c-0.3-0.7-0.5-1.2-0.7-1.8c-0.2,0-0.4-0.1-0.5,0c-5.3,3.6-9.5,1-10.3-6.6
		c-0.2-2.3-0.2-4.8,0.2-7.1C381.4,239.5,385.3,236.8,390.9,239.2z M391.1,250.3C391.1,250.3,391.1,250.3,391.1,250.3c0-2,0-4-0.1-6
		c-0.1-1.9-0.9-3.3-2.3-4.1c-1.3-0.7-2.5-0.5-3.7,0.7c-3.1,3.3-2.6,14.2,0.7,17.1c1.3,1.1,2.6,1,4,0.3c1.3-0.7,1.3-2,1.3-3.5
		C391.1,253.3,391.1,251.8,391.1,250.3z"/>
	<path class="st0" d="M415.4,285.7c0.8-6.3,0.6-7.7-2-10.1c1.7-0.8,3.3-1.4,5.2-2.3c0.1,1.7,0.2,3,0.2,4.3c0,8,0,16,0,24
		c0,1.6-0.2,3.4,1.7,4.4c-1.4,0.7-2.8,1.5-4.3,2.3c-0.3-0.7-0.6-1.2-0.9-1.9c-0.3,0.2-0.7,0.4-1,0.6c-4.1,2.7-7.9,0.9-9.3-4.6
		c-1-4.1-0.9-8.2,0.5-12.1c1.8-5,4.8-6.6,9-4.9C414.8,285.7,415.1,285.7,415.4,285.7z M415.7,297.1
		C415.7,297.1,415.7,297.1,415.7,297.1c-0.1-2.1,0.1-4.3-0.1-6.4c-0.2-2.3-1.7-4.1-3.3-4.3c-1.6-0.2-3,0.7-3.8,2.9
		c-1.6,4.7-1.3,9.3,0.7,13.7c0.3,0.6,0.8,1.2,1.3,1.6c1.3,1.1,2.6,1,4,0.2c1.2-0.7,1.3-2.1,1.2-3.5
		C415.7,299.9,415.7,298.5,415.7,297.1z"/>
	<path class="st0" d="M356.8,239.4c-0.6-3.7,1.4-7.6-2.3-10.3c1.9-0.8,3.4-1.4,5.3-2.2c0,1.9,0,3.3,0,4.6c0,7.9,0,15.8,0,23.7
		c0,1.7,0,3.3,2.4,4.1c-2.1,1.1-3.6,1.8-5.1,2.6c-0.3-0.7-0.5-1.3-0.8-1.9c-0.2,0.1-0.5,0.2-0.7,0.4c-4.6,3.1-8.8,0.9-9.7-5.5
		c-0.4-2.8-0.4-5.8,0-8.6C347.1,239.4,351,236.8,356.8,239.4z M356.8,250.2C356.8,250.2,356.8,250.2,356.8,250.2c0-1.7,0-3.5,0-5.2
		c0-0.2,0-0.5,0-0.7c-0.2-2-1.1-3.5-2.6-4.2c-1.5-0.6-3,0.1-4,1.7c-2.2,3.5-1.7,12.4,0.8,15.5c0.2,0.3,0.4,0.5,0.7,0.7
		c1.3,1.1,2.6,1,4,0.2c1.3-0.7,1.2-2.1,1.2-3.5C356.8,253.2,356.8,251.7,356.8,250.2z"/>
	<path class="st0" d="M458,259.3c-2.1,1-3.4,1.7-4.9,2.5c-0.4-0.7-0.7-1.2-1-1.8c-5.8,3.7-9.8,1.2-10.7-6.9c-0.3-2.4-0.1-5,0.4-7.4
		c1.3-6.5,4.9-8.7,10.7-6.4c-0.5-3.6,1.4-7.5-2.4-10.2c1.9-0.8,3.4-1.4,5.4-2.3c0,1.9,0,3.2,0,4.5c0,7.9,0,15.7,0,23.6
		C455.7,256.7,455.6,258.4,458,259.3z M452.6,250.5C452.6,250.5,452.5,250.5,452.6,250.5c-0.1-2.1,0.1-4.3-0.1-6.4
		c-0.2-2-1.1-3.5-2.7-4.1c-1.5-0.5-2.8,0-3.8,1.5c-2.5,3.7-2,13,0.9,16.1c0.1,0.1,0.2,0.2,0.2,0.2c1.3,1.2,2.6,1.2,4,0.5
		c1.4-0.7,1.5-2.1,1.5-3.7C452.5,253.2,452.6,251.9,452.6,250.5z"/>
	<path class="st0" d="M469,301.4c-2.1,4.4-5.1,7.3-9.4,7.4c-4.5,0.1-8.1-2.1-10.2-7.1c-2.9-6.9-2.9-14,0.3-20.8
		c2.9-6.3,8.2-8.4,14.1-6.1c1.3,0.5,2.6,1.5,4.3-0.7c0.2,3.9,0.4,7.1,0.6,10.3c-0.2,0.1-0.4,0.1-0.6,0.2c-0.4-1.1-0.8-2.1-1.3-3.2
		c-2.9-6.9-9.4-7.4-12.9-1c-3.1,5.6-3,16.2,0.2,21.8c2.8,5,7.9,5.7,11.9,1.6c0.9-1,1.8-2.1,2.7-3.2
		C468.6,300.9,468.8,301.2,469,301.4z"/>
	<path class="st0" d="M541.6,275.7c0.8-0.4,1.5-0.8,2.2-1.1c0.7-0.3,1.5-0.6,2.6-1c0,4.5,0,8.7,0,13.5c1.1-0.7,1.8-1.2,2.4-1.6
		c3-1.9,5.8-0.9,7.5,2.7c2.5,5.1,1.4,13.8-2.2,17.7c-2.5,2.7-5.4,3.1-8.4,1.5c-1.5-0.8-2.3-2-2.3-4.3c0.1-6.1,0-12.3,0-18.4
		c0-1.3,0-2.5,0-3.8C543.4,277.9,543.3,277.9,541.6,275.7z M546.5,297.1C546.5,297.1,546.5,297.1,546.5,297.1c0,1.9,0,3.7,0,5.6
		c0,1.8,0.6,3.1,2.1,3.7c1.5,0.6,2.8,0.3,3.9-1.1c0.5-0.7,1-1.6,1.3-2.5c1-3.5,1.1-7.1,0.2-10.6c-0.3-1-0.8-2-1.3-2.9
		c-1.1-1.6-2.6-1.9-4.1-1.3c-1.5,0.7-1.9,2.1-1.9,3.8C546.5,293.6,546.5,295.3,546.5,297.1z"/>
	<path class="st0" d="M244.3,307.4c-2.5,0.9-7.6,0.9-10.3-0.2c3-0.6,3.4-2.9,3.3-5.8c-0.1-7,0-14,0-21c0-1-0.1-2-0.1-2.9
		c-4.3-1.5-5.4-0.6-7.1,5.6c-0.6-3-0.2-5.5,0-8.3c6.1,0,12.2,0,18.6,0c0,2.6,0,5.1,0,7.5c-0.7-1.5-1.3-3.7-2.4-4.7
		c-1.2-1-3-0.7-4.7-0.9c-0.1,1.5-0.3,2.5-0.3,3.5c0,6.9,0,13.7,0,20.6C241.2,305.3,241.3,305.4,244.3,307.4z"/>
	<path class="st0" d="M74.5,314.2c0.2,0,0.4,0,0.6,0c4.1,1,4,1,4.3,6.1c0.1,2.6,0.4,5.2,0.5,7.8c0,0.1,0.1,0.2,0.5,0.6
		c2.2-3.6,4.3-7.1,6.5-10.7c1.5,0.5,2.8,1,4.6,1.7c-3.6,2.2-3.4,6.2-4.2,9.5c-0.8,3.3-2.6,6.5-1,10.4c-0.5,0-0.9,0.1-1.2,0
		c-1.3-0.4-2.7-0.9-4.3-1.5c3.1-3.8,2.9-8.9,4.3-13.3c-2.7,2.9-4.4,7-7.3,10.3c-1.4-4.8-0.6-9.3-1.3-13.8c-2,4.3-3.3,10.9-2.6,14
		c-1.6,0.5-2.8-0.2-4.2-1.2c3-2.4,2.9-6.4,3.9-9.8C74.4,321.1,75.4,317.7,74.5,314.2C74.6,314.1,74.5,314.2,74.5,314.2z"/>
	<path class="st0" d="M181.1,284.4c-4.5-0.1-8.1-1.7-11.8-1.8c3.5,2.1,6.4,5.8,10.8,6.2c0,1.7-0.8,2.9-1.9,4.1
		c-1.7-3.7-11.6-10.2-14.9-9.9c0.1-2,1.2-3.3,2.1-5c1.8,0.3,3.6,0.7,5.3,1c1.8,0.4,3.5,0.7,5.6,0.6c-2.3-3.2-4.6-6.4-7-9.7
		c0.8-1.6,1.4-2.9,2.5-5.1c0.4,3.2,1.8,4.1,3.3,5.1c2.3,1.5,4.6,3.2,6.9,4.6c1.3,0.8,2.8,1.1,4.5,1.7c-0.3,1.8-1.4,3.4-2.5,5.1
		c-2.4-4.3-6.3-5.3-9.7-7.6C176.1,277.3,178.8,280.1,181.1,284.4z"/>
	<path class="st0" d="M276.8,307.1c1.9-0.5,2.1-2.1,2.1-4c0-3.8,0-7.5,0-11.3c0-2.8,0-2.8-2.2-4.5c1.7-0.9,3.3-1.6,5-2.4
		c0.3,0.9,0.5,1.7,0.8,2.6c0.8-0.7,1.4-1.2,2.1-1.7c3.5-2.3,6.2-0.6,6.6,4.4c0.3,4.2,0.2,8.5,0.3,12.8c0,1.8,0,3.6,2.2,4.4
		c-2.7,1.3-4.9,0.8-7.4,0.6c0.7-1.1,1.5-1.9,1.8-2.8c0.3-1,0.3-2.2,0.2-3.3c0-3.5-0.1-7-0.3-10.5c-0.1-1.4-0.5-3-1.8-3
		c-1.1,0-2.3,0.5-3.3,1.2c-0.5,0.4-0.8,1.7-0.8,2.6c-0.1,3.9-0.2,7.8,0,11.6c0.1,1.4,0.9,2.7,1.5,4.2c-2,0-4.2,0-6.5,0
		C277.1,307.5,277,307.3,276.8,307.1z"/>
	<path class="st0" d="M269.2,261.1c-1.1,0.2-1.6,0.3-2.2,0.3c-1.6,0-3.2,0-5.2,0c0.9-1.3,1.7-2.2,2-3.2c0.3-1.1,0.1-2.5,0.1-3.7
		c0-3,0-6-0.1-9c-0.1-2.9-0.9-4.1-2.7-4.1c-2,0-3.3,1.6-3.3,4.2c0,3.6,0,7.3,0,10.9c0,1.9,0.3,3.4,1.8,4.6c-2.2,0-4.5,0-7,0
		c0.7-1,1.5-1.7,1.8-2.7c0.3-1.1,0.2-2.5,0.2-3.7c0-3.3-0.1-6.5,0-9.8c0.1-2-0.4-3.4-2.2-4.3c1.6-0.8,3.2-1.6,5-2.4
		c0.3,1,0.4,1.7,0.6,2.4c0.3-0.1,0.5-0.2,0.7-0.3c1.2-0.7,2.3-1.7,3.5-2c2.3-0.6,3.7,0.6,4.3,3.4c0.3,1.4,0.4,3,0.4,4.4
		c0.1,3.4,0,6.8,0,10.1C267,258.8,267.1,258.8,269.2,261.1z"/>
	<path class="st0" d="M111.7,319.4c2.8-0.7,5.6-1.6,8.5-2c2.5-0.4,4.5,1.1,5.8,3.8c1.4,2.8,2,6,1.8,9.3c-0.3,4.6-2,7-5.7,8
		c-2.2,0.6-4.5,1.1-7.1,1.7c1.8-4.1,0.3-7.4-0.4-10.8C114,326.1,114.4,322.3,111.7,319.4z M116.4,320.3c0.9,4.7,1.7,9.4,2.6,14
		c0.5,2.6,1.6,3.2,3.5,2c1.3-0.8,2.1-2.1,2-3.8c-0.1-2.7-0.2-5.5-0.8-8.1C122.6,319.9,120.6,318.8,116.4,320.3z"/>
	<path class="st0" d="M111.9,341c-4,0-7.6,0-11.8,0c1.8-1.7,2.1-3.5,1.3-5.6c-4.7-1.3-5.1-1.1-7,4c0.3,0.5,0.7,1,1.2,1.8
		c-1.4,0-2.5,0-3.6,0c2.6-6.2,5.2-12.2,7.6-18.4c0.9-2.4,2.1-3.3,4.2-3.2c2.1,0.2,4.2,0,6.5,0c0,1.4,0,2.6,0,4.1
		c-2.1-2.7-2.1-2.7-5.6-2.3c0,2.5,0,5.1,0,8.2c1.7-0.4,3-0.7,4.6-1.1c0.1,0.9,0.1,2.2,0.2,3.3c-1.5-0.4-2.9-0.7-4.4-1
		c-0.1,1.2-0.3,1.8-0.2,2.3c0,1.9,0.1,3.7,0.2,5.6c2.5,1.2,4.5,1,6.4-2.5C111.8,338.4,111.8,339.5,111.9,341z M101.4,324.4
		c-0.2-0.1-0.4-0.2-0.6-0.2c-1.4,2.7-2.6,5.6-3.6,8.7c1.6,0,2.9,0,4.2,0C101.4,329.8,101.4,327.1,101.4,324.4z"/>
	<path class="st0" d="M486.2,296.9c-0.2,1.3-0.4,3.4-0.9,5.2c-1.2,4.2-3.9,6.4-7.4,6.4c-3.2,0-5.8-2.4-7-6.5c-1-3.5-1-7.1,0-10.7
		c1.3-4.4,4.3-7,7.8-6.7c3.5,0.2,6.2,3.2,7,8C486,293.8,486,295,486.2,296.9z M483.1,298c-0.5-2.6-0.8-5.4-1.6-8.1
		c-0.8-2.7-2.4-4-4-3.8c-1.7,0.2-3.3,2.1-3.5,5c-0.2,3.2-0.1,6.5,0.2,9.6c0.1,1.5,0.9,3.1,1.6,4.3c1.8,2.8,4.9,2.3,6.1-1
		C482.5,302.3,482.6,300.2,483.1,298z"/>
	<path class="st0" d="M51.6,296.6c2.3,2.2,4.3,4,6.2,6c1.5,1.7,1.5,3.9,0.3,6.1c-1.4,2.4-3.3,3.5-5.7,3.6c-0.3,1.9-0.7,3.6-0.8,5.3
		c-0.1,1.7,0,3.4,0,5.9c-1.5-1.3-2.5-2.2-3.7-3.3c0.6-3.5,1.2-6.8,1.8-10.5c-3,2-4.1,3.8-4.5,7c-2.1-0.8-2.7-1.3-4.4-4
		c3.3-0.5,4.6-4,6.4-6.6C49,303.4,51.7,301.4,51.6,296.6z M50,308c2.5,1.7,4.3,1.1,5.7-1.7c0.9-1.9,0.7-2.7-1.4-4.4
		C52.8,303.8,51.4,305.9,50,308z"/>
	<path class="st0" d="M513.3,297c-0.4,1.9-0.7,4.3-1.5,6.4c-1.3,3.5-3.6,5.2-6.8,5.2c-3.2,0-5.4-2-6.7-5.4
		c-1.6-4.3-1.6-8.8,0.1-13.1c1.5-3.9,4.3-5.8,7.6-5.5c3.2,0.3,5.6,2.8,6.6,7.1C512.9,293.3,513,294.9,513.3,297z M500.5,294.4
		c0.2,4.2,0.5,7.4,2,10.2c1.8,3.3,5.4,3.1,6.4-0.6c1.5-5.3,1.1-10.5-1.1-15.5c-0.7-1.6-1.9-2.6-3.5-2.3c-1.5,0.3-2.6,1.5-3,3.3
		C500.9,291.3,500.7,293.3,500.5,294.4z"/>
	<path class="st0" d="M507.5,250.6c-0.3,1.6-0.6,3.9-1.3,5.9c-1.3,3.5-3.5,5.3-6.7,5.4c-3.2,0.1-5.4-1.7-6.8-5.2
		c-1.7-4.4-1.7-9,0-13.4c1.5-4,4.6-5.9,7.9-5.3c3.2,0.5,5.6,3.3,6.3,7.5C507.3,247,507.3,248.5,507.5,250.6z M504.2,251.1
		c-0.2-3.3-0.5-6.5-2.1-9.3c-1.8-3.2-5.1-3.1-6.2,0.5c-1.7,5.3-1.5,10.7,1,15.8c0.8,1.6,2,2.4,3.6,2.1c1.6-0.3,2.6-1.4,3-3.2
		C503.8,255,503.9,253,504.2,251.1z"/>
	<path class="st0" d="M311.2,297c-0.5,1.9-0.8,4.4-1.6,6.6c-1.3,3.3-3.6,4.9-6.6,4.9c-3,0-5.2-1.7-6.6-5c-1.8-4.5-1.8-9.2,0-13.7
		c1.5-3.8,4.4-5.6,7.7-5.2c3.1,0.4,5.4,2.8,6.3,7C310.7,293.2,310.9,294.8,311.2,297z M298.3,294.5c0.2,4.1,0.5,7.3,2,10.1
		c0.8,1.6,2,2.4,3.6,2.2c1.6-0.2,2.6-1.3,3.1-3.1c1.2-5.1,0.9-10.1-1.1-14.8c-0.7-1.7-2-2.9-3.7-2.6c-1.7,0.3-2.7,1.7-3.1,3.6
		C298.7,291.5,298.5,293.4,298.3,294.5z"/>
	<path class="st0" d="M581.2,305c1,0.2,1.6,0.3,2.3,0.4c-2.2,3.8-3.1,3.9-5.6,0.8c-1,0.6-1.9,1.4-2.9,1.8c-3.4,1.5-6.1-1.3-5.7-5.8
		c0.3-2.6,1.4-4.4,3.2-5.6c1.7-1.2,3.6-2.3,5.5-3.4c0-1.5,0.1-3,0-4.4c-0.2-1.7-1.2-2.6-2.5-2.5c-1.3,0.1-2.3,0.9-2.4,2.8
		c0,0.4,0.1,0.8,0,1.1c-0.1,1.3-0.5,2.2-1.7,2.2c-0.9,0-1.6-1.4-1.5-2.8c0-0.4,0.1-0.7,0.3-1.1c0.8-2.3,3-3.7,5.8-3.6
		c2.7,0.1,4.1,1.3,4.8,4.1c0.3,1.3,0.4,2.7,0.4,4.1C581.3,296.9,581.2,300.8,581.2,305z M578.1,295.2c-2.6,1-4.4,2.2-5.4,4.9
		c-0.6,1.8-0.3,3.4,0.7,4.8c0.7,1,1.7,1.2,2.7,0.6c1.3-0.7,2-1.8,2-3.7C578.1,299.8,578.1,297.8,578.1,295.2z"/>
	<path class="st0" d="M471.5,258.4c1,0.2,1.6,0.3,2.3,0.4c-2.1,3.8-3,3.9-5.7,0.8c-0.7,0.5-1.3,1-2,1.4c-2.3,1.4-4.2,1.1-5.5-0.8
		c-1.2-1.8-1.4-5.2-0.1-7.4c0.9-1.4,2.1-2.6,3.4-3.6c1.3-1,2.9-1.7,4.4-2.7c0-1.4,0.1-2.8,0-4.1c-0.2-2-1.2-3.1-2.6-2.9
		c-1.3,0.2-2.3,0.9-2.3,2.8c0,0.4,0,0.8,0,1.1c-0.1,1.2-0.6,2.3-1.7,2.1c-1.3-0.2-1.5-1.4-1.4-2.8c0-0.4,0.1-0.8,0.2-1.1
		c1.1-2.6,3-3.5,5.2-3.6c2.2-0.1,4.3,0.5,5.1,3.5c0.4,1.5,0.6,3.2,0.6,4.8C471.5,250.3,471.5,254.2,471.5,258.4z M468.4,248.7
		c-2.7,0.9-4.8,2.2-5.5,5.4c-0.5,2.3,0.5,4.6,2,5c1.7,0.4,3.4-1.4,3.5-3.9C468.4,253.2,468.4,251.1,468.4,248.7z"/>
	<path class="st0" d="M572.4,238.8c2.1,0,4.1,0,6.5,0c-1.2,1.6-1.8,2.9-1.2,4.8c1.1,3.5,2,7,3.6,10.7c0.9-4,2-8,2.7-12.1
		c0.2-0.9-0.6-2-1-3.3c1.3,0,2.6,0,3.9,0c-2.2,8.6-4.5,17.2-6.8,25.8c-0.5,1.9-1.2,3.7-2,5.4c-0.7,1.5-1.7,2.4-3.2,2.4
		c-1.5,0-2.4-1-2.3-2.7c0.1-1.5,0.9-2.1,2.4-1.9c0.5,0.1,1,0.3,1.6,0.5c2.1-3.1,3.5-6.2,2-10.5c-1.7-4.7-2.9-9.6-4.3-14.4
		C573.8,242,573.1,240.6,572.4,238.8z"/>
	<path class="st0" d="M558.3,259.5c-0.9,0.6-1.5,1.1-2.3,1.6c-2.2,1.2-4,1-5.3-0.7c-1.2-1.6-1.6-4.9-0.4-7c0.8-1.5,2-2.8,3.2-3.8
		c1.4-1.2,3-1.9,4.7-2.9c0-1.6,0.1-3.2,0-4.8c-0.1-1.7-1.2-2.3-2.4-2.3c-1.2,0.1-2.2,0.6-2.3,2.4c-0.1,0.6,0.1,1.4-0.1,1.8
		c-0.4,0.7-1,1.7-1.6,1.8c-1.1,0.1-1.6-1.1-1.4-2.3c0.1-1,0.5-2.2,1-3c2-2.5,4.5-2.7,7-1.7c2.4,0.9,3,3.5,3,6.3c0,3.5,0,7,0,10.5
		c0,2.7,0.1,2.7,2.2,3.6C561.6,262.5,560.7,262.6,558.3,259.5z M558.4,248.3c-1.7,1.2-2.8,1.9-3.8,2.8c-1.1,1-1.7,2.4-1.7,4.1
		c0,2.3,1,3.9,2.4,4c1.6,0.1,3-1.5,3.1-3.7C558.4,253.4,558.4,251.3,558.4,248.3z"/>
	<path class="st0" d="M321.9,296c0.4-1.8,0.7-4.2,1.6-6.3c1.5-3.7,4.1-5.4,7.4-5.1c3.1,0.3,5.5,2.8,6.5,6.8c0.8,3.3,0.8,6.7,0,10
		c-1.1,4.4-3.8,7-7.3,7.1c-3.5,0.1-6.2-2.3-7.4-6.8C322.3,300,322.2,298.3,321.9,296z M334.7,297.9c-0.2-3.4-0.5-6.8-2.1-9.6
		c-1.9-3.2-5.1-2.9-6.2,0.7c-1.7,5.4-1.5,10.8,1.1,15.7c1.7,3.4,5.2,2.8,6.4-1C334.4,301.9,334.4,299.9,334.7,297.9z"/>
	<path class="st0" d="M372.4,259.5c-0.7,0.5-1.3,1-2,1.4c-2.3,1.4-4.3,1.1-5.5-0.7c-1.2-1.8-1.5-5.3-0.1-7.4
		c0.9-1.4,2.2-2.6,3.4-3.6c1.3-1.1,2.9-1.8,4.3-2.6c0-1.6,0.1-3.1,0-4.6c-0.1-1.7-1-2.4-2.3-2.5c-1.3-0.1-2.3,0.9-2.5,2.6
		c-0.1,0.6,0.1,1.4-0.1,1.8c-0.4,0.7-1.2,1.7-1.7,1.6c-0.5-0.1-1.1-1.2-1.3-2c-0.2-0.6,0.1-1.5,0.4-2.1c1-2.5,4.1-3.7,7-3
		c2.2,0.6,3.6,2.4,3.7,5.6c0.2,3.9,0.1,7.8,0.1,11.6c0,2,0.2,3.5,2.4,3C376.1,262.5,375,262.7,372.4,259.5z M372.6,249.1
		c-0.2-0.2-0.5-0.3-0.7-0.5c-1.2,1-2.6,1.8-3.6,3.1c-0.7,1-1.1,2.6-1.2,4c-0.1,2,1.1,3.5,2.5,3.5c1.5,0,2.9-1.5,3-3.4
		C372.7,253.5,372.6,251.3,372.6,249.1z"/>
	<path class="st0" d="M388.7,293.2c0-1.5,0.1-3,0-4.5c-0.2-1.8-1.1-2.7-2.5-2.6c-1.3,0.2-2.3,0.9-2.3,2.8c0,0.2,0,0.5,0,0.7
		c-0.2,1.9-1,2.8-2,2.5c-1-0.3-1.4-1.9-1.1-3.4c0.1-0.2,0.1-0.5,0.2-0.7c1-2.4,4-3.8,6.9-3.1c2.2,0.5,3.7,2.3,3.8,5.4
		c0.2,3.7,0.1,7.5,0.1,11.2c0,3.1,0,3.1,2.2,4.2c-2.1,3.4-2.9,3.4-5.4,0.3c-0.7,0.5-1.3,1-2,1.4c-2.3,1.4-4.3,1.1-5.5-0.7
		c-1.2-1.8-1.5-5.2-0.2-7.4c0.8-1.4,2-2.5,3.1-3.4C385.5,295,387.1,294.2,388.7,293.2z M388.9,295.8c-0.2-0.2-0.5-0.4-0.7-0.6
		c-1.2,1-2.6,1.8-3.6,3.1c-0.7,1-1.1,2.6-1.2,4c-0.1,2,1.1,3.5,2.4,3.6c1.5,0.1,2.9-1.4,3-3.4C388.9,300.2,388.9,298,388.9,295.8z"
		/>
	<path class="st0" d="M438,247.2c-3.3,0-6.7,0-10,0c-0.4,5.1,0.8,8.8,3.2,10.1c3.5,1.9,5.4-1.2,7.3-4.3c0.1,3.6-2.3,7.5-4.9,8.6
		c-2.7,1.1-5.5,0-7-3.3c-2.5-5.3-2.3-10.8,0-16.1c1.6-3.6,4.6-4.9,7.5-3.8C436.6,239.4,438.1,242.6,438,247.2z M434.6,245.3
		c-0.2-4-1.1-5.4-3.1-5.3c-2,0-3.1,1.7-3.3,5.3C430.3,245.3,432.3,245.3,434.6,245.3z"/>
	<path class="st0" d="M308.7,253.4c-0.7,3.6-2,6.5-4.7,8c-2.9,1.6-6.1,0.2-7.7-3.5c-2-4.7-1.9-9.7-0.2-14.5c1.4-4.1,4.4-5.9,7.6-5
		c2.7,0.7,4.2,3.7,4.4,8.6c-3.3,0.9-6.7-0.1-10,0.6c-0.5,4.2,0.5,8.1,2.8,9.6C304.5,259.6,306.5,256.1,308.7,253.4z M298,245.2
		c2.2,0.5,4.4,0.8,6.6-0.2c-0.4-3.7-1.2-5-3.2-5C299.5,239.9,298.5,241.4,298,245.2z"/>
	<path class="st0" d="M259.4,293.9c-3.3,0-6.7,0-10,0c-0.3,5.1,0.9,8.8,3.2,10.1c2.3,1.3,3.8,0.5,7.3-4c0,3.5-2.5,7.5-5.2,8.4
		c-2.9,0.9-5.6-0.5-7.1-4.1c-2.1-5.3-1.9-10.7,0.5-15.8c1.6-3.3,4.6-4.5,7.3-3.4C258.1,286.1,259.5,289.2,259.4,293.9z M249.4,291.9
		c2.4,0.4,4.5,0.6,6.5-0.1c-0.1-3.5-0.8-4.9-2.6-5.2C251.3,286.3,250.1,287.8,249.4,291.9z"/>
	<path class="st0" d="M435.5,293.8c-3.3,0-6.7,0-10,0c-0.5,4.8,0.8,8.7,3.1,10.1c3.6,2.1,5.4-1.4,7.5-4c-0.6,3.7-2.1,6.7-4.9,8.2
		c-2.5,1.3-5.2,0.2-6.9-2.7c-2.8-4.6-2.5-13.6,0.5-17.9c1.8-2.6,4.7-3.5,7.1-2.4C434.3,286.3,435.7,289.4,435.5,293.8z M432,292
		c0.1-3.9-0.9-5.5-3-5.5c-2.2,0.1-3.3,2.1-3.1,5.5C427.9,292,429.8,292,432,292z"/>
	<path class="st0" d="M378.6,301.2c-1,1.8-1.9,3.8-3.1,5.3c-2.4,2.9-5.8,2.6-8-0.4c-3.5-4.8-3.2-14.9,0.7-19.3
		c2.1-2.4,4.6-3,7.3-1.7c1.7,0.8,2.8,2.9,2.4,4.6c-0.2,0.8-0.8,1.7-1.5,2c-0.4,0.2-1.2-0.6-1.6-1.2c-0.3-0.4-0.3-1.2-0.5-1.7
		c-0.8-2.5-2.3-3.1-3.9-1.5c-3.3,3.1-2.9,13.7,0.6,16.5c1.5,1.2,3.6,1,5-0.6c0.7-0.8,1.3-1.8,2-2.7
		C378.2,300.8,378.4,301,378.6,301.2z"/>
	<path class="st0" d="M548.1,254.6c-1,1.8-1.9,3.8-3.1,5.3c-2.4,2.9-5.8,2.6-8-0.4c-3.5-4.8-3.2-14.9,0.7-19.3
		c2.1-2.4,4.6-3,7.3-1.7c1.6,0.8,2.8,2.9,2.5,4.6c-0.2,0.8-0.9,1.7-1.5,2c-0.4,0.2-1.2-0.6-1.6-1.2c-0.3-0.4-0.3-1.2-0.5-1.7
		c-0.8-2.6-2.5-3.1-4.2-1.3c-0.3,0.3-0.5,0.7-0.8,1.1c-1.8,3.3-1.7,10.4,0.3,13.6c1.7,2.9,4.5,3.2,6.5,0.7c0.6-0.7,1.2-1.6,1.7-2.4
		C547.6,254.2,547.9,254.4,548.1,254.6z"/>
	<path class="st0" d="M275.7,301.1c-0.6,1.3-1.1,2.6-1.7,3.8c-3.1,5.3-8.1,4.9-10.4-0.9c-1.9-4.9-1.8-10,0.3-14.8
		c1.8-4,5-5.5,8.2-4.3c1.7,0.6,2.9,1.9,3,4.2c0,0.9-0.5,2.2-1.2,2.6c-1,0.7-1.7-0.3-2-1.4c-0.1-0.5-0.2-1-0.3-1.4
		c-0.8-2.6-2.6-3.2-4.2-1.3c-0.6,0.8-1.2,1.8-1.5,2.8c-1,3.4-1,6.9,0.2,10.2c1.6,4.7,5.1,5.4,7.8,1.6c0.4-0.5,0.7-1.1,1.1-1.7
		C275.3,300.7,275.5,300.9,275.7,301.1z"/>
	<path class="st0" d="M320.1,307.8c-2.4,0-4.7,0-6.9,0c1.7-1.3,1.8-3.1,1.8-5.1c0-7.5-0.1-15,0-22.5c0-2-0.3-3.3-2-4.6
		c1.5-0.7,3-1.3,4.9-2.1c0.1,1.6,0.2,2.8,0.2,4c0,8.3,0,16.5,0,24.8C318.2,305.5,318.2,305.5,320.1,307.8z"/>
	<path class="st0" d="M488.4,307.7c1.5-1.1,1.7-2.8,1.7-4.7c0-7.6,0-15.3,0-22.9c0-1.8-0.2-3.4-1.8-4.6c1.4-0.7,2.9-1.3,4.8-2.2
		c0.1,1.7,0.2,3,0.2,4.2c0,8.1,0,16.3,0,24.4c0,2.1-0.3,4.4,1.8,5.7C492.9,307.7,490.7,307.7,488.4,307.7z"/>
	<path class="st0" d="M324.2,260.9c0-2.1,0-4.3,0-6.5c0.1-0.1,0.2-0.2,0.3-0.2c0.3,0.8,0.6,1.6,0.9,2.3c0.6,1.1,1.2,2.4,2,3.2
		c1,1.1,2.7,0.9,3.6-0.2c1-1.2,1.2-3.2,0.2-4.8c-0.5-0.9-1.3-1.5-2-2.2c-1-1-2.2-1.8-3.2-2.8c-2.1-2.1-2.7-5.6-1.7-8.4
		c1-2.6,2.8-3.6,5.8-3.1c0.9,0.2,1.8,0.3,2.9,0.5c0.1,1.8,0.1,3.7,0.2,5.6c-0.2,0.1-0.4,0.1-0.6,0.2c-0.3-0.8-0.7-1.7-1-2.5
		c-0.7-1.5-1.7-2.7-3.1-2.4c-0.7,0.2-1.7,1.1-1.9,1.9c-0.6,1.9,0.2,3.4,1.5,4.5c1.2,1.1,2.5,2,3.8,3.1c1.8,1.5,2.7,3.7,2.6,6.4
		c-0.2,4.3-2.6,6.9-6,6.3C327,261.6,325.7,261.2,324.2,260.9z"/>
	<path class="st0" d="M285.7,261.6c-2.3-7.5-4.7-15-7-22.7c1.8,0,3.8,0,6,0c-0.5,1-1.3,1.9-1.4,2.8c-0.1,1,0.3,2.2,0.6,3.2
		c0.8,2.9,1.7,5.8,2.8,9.6c1.6-4.7,2.7-8.7,3.5-12.8c0.1-0.7-0.7-1.7-1.2-2.8c1.5,0,2.9,0,4.4,0c-3.2,7.4-4.5,15.4-7.1,22.7
		C286.2,261.6,286,261.6,285.7,261.6z"/>
	<path class="st0" d="M316.2,238.2c0.2,1.2,0.3,1.9,0.5,2.7c0.4-0.2,0.6-0.4,0.9-0.6c0.8-0.7,1.6-1.6,2.5-1.9c0.6-0.2,1.6,0.4,2,1
		c0.3,0.6,0.3,1.9,0,2.7c-0.4,1.1-1.3,0.9-2.1,0.3c-0.4-0.3-0.9-0.5-1.3-0.6c-1.7,1.2-2.2,2.9-2.1,5.1c0.1,2.7,0,5.5,0,8.2
		c0,3.7,0,3.7,2.6,5.8c-2.7,0.9-5.2,0.3-8,0.1c2.2-1.5,2.3-3.8,2.2-6.3c-0.1-3-0.1-6,0-9c0.1-2.2,0-4.2-2.3-5.3
		C312.7,239.7,314.4,239,316.2,238.2z"/>
	<path class="st0" d="M166.7,309.7c-0.8-2.3-1.2-3.9-1.8-5.4c-1.7-4-3.5-7.8-5.2-11.8c-0.5-1.1-0.9-2.2-1.6-3.9
		c1.2,0.2,1.9,0.1,2.6,0.4c3.2,1.4,6.4,3,9.6,4.4c2.1,0.9,4.3,1.7,6.7,2.7c-1.2,1.6-2.4,3.3-3.7,5c-1-2.9-1-2.9-3.9-4
		c-1.2,1.4-2.4,3-3.7,4.5c0.6,2.5,1.2,4.4,4,4.4C168.3,307.6,167.6,308.6,166.7,309.7z M162.4,293.9c0.6,2.3,1,4.7,2.7,6.1
		c0.9-1.3,1.6-2.3,2.5-3.7c-1-0.6-1.7-1-2.4-1.3C164.3,294.6,163.3,294.3,162.4,293.9z"/>
	<path class="st0" d="M74.6,314.1c-1.8,0.4-3.2,1.7-4.5,3.3c-2.6,3.3-5.3,6.5-7.9,9.7c-0.6,0.8-1.3,1.5-2.4,2.7
		c-0.2-1.5-0.4-2.4-0.3-3.2c0.4-5,0.9-9.9,1.3-14.9c0.1-1.7,0-3.4,0-5.4c2,0,3.5,1.7,5.5,2.9c-1.6,0.9-2,2.3-2.1,4.1
		c-0.1,3.1-0.5,6.1-0.3,9.5c2.2-2.7,4.4-5.3,6.5-8.1c0.4-0.5,0.2-1.7,0.3-2.9C72.1,311.8,73.4,312.6,74.6,314.1
		C74.5,314.2,74.6,314.1,74.6,314.1z"/>
	<path class="st0" d="M28.6,251.8c0.6,1.9,1.3,4,2.3,6.9c-2.3-1.1-3.6,0-4.8,1.4c-1.8,1.8-3.6,3.5-5.3,5.6c3.8-0.1,7.7,1.2,11.7-1.7
		c0.4,1.1,0.8,2.5,1.2,3.8c-2.2-0.2-4-0.4-5.8-0.4c-3.5,0.1-7,0.3-10.5,0.4c-1,0-1.9,0-3.7,0c1-1.4,1.3-2.2,1.9-2.7
		c2.7-2.6,5.4-5.2,8.1-7.8C25.2,255.6,26.7,253.8,28.6,251.8z"/>
	<path class="st0" d="M40.8,283.5c1.5,1.9,2.8,3.6,4.3,5.5c-2.4,0.8-2.4,0.7-3.6,3.2c-1.2,2.6-2.4,5.2-3.2,8.3
		c2.9-1.5,5.8-3,8.7-4.7c0.6-0.3,0.8-1.5,1.3-2.7c0.9,1.1,1.7,2.2,2.5,3.2c-2.5,1.1-4.7,2-6.9,3c-2.9,1.4-5.7,3-8.6,4.4
		c-0.8,0.4-1.6,0.7-3.1,1.3c0.4-1.6,0.6-2.5,0.9-3.2c2-4.5,4.1-8.9,6.1-13.4C39.8,287.2,40.2,285.6,40.8,283.5z"/>
	<path class="st0" d="M144.8,328.6c-1.8,1.1-3.6,2.2-6.1,3.7c1.1-3.1,0.3-5-0.6-6.9c-1.2-2.6-2.1-5.4-3.4-7.9
		c-0.8-1.7-1.9-3.1-3.2-5c2.8-1.6,5.8-3.4,8.9-5.1c1,1.1,1.8,2.1,1.2,4.3c-1.9-2.3-3.6-1.4-5.5,0.3c0.9,2.3,1.9,4.6,2.7,6.7
		c2,0.3,2.9-1.1,3.6-3.6c0.8,1.9,1.3,3.1,2.1,5.2c-2.2-1.2-3.6-1.2-4.7,0.7C141.2,323.6,141.4,327.3,144.8,328.6z"/>
	<path class="st0" d="M35,275.3c-0.4-3.6-2.4-2.9-4.3-2.7c0.5-2.2,1.8-2.6,3.1-3.3c2.4,4.3,4.8,8.6,7.4,13.2
		c-1.2,0.9-2.2,1.6-3.1,2.3c-1.4-1.8,0.6-2.2,0.5-3.7c-0.3-0.6-0.8-1.5-1.3-2.5c-0.4,0.2-0.7,0.2-1,0.4c-3.2,2.4-6.3,4.9-9.5,7.2
		c-1.3,0.9-2.2,2.1-2,4.5c-2.2-1.9-3.1-4.2-4.4-7.4c2.7,1.9,4.2,0,5.8-1.2C29.2,279.8,32.2,277.5,35,275.3z"/>
	<path class="st0" d="M28,249.5c-1.2,0.8-2.3,1.4-3.4,0.3c1.8-2.7,1.8-2.7,1.1-6.3c-2.1,0.3-4.2,0.5-6.2,0.8
		c-0.8,2.3,0.4,3.5,1.4,5.2c-1.4,0.2-2.4,0.3-3.8,0.5c0.5-1.9,1.6-3.4,0.2-5.3c-2.2,0.8-5.1-0.6-7.1,3.2c-1.1-2.5-1.1-4.9-1-7.7
		c3,2.5,6,0.9,8.8,0.4c2.8-0.4,6,0.3,8.5-2.9c0.3,1.2,0.5,2.1,0.6,3C27.4,243.6,27.7,246.5,28,249.5z"/>
	<path class="st0" d="M171.8,264.4c0.5-2.2,1-4.3,1.5-6.4c3.9,2.8,7.8,0.8,11.7,0.7c-2.3-2.6-4.9-4.7-7.5-6.6
		c-0.5-0.4-1.4,0.1-2.6,0.2c0.3-1.5,0.6-2.8,0.9-4.2c4.6,4.8,9.6,8.3,14.3,12.3c0.4,0.4,0.9,0.5,1.4,0.8c-0.1,0.3-0.3,0.6-0.4,1
		c-0.6,0.2-1.2,0.5-1.8,0.6c-4.1,0.3-8.2,0.4-12.3,0.7C175.4,263.6,173.9,264,171.8,264.4z"/>
	<path class="st0" d="M192.9,250.1c-1.4-0.3-2.5-0.6-3.6-0.8c0-0.3,0-0.6,0-0.9c0.6-0.3,1.1-0.6,1.7-0.8c1.2-0.3,1.7-1.3,1.7-2.7
		c0-1.5-0.9-2.2-1.9-2.5c-1.4-0.4-2.6-0.1-3.6,1.1c-0.8,0.9-1.6,2.1-2.5,2.6c-1.2,0.7-2.6,1.5-3.9,1.4c-3.4,0-5.2-3.5-4.1-7.5
		c0.3-0.9,0.7-1.8,1.2-2.9c1.2,0.3,2.2,0.5,3.3,0.8c0,0.3,0,0.6,0,1c-0.7,0.2-1.4,0.3-2,0.8c-0.5,0.4-1.3,1.2-1.3,1.8
		c0.1,0.8,0.6,1.8,1.2,2.3c1.1,1,2.3,0.6,3.3-0.5c1-1,1.9-2.3,3-3.1c1.1-0.8,2.4-1.5,3.6-1.6c3.6-0.2,5.7,3.2,5,7.6
		C193.8,247.3,193.3,248.5,192.9,250.1z"/>
	<path class="st0" d="M531,238c0,5.5,0,10.2,0,14.9c0,1.4,0,2.7,0,4.1c0,1.6,0.4,2.9,2.2,3.6c-2.6,1.4-4.8,0.5-7.3,0.5
		c2.2-1.8,1.9-4.4,1.9-6.8c0-3.2,0-6.5,0-9.7c0-1.7-0.1-3.3-2.1-3.5c0.1-0.3,0.1-0.5,0.2-0.8C527.4,239.6,528.9,238.9,531,238z"/>
	<path class="st0" d="M157.6,299.2c-0.4-0.3-0.8-0.5-1.2-0.8c-2.4-1.6-4.8,0-4.8,3.3c-0.1,3.7,3.3,10.1,6.1,11.4
		c1.7,0.8,3.2,0.3,4.5-1.1c0.7-0.7,1.1-1.7,1.7-2.6c0.2,0.1,0.4,0.2,0.6,0.3c0.1,0.6,0.4,1.3,0.2,1.7c-2.1,4.6-7.3,6-10.8,2.9
		c-2.3-2-3.8-4.8-4.6-8.1c-0.9-3.8,0.1-7,2.8-9c1.3-1,2.9-1.6,4.5-2.4c0.7,1.5,1.2,2.6,1.7,3.7C158.1,298.7,157.8,298.9,157.6,299.2
		z"/>
	<path class="st0" d="M356.5,286.8c1.5-0.6,3-1.3,4.8-2.1c0.1,1.4,0.3,2.5,0.3,3.6c0,4.9,0,9.8,0,14.7c0,1.8,0.2,3.5,2.2,4.4
		c-2.7,1-5,0.7-7.5,0.4c0.8-1,1.5-1.6,1.8-2.5c0.3-1,0.3-2.2,0.3-3.3c0-3.5,0-7,0-10.5c0-1.9-0.3-3.4-2.1-3.9
		C356.3,287.3,356.4,287.1,356.5,286.8z"/>
	<path class="st0" d="M336.5,261c1.9-1.1,2.1-3,2-5.1c0-3.4,0-6.8,0-10.1c0-2,0.6-4.5-2.6-4.8c0.2-0.2,0.5-0.5,0.7-0.7
		c1.6-0.6,3.1-1.3,5.1-2.1c0,3.3,0,6,0,8.7c0,3.3,0,6.5,0,9.8c0,2.3,0.1,2.3,1.8,4.2C341.2,262,338.9,261.1,336.5,261z"/>
	<path class="st0" d="M271.1,261.1c1.5-1.2,1.8-2.8,1.8-4.9c-0.1-3.9,0-7.8,0-11.6c0-2.3-0.1-2.3-2-4.3c1.7-0.7,3.2-1.4,5.2-2.2
		c0,4.4,0,8.2,0,12.1c0,2,0.1,4,0,6c-0.1,2,0.2,3.7,1.8,4.9C275.6,261.1,273.3,261.1,271.1,261.1z"/>
	<path class="st0" d="M124.6,315.5c1.8-0.8,3.6-1.5,5.3-2.2c0.2,2.2,0.2,4,0.6,5.6c0.9,3.3,1.9,6.6,3,9.8c0.5,1.5,1.4,2.7,2.3,4.3
		c-1.3,1.3-3.2,1.8-5.5,2.3c1.4-4.2-0.7-7.2-1.7-10.5C127.8,321.9,127.7,317.9,124.6,315.5z"/>
	<path class="st0" d="M566.9,307.8c-2.2,0-4.5,0-6.7,0c1.7-1.3,1.8-3.1,1.8-5.1c-0.1-3.8-0.1-7.5,0-11.3c0.1-1.9-0.3-3.3-1.8-4.6
		c1.4-0.6,2.9-1.3,4.6-2c0.1,1.2,0.3,2.2,0.3,3.1c0,5,0,10,0,15c0,1.8,0.1,3.6,2.1,4.1C567.1,307.3,567,307.6,566.9,307.8z"/>
	<path class="st0" d="M146.9,301.9c-0.9,5.1,1.7,7.5,3.2,10.4c1.5,2.9,2.1,6.9,6.3,7.7c-2.3,1.7-4,3-6.1,4.5
		c0.8-4.9-1.8-7.4-3.3-10.3c-1.5-2.9-2.2-6.8-6.2-7.8C143.1,304.8,144.7,303.6,146.9,301.9z"/>
	<path class="st0" d="M88.9,231.7c-2,3.1-4,6.1-5.9,9.3c-1.5,2.5-1.8,5.2-0.7,8.1c0.2,0.6,0.3,1.4,0.5,2.2c-3.9-0.6-5.8-2.7-5.5-6.2
		c0.1-1.2,0.4-2.6,1.1-3.3c3.3-3.4,6.7-6.7,10-10C88.5,231.7,88.8,231.8,88.9,231.7C89,231.8,88.9,231.7,88.9,231.7z"/>
	<path class="st0" d="M327.7,280.7c1.5-2.3,3-4.5,4.6-6.8c0.5-0.8,1.4-1.5,2-0.3c0.3,0.6,0.3,2.2-0.1,2.6c-1.8,1.9-3.8,3.7-5.8,5.4
		C328.1,281.3,327.9,281,327.7,280.7z"/>
	<path class="st0" d="M497.2,234.2c1.5-2.3,3-4.5,4.5-6.7c0.5-0.8,1.3-1.5,2-0.5c0.8,1,0.6,2.1-0.2,2.9c-1.8,1.8-3.7,3.5-5.6,5.2
		C497.6,234.8,497.4,234.5,497.2,234.2z"/>
	<path class="st0" d="M360.1,279c-1,0-2-1.4-2-2.8c0-1.5,1-2.7,2-2.6c1.2,0.1,1.7,1.2,1.8,2.5C362,277.5,361.1,278.9,360.1,279z"/>
	<path class="st0" d="M342.1,229.6c0,1.4-1,2.8-2,2.7c-1-0.1-1.9-1.4-1.8-2.9c0.1-1.4,0.6-2.4,1.8-2.5
		C341.2,226.9,342.1,228.2,342.1,229.6z"/>
	<path class="st0" d="M563.9,278.9c-1,0.1-2-1.2-2-2.7c0-1.4,0.5-2.4,1.6-2.7c1.1-0.3,2,0.8,2.1,2.4
		C565.7,277.5,564.9,278.8,563.9,278.9z"/>
	<path class="st0" d="M276.5,229.7c0,1.5-1,2.7-2,2.7c-1-0.1-1.8-1.4-1.7-2.9c0.1-1.4,0.6-2.3,1.8-2.4
		C275.7,226.9,276.6,228.2,276.5,229.7z"/>
	<path class="st0" d="M531.4,229.4c0.1,1.6-0.7,2.9-1.8,2.9c-1,0.1-2-1.3-2-2.7c0-1.3,0.5-2.4,1.7-2.6
		C530.4,226.8,531.3,227.8,531.4,229.4z"/>
	<path class="st0" d="M126.1,277.3c-16.5,0-32.1,0-47.9,0c1-2.6,20.6-28.7,23.8-31.7C109.9,255.9,117.8,266.3,126.1,277.3z
		 M107.9,256.7c0.4,3.7,1.1,4.9,2.8,5C109.7,260,108.8,258.4,107.9,256.7c-0.8-0.8-1.7-1.6-2.5-2.5c-1.2-1.4-2.3-3-3.6-4.7
		c-3.2,4.2-6.1,8-9.1,12c1.7,1,2.1-0.4,2.5-1.5c0.7-2.2,2-2.9,3.8-2.7c1.7,0.1,3.4,0.1,5.1,0C105.3,257.3,106.6,256.9,107.9,256.7z
		 M95.1,264.2c4.5,0,9.1,0,13.6,0c0.4,1.2,0.6,2.2,0.9,3c1.9,0,3.5,0,5.2,0c-1.2-3.5-3.4-4.3-5.9-4c-0.7-1.5-1.4-2.9-2-4.2
		c-3.4,0-6.7,0-9.9,0c-0.3,0.5-0.6,0.9-0.7,1.4c-0.6,2.1-1.6,3.2-3.5,3c-2.1-0.2-2.9,1.9-3.9,4c2.1,0,3.8,0,5.7,0
		C94.7,266.3,94.9,265.4,95.1,264.2z M83.6,273.3c0.1,0.3,0.2,0.5,0.3,0.8c11.9,0,23.9,0,36.4,0c-1.1-1.5-1.9-2.6-2.3-3.1
		c-1.3,0.7-2.1,1.4-2.9,1.4c-8.9,0.1-17.9,0.1-26.8,0c-0.8,0-1.6-0.8-2.7-1.4C85.2,271.5,84.4,272.4,83.6,273.3z"/>
	<path class="st0" d="M101.4,293.2c1.8,3,1.8,3,0,6.3C99.5,296.6,99.5,296.4,101.4,293.2z"/>
	<path d="M107.9,256.7c0.9,1.7,1.9,3.3,2.8,5C108.9,261.7,108.2,260.4,107.9,256.7C107.9,256.7,107.9,256.7,107.9,256.7z"/>
</g>
</svg>
