<?xml version="1.0" encoding="utf-8"?>
<!-- Generator: Adobe Illustrator 25.2.1, SVG Export Plug-In . SVG Version: 6.00 Build 0)  -->
<svg version="1.1" id="Layer_1" xmlns="http://www.w3.org/2000/svg" xmlns:xlink="http://www.w3.org/1999/xlink" x="0px" y="0px"
	 viewBox="0 0 450 450" style="enable-background:new 0 0 450 450;" xml:space="preserve">
<style type="text/css">
	.st0{opacity:0.3;fill:#CFC4B8;}
	.st1{enable-background:new    ;}
	.st2{fill:#E4E3EE;}
	.st3{fill:#B7B6E3;}
	.st4{fill:#919DD6;}
	.st5{fill:#12B0F3;}
	.st6{fill:#1393F2;}
	.st7{fill:#05D4F5;}
	.st8{fill:#D4D5F0;}
	.st9{fill:#C4C3EC;}
	.st10{fill:#FFFFFF;}
	.st11{fill:#EEEFF2;}
	.st12{clip-path:url(#SVGID_2_);enable-background:new    ;}
	.st13{clip-path:url(#SVGID_4_);enable-background:new    ;}
	.st14{clip-path:url(#SVGID_6_);enable-background:new    ;}
	.st15{clip-path:url(#SVGID_8_);enable-background:new    ;}
	.st16{clip-path:url(#SVGID_10_);enable-background:new    ;}
	.st17{fill:#DAD9E8;}
	.st18{clip-path:url(#SVGID_12_);enable-background:new    ;}
	.st19{fill:#EBEBF1;}
	.st20{clip-path:url(#SVGID_14_);enable-background:new    ;}
	.st21{clip-path:url(#SVGID_16_);enable-background:new    ;}
	.st22{clip-path:url(#SVGID_18_);enable-background:new    ;}
	.st23{clip-path:url(#SVGID_20_);enable-background:new    ;}
	.st24{fill:#171C29;}
	.st25{fill:#042F8F;}
	.st26{clip-path:url(#SVGID_22_);enable-background:new    ;}
	.st27{clip-path:url(#SVGID_24_);enable-background:new    ;}
	.st28{clip-path:url(#SVGID_26_);enable-background:new    ;}
	.st29{clip-path:url(#SVGID_28_);enable-background:new    ;}
	.st30{clip-path:url(#SVGID_30_);enable-background:new    ;}
	.st31{clip-path:url(#SVGID_32_);enable-background:new    ;}
</style>
<g>
	<g>
		<polygon class="st0" points="233.38,340.65 256.46,340.65 345.03,289.44 267.28,243.57 211.71,274.09 		"/>
		<g>
			<g>
				<g class="st1">
					<g>
						<polygon class="st2" points="148.73,269.82 152.86,267.42 158.45,270.65 154.33,273.05 						"/>
					</g>
					<g>
						<polygon class="st3" points="159.3,268.02 163.43,265.62 159.21,272.52 155.08,274.92 						"/>
					</g>
					<g>
						<polygon class="st4" points="169.07,272.23 173.2,269.83 173.19,271.26 169.06,273.66 						"/>
					</g>
					<g>
						<polygon class="st2" points="158.55,266.15 162.68,263.75 173.2,269.83 169.07,272.23 						"/>
					</g>
					<g>
						<polygon class="st4" points="169.07,272.23 169.06,273.66 159.3,268.02 155.08,274.92 148.73,271.25 148.73,269.82 
							154.33,273.05 158.55,266.15 						"/>
					</g>
				</g>
			</g>
			<g>
				<g class="st1">
					<g>
						<polygon class="st2" points="164.06,261.09 168.19,258.69 173.78,261.92 169.66,264.32 						"/>
					</g>
					<g>
						<polygon class="st3" points="174.63,259.29 178.76,256.89 174.54,263.79 170.41,266.19 						"/>
					</g>
					<g>
						<polygon class="st4" points="184.4,263.5 188.53,261.1 188.52,262.53 184.39,264.93 						"/>
					</g>
					<g>
						<polygon class="st2" points="173.88,257.42 178.01,255.02 188.53,261.1 184.4,263.5 						"/>
					</g>
					<g>
						<polygon class="st4" points="184.4,263.5 184.39,264.93 174.63,259.29 170.41,266.19 164.06,262.52 164.06,261.09 
							169.66,264.32 173.88,257.42 						"/>
					</g>
				</g>
			</g>
			<g>
				<g class="st1">
					<g>
						<polygon class="st2" points="178.74,252.34 182.87,249.94 188.46,253.18 184.34,255.57 						"/>
					</g>
					<g>
						<polygon class="st3" points="189.32,250.55 193.44,248.15 189.22,255.05 185.09,257.45 						"/>
					</g>
					<g>
						<polygon class="st4" points="199.08,254.75 203.21,252.35 203.2,253.78 199.08,256.18 						"/>
					</g>
					<g>
						<polygon class="st2" points="188.56,248.68 192.69,246.28 203.21,252.35 199.08,254.75 						"/>
					</g>
					<g>
						<polygon class="st4" points="199.08,254.75 199.08,256.18 189.32,250.55 185.09,257.45 178.74,253.78 178.74,252.34 
							184.34,255.57 188.56,248.68 						"/>
					</g>
				</g>
			</g>
			<g>
				<g class="st1">
					<g>
						<polygon class="st2" points="133.57,279.32 137.7,276.92 143.3,280.15 139.17,282.55 						"/>
					</g>
					<g>
						<polygon class="st3" points="144.15,277.52 148.28,275.12 144.05,282.02 139.93,284.42 						"/>
					</g>
					<g>
						<polygon class="st4" points="153.91,281.72 158.04,279.33 158.04,280.76 153.91,283.15 						"/>
					</g>
					<g>
						<polygon class="st2" points="143.39,275.65 147.52,273.25 158.04,279.33 153.91,281.72 						"/>
					</g>
					<g>
						<polygon class="st4" points="153.91,281.72 153.91,283.15 144.15,277.52 139.93,284.42 133.57,280.75 133.57,279.32 
							139.17,282.55 143.39,275.65 						"/>
					</g>
				</g>
			</g>
			<g>
				<g class="st1">
					<g>
						<polygon class="st2" points="195.06,243.12 199.19,240.72 204.79,243.95 200.66,246.35 						"/>
					</g>
					<g>
						<polygon class="st3" points="205.64,241.32 209.76,238.93 205.54,245.82 201.41,248.22 						"/>
					</g>
					<g>
						<polygon class="st4" points="215.4,245.53 219.53,243.13 219.52,244.56 215.4,246.96 						"/>
					</g>
					<g>
						<polygon class="st2" points="204.88,239.45 209.01,237.06 219.53,243.13 215.4,245.53 						"/>
					</g>
					<g>
						<polygon class="st4" points="215.4,245.53 215.4,246.96 205.64,241.32 201.41,248.22 195.06,244.55 195.06,243.12 
							200.66,246.35 204.88,239.45 						"/>
					</g>
				</g>
			</g>
			<g>
				<g class="st1">
					<g>
						<polygon class="st2" points="210.75,234.21 214.87,231.82 220.47,235.05 216.34,237.45 						"/>
					</g>
					<g>
						<polygon class="st3" points="221.32,232.42 225.45,230.02 221.23,236.92 217.1,239.32 						"/>
					</g>
					<g>
						<polygon class="st4" points="231.09,236.62 235.21,234.22 235.21,235.65 231.08,238.05 						"/>
					</g>
					<g>
						<polygon class="st2" points="220.57,230.55 224.69,228.15 235.21,234.22 231.09,236.62 						"/>
					</g>
					<g>
						<polygon class="st4" points="231.09,236.62 231.08,238.05 221.32,232.42 217.1,239.32 210.74,235.65 210.75,234.21 
							216.34,237.45 220.57,230.55 						"/>
					</g>
				</g>
			</g>
		</g>
		<g>
			<g>
				<g class="st1">
					<g>
						<polygon class="st2" points="316.74,270.03 312.61,267.63 307.01,270.87 311.14,273.26 						"/>
					</g>
					<g>
						<polygon class="st3" points="306.16,268.24 302.04,265.84 306.26,272.74 310.39,275.14 						"/>
					</g>
					<g>
						<polygon class="st4" points="296.4,272.44 292.27,270.04 292.28,271.47 296.4,273.87 						"/>
					</g>
					<g>
						<polygon class="st2" points="306.92,266.37 302.79,263.97 292.27,270.04 296.4,272.44 						"/>
					</g>
					<g>
						<polygon class="st4" points="296.4,272.44 296.4,273.87 306.16,268.24 310.39,275.14 316.74,271.47 316.74,270.03 
							311.14,273.26 306.92,266.37 						"/>
					</g>
				</g>
			</g>
			<g>
				<g class="st1">
					<g>
						<polygon class="st2" points="301.41,261.3 297.28,258.9 291.68,262.14 295.81,264.53 						"/>
					</g>
					<g>
						<polygon class="st3" points="290.83,259.5 286.71,257.11 290.93,264.01 295.06,266.4 						"/>
					</g>
					<g>
						<polygon class="st4" points="281.07,263.71 276.94,261.31 276.95,262.74 281.07,265.14 						"/>
					</g>
					<g>
						<polygon class="st2" points="291.59,257.64 287.46,255.24 276.94,261.31 281.07,263.71 						"/>
					</g>
					<g>
						<polygon class="st4" points="281.07,263.71 281.07,265.14 290.83,259.5 295.06,266.4 301.41,262.73 301.41,261.3 
							295.81,264.53 291.59,257.64 						"/>
					</g>
				</g>
			</g>
			<g>
				<g class="st1">
					<g>
						<polygon class="st2" points="286.73,252.56 282.6,250.16 277,253.39 281.13,255.79 						"/>
					</g>
					<g>
						<polygon class="st3" points="276.15,250.76 272.02,248.36 276.25,255.26 280.38,257.66 						"/>
					</g>
					<g>
						<polygon class="st4" points="266.39,254.96 262.26,252.57 262.26,254 266.39,256.39 						"/>
					</g>
					<g>
						<polygon class="st2" points="276.91,248.89 272.78,246.49 262.26,252.57 266.39,254.96 						"/>
					</g>
					<g>
						<polygon class="st4" points="266.39,254.96 266.39,256.39 276.15,250.76 280.38,257.66 286.73,253.99 286.73,252.56 
							281.13,255.79 276.91,248.89 						"/>
					</g>
				</g>
			</g>
			<g>
				<g class="st1">
					<g>
						<polygon class="st2" points="331.89,279.53 327.77,277.13 322.17,280.36 326.3,282.76 						"/>
					</g>
					<g>
						<polygon class="st3" points="321.32,277.73 317.19,275.33 321.41,282.23 325.54,284.63 						"/>
					</g>
					<g>
						<polygon class="st4" points="311.55,281.94 307.43,279.54 307.43,280.97 311.56,283.37 						"/>
					</g>
					<g>
						<polygon class="st2" points="322.07,275.86 317.95,273.47 307.43,279.54 311.55,281.94 						"/>
					</g>
					<g>
						<polygon class="st4" points="311.55,281.94 311.56,283.37 321.32,277.73 325.54,284.63 331.9,280.96 331.89,279.53 
							326.3,282.76 322.07,275.86 						"/>
					</g>
				</g>
			</g>
			<g>
				<g class="st1">
					<g>
						<polygon class="st2" points="270.41,243.33 266.28,240.94 260.68,244.17 264.81,246.57 						"/>
					</g>
					<g>
						<polygon class="st3" points="259.83,241.54 255.7,239.14 259.93,246.04 264.05,248.44 						"/>
					</g>
					<g>
						<polygon class="st4" points="250.07,245.74 245.94,243.34 245.94,244.77 250.07,247.17 						"/>
					</g>
					<g>
						<polygon class="st2" points="260.59,239.67 256.46,237.27 245.94,243.34 250.07,245.74 						"/>
					</g>
					<g>
						<polygon class="st4" points="250.07,245.74 250.07,247.17 259.83,241.54 264.05,248.44 270.41,244.77 270.41,243.33 
							264.81,246.57 260.59,239.67 						"/>
					</g>
				</g>
			</g>
			<g>
				<g class="st1">
					<g>
						<polygon class="st2" points="254.72,234.43 250.59,232.03 245,235.26 249.12,237.66 						"/>
					</g>
					<g>
						<polygon class="st3" points="244.15,232.63 240.02,230.23 244.24,237.13 248.37,239.53 						"/>
					</g>
					<g>
						<polygon class="st4" points="234.38,236.84 230.25,234.44 230.26,235.87 234.39,238.27 						"/>
					</g>
					<g>
						<polygon class="st2" points="244.9,230.76 240.77,228.36 230.25,234.44 234.38,236.84 						"/>
					</g>
					<g>
						<polygon class="st4" points="234.38,236.84 234.39,238.27 244.15,232.63 248.37,239.53 254.73,235.86 254.72,234.43 
							249.12,237.66 244.9,230.76 						"/>
					</g>
				</g>
			</g>
		</g>
		<g>
			<g class="st1">
				<g>
					<polygon class="st5" points="321.87,279.36 321.84,289.24 233.39,340.65 233.42,330.76 					"/>
				</g>
				<g>
					<polygon class="st6" points="233.42,330.76 233.39,340.65 144.36,289.25 144.38,279.36 					"/>
				</g>
				<g>
					<polygon class="st7" points="321.87,279.36 233.42,330.76 144.38,279.36 232.84,227.96 					"/>
				</g>
			</g>
		</g>
		<g>
			<g>
				<polygon class="st8" points="300.67,276.85 300.65,281.8 233.32,320.92 233.34,315.98 				"/>
			</g>
			<g>
				<polygon class="st9" points="233.34,315.98 233.32,320.92 165.56,281.8 165.57,276.85 				"/>
			</g>
			<g>
				<polygon class="st10" points="300.67,276.85 233.34,315.98 165.57,276.85 232.9,237.73 				"/>
			</g>
		</g>
		<g>
			<g>
				<g class="st1">
					<g>
						<polygon class="st9" points="137.12,304.85 132.99,302.46 137.16,290.71 141.29,293.11 						"/>
					</g>
					<g>
						<polygon class="st2" points="141.29,293.11 137.16,290.71 147.68,284.64 151.81,287.04 						"/>
					</g>
					<g>
						<polygon class="st2" points="131.52,308.09 127.4,305.69 132.99,302.46 137.12,304.85 						"/>
					</g>
					<g>
						<polygon class="st3" points="131.53,309.52 127.4,307.12 127.4,305.69 131.52,308.09 						"/>
					</g>
					<g>
						<polygon class="st4" points="151.81,287.04 151.82,288.47 142.05,294.1 137.89,305.85 131.53,309.52 131.52,308.09 
							137.12,304.85 141.29,293.11 						"/>
					</g>
				</g>
			</g>
			<g>
				<g class="st1">
					<g>
						<polygon class="st9" points="152.64,313.74 148.51,311.34 152.68,299.59 156.81,301.99 						"/>
					</g>
					<g>
						<polygon class="st2" points="156.81,301.99 152.68,299.59 163.2,293.52 167.33,295.92 						"/>
					</g>
					<g>
						<polygon class="st2" points="147.04,316.97 142.91,314.57 148.51,311.34 152.64,313.74 						"/>
					</g>
					<g>
						<polygon class="st3" points="147.05,318.4 142.92,316 142.91,314.57 147.04,316.97 						"/>
					</g>
					<g>
						<polygon class="st4" points="167.33,295.92 167.33,297.35 157.57,302.99 153.4,314.73 147.05,318.4 147.04,316.97 
							152.64,313.74 156.81,301.99 						"/>
					</g>
				</g>
			</g>
			<g>
				<g class="st1">
					<g>
						<polygon class="st9" points="168.03,322.71 163.91,320.31 168.08,308.57 172.2,310.97 						"/>
					</g>
					<g>
						<polygon class="st2" points="172.2,310.97 168.08,308.57 178.6,302.49 182.72,304.89 						"/>
					</g>
					<g>
						<polygon class="st2" points="162.44,325.94 158.31,323.54 163.91,320.31 168.03,322.71 						"/>
					</g>
					<g>
						<polygon class="st3" points="162.44,327.37 158.31,324.98 158.31,323.54 162.44,325.94 						"/>
					</g>
					<g>
						<polygon class="st4" points="182.72,304.89 182.73,306.32 172.97,311.96 168.8,323.7 162.44,327.37 162.44,325.94 
							168.03,322.71 172.2,310.97 						"/>
					</g>
				</g>
			</g>
			<g>
				<g class="st1">
					<g>
						<polygon class="st9" points="183.42,331.62 179.3,329.22 183.47,317.48 187.59,319.87 						"/>
					</g>
					<g>
						<polygon class="st2" points="187.59,319.87 183.47,317.48 193.99,311.4 198.11,313.8 						"/>
					</g>
					<g>
						<polygon class="st2" points="177.82,334.85 173.7,332.45 179.3,329.22 183.42,331.62 						"/>
					</g>
					<g>
						<polygon class="st3" points="177.83,336.28 173.7,333.89 173.7,332.45 177.82,334.85 						"/>
					</g>
					<g>
						<polygon class="st4" points="198.11,313.8 198.12,315.23 188.36,320.87 184.19,332.61 177.83,336.28 177.82,334.85 
							183.42,331.62 187.59,319.87 						"/>
					</g>
				</g>
			</g>
			<g>
				<g class="st1">
					<g>
						<polygon class="st9" points="199.01,340.47 194.88,338.07 199.05,326.32 203.18,328.72 						"/>
					</g>
					<g>
						<polygon class="st2" points="203.18,328.72 199.05,326.32 209.57,320.25 213.7,322.65 						"/>
					</g>
					<g>
						<polygon class="st2" points="193.41,343.7 189.28,341.3 194.88,338.07 199.01,340.47 						"/>
					</g>
					<g>
						<polygon class="st3" points="193.41,345.13 189.29,342.73 189.28,341.3 193.41,343.7 						"/>
					</g>
					<g>
						<polygon class="st4" points="213.7,322.65 213.7,324.08 203.94,329.72 199.77,341.46 193.41,345.13 193.41,343.7 
							199.01,340.47 203.18,328.72 						"/>
					</g>
				</g>
			</g>
			<g>
				<g class="st1">
					<g>
						<polygon class="st9" points="214.29,349.39 210.17,346.99 214.34,335.25 218.46,337.65 						"/>
					</g>
					<g>
						<polygon class="st2" points="218.46,337.65 214.34,335.25 224.86,329.17 228.98,331.57 						"/>
					</g>
					<g>
						<polygon class="st2" points="208.69,352.62 204.57,350.22 210.17,346.99 214.29,349.39 						"/>
					</g>
					<g>
						<polygon class="st3" points="208.7,354.06 204.57,351.66 204.57,350.22 208.69,352.62 						"/>
					</g>
					<g>
						<polygon class="st4" points="228.98,331.57 228.99,333 219.22,338.64 215.06,350.38 208.7,354.06 208.69,352.62 
							214.29,349.39 218.46,337.65 						"/>
					</g>
				</g>
			</g>
		</g>
		<g>
			<g>
				<g class="st1">
					<g>
						<polygon class="st9" points="329.44,305.02 333.56,302.62 329.39,290.87 325.27,293.27 						"/>
					</g>
					<g>
						<polygon class="st2" points="325.27,293.27 329.39,290.87 318.87,284.8 314.75,287.2 						"/>
					</g>
					<g>
						<polygon class="st2" points="335.03,308.25 339.16,305.85 333.56,302.62 329.44,305.02 						"/>
					</g>
					<g>
						<polygon class="st3" points="335.03,309.68 339.16,307.28 339.16,305.85 335.03,308.25 						"/>
					</g>
					<g>
						<polygon class="st4" points="314.75,287.2 314.74,288.63 324.5,294.27 328.67,306.01 335.03,309.68 335.03,308.25 
							329.44,305.02 325.27,293.27 						"/>
					</g>
				</g>
			</g>
			<g>
				<g class="st1">
					<g>
						<polygon class="st9" points="313.92,313.9 318.04,311.5 313.87,299.76 309.75,302.15 						"/>
					</g>
					<g>
						<polygon class="st2" points="309.75,302.15 313.87,299.76 303.36,293.68 299.23,296.08 						"/>
					</g>
					<g>
						<polygon class="st2" points="319.52,317.13 323.64,314.73 318.04,311.5 313.92,313.9 						"/>
					</g>
					<g>
						<polygon class="st3" points="319.51,318.56 323.64,316.16 323.64,314.73 319.52,317.13 						"/>
					</g>
					<g>
						<polygon class="st4" points="299.23,296.08 299.22,297.51 308.99,303.15 313.15,314.89 319.51,318.56 319.52,317.13 
							313.92,313.9 309.75,302.15 						"/>
					</g>
				</g>
			</g>
			<g>
				<g class="st1">
					<g>
						<polygon class="st9" points="298.52,322.87 302.65,320.47 298.48,308.73 294.35,311.13 						"/>
					</g>
					<g>
						<polygon class="st2" points="294.35,311.13 298.48,308.73 287.96,302.66 283.83,305.06 						"/>
					</g>
					<g>
						<polygon class="st2" points="304.12,326.1 308.25,323.71 302.65,320.47 298.52,322.87 						"/>
					</g>
					<g>
						<polygon class="st3" points="304.12,327.54 308.25,325.14 308.25,323.71 304.12,326.1 						"/>
					</g>
					<g>
						<polygon class="st4" points="283.83,305.06 283.83,306.49 293.59,312.12 297.76,323.87 304.12,327.54 304.12,326.1 
							298.52,322.87 294.35,311.13 						"/>
					</g>
				</g>
			</g>
			<g>
				<g class="st1">
					<g>
						<polygon class="st9" points="283.13,331.78 287.26,329.38 283.09,317.64 278.96,320.04 						"/>
					</g>
					<g>
						<polygon class="st2" points="278.96,320.04 283.09,317.64 272.57,311.56 268.44,313.96 						"/>
					</g>
					<g>
						<polygon class="st2" points="288.73,335.01 292.86,332.61 287.26,329.38 283.13,331.78 						"/>
					</g>
					<g>
						<polygon class="st3" points="288.73,336.45 292.86,334.05 292.86,332.61 288.73,335.01 						"/>
					</g>
					<g>
						<polygon class="st4" points="268.44,313.96 268.44,315.39 278.2,321.03 282.37,332.78 288.73,336.45 288.73,335.01 
							283.13,331.78 278.96,320.04 						"/>
					</g>
				</g>
			</g>
			<g>
				<g class="st1">
					<g>
						<polygon class="st9" points="267.55,340.63 271.68,338.23 267.51,326.49 263.38,328.88 						"/>
					</g>
					<g>
						<polygon class="st2" points="263.38,328.88 267.51,326.49 256.99,320.41 252.86,322.81 						"/>
					</g>
					<g>
						<polygon class="st2" points="273.15,343.86 277.28,341.46 271.68,338.23 267.55,340.63 						"/>
					</g>
					<g>
						<polygon class="st3" points="273.14,345.29 277.27,342.9 277.28,341.46 273.15,343.86 						"/>
					</g>
					<g>
						<polygon class="st4" points="252.86,322.81 252.86,324.24 262.62,329.88 266.79,341.62 273.14,345.29 273.15,343.86 
							267.55,340.63 263.38,328.88 						"/>
					</g>
				</g>
			</g>
			<g>
				<g class="st1">
					<g>
						<polygon class="st9" points="252.26,349.55 256.39,347.15 252.22,335.41 248.09,337.81 						"/>
					</g>
					<g>
						<polygon class="st2" points="248.09,337.81 252.22,335.41 241.7,329.34 237.57,331.73 						"/>
					</g>
					<g>
						<polygon class="st2" points="257.86,352.79 261.99,350.39 256.39,347.15 252.26,349.55 						"/>
					</g>
					<g>
						<polygon class="st3" points="257.86,354.22 261.99,351.82 261.99,350.39 257.86,352.79 						"/>
					</g>
					<g>
						<polygon class="st4" points="237.57,331.73 237.57,333.17 247.33,338.8 251.5,350.55 257.86,354.22 257.86,352.79 
							252.26,349.55 248.09,337.81 						"/>
					</g>
				</g>
			</g>
		</g>
		<g>
			<g>
				<polygon class="st8" points="188.95,276.85 192.25,278.76 232.97,302.27 232.97,251.27 				"/>
				<polygon class="st9" points="232.97,251.27 232.97,302.27 233.26,302.44 273.98,278.78 277.29,276.85 				"/>
			</g>
			<polygon class="st7" points="273.98,278.78 233.26,302.44 192.25,278.76 232.97,255.1 			"/>
		</g>
		<polygon class="st7" points="273.98,278.78 233.26,302.44 192.25,278.76 232.97,255.1 		"/>
		<g>
			<g class="st1">
				<g>
					<polygon class="st8" points="255.13,275.25 255.12,277.72 250.29,280.53 250.3,278.06 					"/>
				</g>
				<g>
					<polygon class="st9" points="250.3,278.06 250.29,280.53 228.69,268.05 228.7,265.58 					"/>
				</g>
				<g>
					<polygon class="st11" points="255.13,275.25 250.3,278.06 228.7,265.58 233.53,262.77 					"/>
				</g>
			</g>
			<g class="st1">
				<g class="st1">
					<defs>
						<path id="SVGID_1_" class="st1" d="M231.09,279.32l-0.01,2.47c-1.27-0.35-2.48-0.68-3.64-0.99c-1.16-0.31-2.23-0.59-3.22-0.84
							c-0.99-0.25-1.85-0.47-2.6-0.66c-0.75-0.19-1.34-0.34-1.78-0.44l0.01-2.47c0.44,0.1,1.03,0.25,1.78,0.44
							c0.75,0.19,1.62,0.41,2.6,0.66c0.99,0.25,2.06,0.53,3.22,0.84C228.61,278.64,229.82,278.97,231.09,279.32z"/>
					</defs>
					<use xlink:href="#SVGID_1_"  style="overflow:visible;fill:#1393F2;"/>
					<clipPath id="SVGID_2_">
						<use xlink:href="#SVGID_1_"  style="overflow:visible;"/>
					</clipPath>
					<g class="st12">
						<path class="st9" d="M231.09,279.32l-0.01,2.47c-1.27-0.35-2.48-0.68-3.64-0.99c-1.16-0.31-2.23-0.59-3.22-0.84
							c-0.99-0.25-1.85-0.47-2.6-0.66c-0.75-0.19-1.34-0.34-1.78-0.44l0.01-2.47c0.44,0.1,1.03,0.25,1.78,0.44
							c0.75,0.19,1.62,0.41,2.6,0.66c0.99,0.25,2.06,0.53,3.22,0.84C228.61,278.64,229.82,278.97,231.09,279.32z"/>
					</g>
				</g>
				<g class="st1">
					<defs>
						<path id="SVGID_3_" class="st1" d="M239.29,281.78l-0.01,2.47c-1.07-0.3-2.13-0.59-3.18-0.89l0.01-2.47
							C237.16,281.18,238.22,281.48,239.29,281.78z"/>
					</defs>
					<use xlink:href="#SVGID_3_"  style="overflow:visible;fill:#1393F2;"/>
					<clipPath id="SVGID_4_">
						<use xlink:href="#SVGID_3_"  style="overflow:visible;"/>
					</clipPath>
					<g class="st13">
						<path class="st9" d="M239.29,281.78l-0.01,2.47c-1.07-0.3-2.13-0.59-3.18-0.89l0.01-2.47
							C237.16,281.18,238.22,281.48,239.29,281.78z"/>
					</g>
				</g>
				<g class="st1">
					<defs>
						<path id="SVGID_5_" class="st1" d="M242.37,282.66l-0.01,2.47c-0.99-0.3-2.02-0.59-3.08-0.89l0.01-2.47
							C240.35,282.07,241.38,282.37,242.37,282.66z"/>
					</defs>
					<use xlink:href="#SVGID_5_"  style="overflow:visible;fill:#1393F2;"/>
					<clipPath id="SVGID_6_">
						<use xlink:href="#SVGID_5_"  style="overflow:visible;"/>
					</clipPath>
					<g class="st14">
						<path class="st9" d="M242.37,282.66l-0.01,2.47c-0.99-0.3-2.02-0.59-3.08-0.89l0.01-2.47
							C240.35,282.07,241.38,282.37,242.37,282.66z"/>
					</g>
				</g>
				<g>
					<polygon class="st8" points="247.54,279.66 247.54,282.13 242.36,285.14 242.37,282.66 					"/>
				</g>
				<g>
					<polygon class="st8" points="236.1,280.89 236.1,283.36 227.71,288.23 227.72,285.76 					"/>
				</g>
				<g class="st1">
					<defs>
						<path id="SVGID_7_" class="st1" d="M225.8,292.29l-0.01,2.47c-1.52-1.81-2.9-3.5-4.15-5.06c-1.25-1.56-2.4-3.05-3.45-4.46
							c-1.05-1.41-2.03-2.77-2.92-4.06c-0.89-1.3-1.73-2.59-2.5-3.87l0.01-2.47c0.77,1.28,1.61,2.58,2.5,3.87
							c0.9,1.3,1.87,2.65,2.92,4.06c1.05,1.41,2.2,2.9,3.45,4.46C222.9,288.79,224.28,290.48,225.8,292.29z"/>
					</defs>
					<use xlink:href="#SVGID_7_"  style="overflow:visible;fill:#1393F2;"/>
					<clipPath id="SVGID_8_">
						<use xlink:href="#SVGID_7_"  style="overflow:visible;"/>
					</clipPath>
					<g class="st15">
						<path class="st9" d="M225.8,292.29l-0.01,2.47c-1.52-1.81-2.9-3.5-4.15-5.06c-1.25-1.56-2.4-3.05-3.45-4.46
							c-1.05-1.41-2.03-2.77-2.92-4.06c-0.89-1.3-1.73-2.59-2.5-3.87l0.01-2.47c0.77,1.28,1.61,2.58,2.5,3.87
							c0.9,1.3,1.87,2.65,2.92,4.06c1.05,1.41,2.2,2.9,3.45,4.46C222.9,288.79,224.28,290.48,225.8,292.29z"/>
					</g>
				</g>
				<g>
					<polygon class="st8" points="230.82,289.38 230.81,291.85 225.79,294.76 225.8,292.29 					"/>
				</g>
				<g>
					<path class="st11" d="M239.29,281.78c-1.07-0.3-2.13-0.59-3.18-0.89l-8.38,4.87c0.52,0.61,1.03,1.23,1.55,1.84
						c0.52,0.62,1.04,1.21,1.55,1.77l-5.02,2.92c-1.52-1.81-2.9-3.5-4.15-5.06c-1.25-1.56-2.4-3.05-3.45-4.46
						c-1.05-1.41-2.03-2.77-2.92-4.06c-0.89-1.3-1.73-2.59-2.5-3.87l4.58-2.66c2.2,0.45,4.43,0.94,6.68,1.44
						c2.25,0.51,4.6,1.06,7.04,1.67c2.44,0.6,5.01,1.27,7.71,1.98c2.7,0.72,5.62,1.51,8.75,2.39l-5.17,3.01
						C241.38,282.37,240.35,282.07,239.29,281.78z M224.95,282.89l6.14-3.57c-1.27-0.35-2.48-0.68-3.64-0.99
						c-1.16-0.31-2.23-0.59-3.22-0.84c-0.99-0.25-1.85-0.47-2.6-0.66c-0.75-0.19-1.34-0.34-1.78-0.44c0.21,0.24,0.48,0.58,0.81,1.01
						c0.33,0.43,0.72,0.93,1.16,1.49c0.44,0.56,0.93,1.19,1.45,1.87C223.8,281.45,224.36,282.16,224.95,282.89z"/>
				</g>
			</g>
		</g>
		<g>
			<g>
				<path class="st7" d="M233.6,379.69l-146.35-84.5l145.41-84.5l146.35,84.5L233.6,379.69z M91.13,295.19l142.46,82.25
					l141.53-82.25l-142.46-82.25L91.13,295.19z"/>
			</g>
		</g>
		<g>
			<g>
				<g>
					<path class="st7" d="M109.94,307.17l-10.82,6.25c-0.16,0.09-0.36,0.09-0.51,0l-11.1-6.41l-36.02,20.8l-3.36,1.94
						c-0.08,0.05-0.17,0.07-0.26,0.07c-0.18,0-0.35-0.09-0.44-0.26c-0.14-0.24-0.06-0.56,0.19-0.7l2.83-1.63l36.8-21.25
						c0.16-0.09,0.35-0.09,0.51,0l11.1,6.41l10.05-5.8L109.94,307.17z"/>
				</g>
				<g>
					<path class="st7" d="M197.2,356.57l-1.71,0.98l-9.85,5.69c-0.16,0.09-0.35,0.09-0.51,0l-11.09-6.41l-14.01,8.09l-1.03,0.59
						l-21.28,12.29l-3.07,1.77c-0.08,0.05-0.17,0.07-0.26,0.07c-0.18,0-0.35-0.09-0.44-0.26c-0.14-0.25-0.06-0.56,0.19-0.7
						l2.73-1.58l21.1-12.18l1.03-0.59l14.78-8.53c0.16-0.09,0.35-0.09,0.51,0l11.09,6.41l9.08-5.24l1.71-0.99L197.2,356.57z"/>
				</g>
				<g>
					<path class="st7" d="M163.53,337.12l-1.71,0.99l-9.57,5.53c-0.16,0.09-0.35,0.09-0.51,0l-11.09-6.41l-14.28,8.24l-1.03,0.59
						l-20.45,11.81l-3.62,2.09c-0.08,0.04-0.17,0.07-0.26,0.07c-0.18,0-0.35-0.09-0.44-0.26c-0.14-0.25-0.06-0.56,0.19-0.7
						l3.31-1.91l20.25-11.69l1.03-0.59l15.05-8.69c0.16-0.09,0.35-0.09,0.51,0l11.09,6.41l8.8-5.08l1.71-0.99L163.53,337.12z"/>
				</g>
				<g>
					<path class="st7" d="M136.66,321.61l-1.71,0.99l-36.19,20.9l-2.72,1.57c-0.08,0.05-0.17,0.07-0.26,0.07
						c-0.18,0-0.35-0.09-0.44-0.26c-0.14-0.24-0.06-0.56,0.19-0.7l2.26-1.31l36.14-20.87l1.71-0.99L136.66,321.61z"/>
				</g>
				<g>
					<path class="st7" d="M209.58,363.71l-1.71,0.98l-35.69,20.61l-2.76,1.59c-0.08,0.04-0.17,0.07-0.26,0.07
						c-0.18,0-0.35-0.09-0.44-0.26c-0.14-0.25-0.06-0.56,0.19-0.7l2.24-1.29l35.7-20.62l1.71-0.99L209.58,363.71z"/>
				</g>
				<g>
					<path class="st7" d="M175.05,343.77l-1.71,0.99l-24.11,13.92l-1.03,0.59l-10.93,6.31c0,0,0,0,0,0l-2.86,1.65
						c-0.08,0.05-0.17,0.07-0.26,0.07c-0.18,0-0.35-0.09-0.44-0.26c-0.14-0.24-0.06-0.56,0.19-0.7l2.37-1.37l10.92-6.3l1.02-0.59
						l24.11-13.92l1.71-0.99L175.05,343.77z"/>
				</g>
				<g>
					<polygon class="st7" points="174.52,373.28 161,381.08 157.22,383.27 156.71,382.38 160.11,380.41 172.47,373.28 159.01,365.5 
						157.98,364.91 148.21,359.27 147.18,358.68 125.33,346.06 124.31,345.47 115.42,340.34 140.38,325.73 142.08,324.74 
						143.1,325.33 141.4,326.32 117.46,340.34 125.33,344.88 126.36,345.47 148.21,358.09 149.23,358.68 159.01,364.32 
						160.03,364.91 					"/>
				</g>
				<g>
					<path class="st7" d="M51.06,327.51c1.53,0.88,1.53,2.31,0,3.19c-1.53,0.88-4,0.88-5.53,0c-1.53-0.88-1.53-2.31,0-3.19
						C47.06,326.63,49.53,326.63,51.06,327.51z"/>
				</g>
				<g>
					<g>
						<path class="st7" d="M118.23,325.97c0,0.18-0.1,0.35-0.26,0.44l-31.01,17.91l-2.84,1.64c-0.08,0.05-0.17,0.07-0.26,0.07
							c-0.18,0-0.35-0.09-0.44-0.26c-0.14-0.24-0.06-0.56,0.19-0.7l2.36-1.36l30.73-17.74l-11.41-6.59
							c-0.16-0.09-0.26-0.26-0.26-0.44c0-0.18,0.1-0.36,0.26-0.44l11.29-6.52l1.71-0.99l1.03,0.59l-1.71,0.99l-11.03,6.37
							l11.41,6.58C118.13,325.62,118.23,325.79,118.23,325.97z"/>
					</g>
					<g>
						<path class="st7" d="M86.43,343.95c1.53,0.88,1.53,2.31,0,3.19c-1.53,0.88-4,0.88-5.53,0c-1.53-0.88-1.53-2.31,0-3.19
							C82.43,343.07,84.91,343.07,86.43,343.95z"/>
					</g>
				</g>
				<g>
					<g>
						<path class="st7" d="M216.27,381.88c0,0.18-0.1,0.35-0.26,0.44l-30.2,17.44l-3.65,2.11c-0.08,0.04-0.17,0.07-0.26,0.07
							c-0.17,0-0.35-0.09-0.44-0.26c-0.14-0.25-0.05-0.56,0.19-0.7l3.18-1.83l29.91-17.27l-11.41-6.59
							c-0.16-0.09-0.26-0.26-0.26-0.44c0-0.18,0.1-0.35,0.26-0.44l10.68-6.17l1.71-0.98l1.02,0.59l-1.71,0.98l-10.42,6.02
							l11.41,6.59C216.17,381.53,216.27,381.7,216.27,381.88z"/>
					</g>
					<g>
						<path class="st7" d="M185.25,399.36c1.53,0.88,1.53,2.31,0,3.19c-1.53,0.88-4,0.88-5.53,0c-1.53-0.88-1.53-2.31,0-3.19
							C181.25,398.48,183.73,398.48,185.25,399.36z"/>
					</g>
				</g>
				<g>
					<path class="st7" d="M98.17,343.07c1.53,0.88,1.53,2.31,0,3.19c-1.53,0.88-4,0.88-5.53,0c-1.53-0.88-1.53-2.31,0-3.19
						C94.17,342.18,96.65,342.18,98.17,343.07z"/>
				</g>
				<g>
					<path class="st7" d="M104.04,357.16c1.53,0.88,1.53,2.31,0,3.19c-1.53,0.88-4,0.88-5.53,0c-1.53-0.88-1.53-2.31,0-3.19
						C100.04,356.27,102.52,356.27,104.04,357.16z"/>
				</g>
				<g>
					<path class="st7" d="M136.78,365.23c1.53,0.88,1.53,2.31,0,3.19c-1.53,0.88-4,0.88-5.53,0c-1.53-0.88-1.53-2.31,0-3.19
						C132.77,364.35,135.25,364.35,136.78,365.23z"/>
				</g>
				<g>
					<path class="st7" d="M136.92,377.12c1.53,0.88,1.53,2.31,0,3.19c-1.53,0.88-4,0.88-5.53,0c-1.53-0.88-1.53-2.31,0-3.19
						C132.92,376.24,135.4,376.24,136.92,377.12z"/>
				</g>
				<g>
					<path class="st7" d="M160.26,380.49c1.53,0.88,1.53,2.31,0,3.19c-1.53,0.88-4,0.88-5.53,0c-1.53-0.88-1.53-2.31,0-3.19
						C156.26,379.61,158.73,379.61,160.26,380.49z"/>
				</g>
				<g>
					<path class="st7" d="M171.75,385.01c1.53,0.88,1.53,2.31,0,3.19c-1.53,0.88-4,0.88-5.53,0c-1.53-0.88-1.53-2.31,0-3.19
						C167.75,384.13,170.23,384.13,171.75,385.01z"/>
				</g>
			</g>
			<g>
				<g>
					<path class="st7" d="M387.07,342.51c-0.1,0.16-0.27,0.26-0.44,0.26c-0.09,0-0.17-0.02-0.26-0.07l-3.12-1.8l-30.73-17.75
						c-0.16-0.09-0.26-0.26-0.26-0.44c0-0.18,0.1-0.35,0.26-0.44l11.41-6.59l-10.24-5.91l-1.71-0.98l1.02-0.59l1.71,0.98l10.5,6.06
						c0.16,0.09,0.26,0.26,0.26,0.44c0,0.18-0.1,0.35-0.26,0.44l-11.41,6.59l30.6,17.67l2.48,1.43
						C387.12,341.95,387.21,342.26,387.07,342.51z"/>
				</g>
				<g>
					<path class="st7" d="M280.9,403.96c-0.1,0.16-0.27,0.26-0.44,0.26c-0.09,0-0.17-0.02-0.26-0.07l-3.02-1.74l-30.83-17.8
						c-0.16-0.09-0.26-0.26-0.26-0.44c0-0.18,0.1-0.35,0.26-0.44l11.41-6.59l-10.02-5.79l-1.7-0.98l1.02-0.59l1.7,0.98l10.28,5.94
						c0.16,0.09,0.26,0.26,0.26,0.44c0,0.18-0.1,0.35-0.26,0.44l-11.41,6.59l30.74,17.75l2.34,1.35
						C280.96,403.39,281.04,403.71,280.9,403.96z"/>
				</g>
				<g>
					<path class="st7" d="M333.24,370.96c-0.1,0.16-0.27,0.26-0.44,0.26c-0.09,0-0.18-0.02-0.26-0.07l-2.83-1.64l-23.33-13.47
						c-0.16-0.09-0.26-0.26-0.26-0.44c0-0.18,0.1-0.35,0.26-0.44l8.65-4.99l-7.79-4.58l-1.02-0.6l-6.53-3.84l-1.69-1l1.02-0.59
						l1.69,0.99l6.53,3.84l1.02,0.6l8.05,4.73c0.16,0.09,0.25,0.26,0.25,0.44c0,0.18-0.1,0.35-0.26,0.44l-8.64,4.99l23.43,13.53
						c0,0,0,0,0,0l1.96,1.13C333.3,370.4,333.38,370.71,333.24,370.96z"/>
				</g>
				<g>
					<path class="st7" d="M375.61,369.6c-0.1,0.16-0.27,0.26-0.44,0.26c-0.09,0-0.17-0.02-0.26-0.07l-3.02-1.74l-42.53-24.56
						c-0.16-0.09-0.26-0.26-0.26-0.44c0-0.18,0.1-0.35,0.26-0.44l15.62-9.02l-16.19-9.35l-1.71-0.98l1.02-0.59l1.71,0.98l16.46,9.5
						c0.16,0.09,0.26,0.26,0.26,0.44c0,0.18-0.1,0.35-0.26,0.44l-15.62,9.02l42.43,24.5l2.35,1.35
						C375.67,369.04,375.75,369.35,375.61,369.6z"/>
				</g>
				<g>
					<path class="st7" d="M329.98,382.42c-0.09,0.16-0.27,0.26-0.44,0.26c-0.09,0-0.17-0.02-0.26-0.07l-2.6-1.5l-30.1-17.38
						l-16.61,9.59c-0.16,0.09-0.36,0.09-0.51,0l-17.63-10.18l-1.7-0.98l1.02-0.59l1.7,0.98l16.87,9.74l16.61-9.59
						c0.16-0.09,0.36-0.09,0.51,0l30.87,17.82l2.08,1.2C330.03,381.87,330.12,382.18,329.98,382.42z"/>
				</g>
				<g>
					<path class="st7" d="M375.15,341.61c-0.1,0.16-0.27,0.26-0.44,0.26c-0.09,0-0.17-0.02-0.26-0.07l-2.93-1.69l-35.14-20.29
						l-1.71-0.99l1.02-0.59l1.71,0.98l35.22,20.33l2.34,1.35C375.21,341.05,375.29,341.37,375.15,341.61z"/>
				</g>
				<g>
					<path class="st7" d="M402.31,325.7c-0.1,0.16-0.27,0.26-0.44,0.26c-0.09,0-0.17-0.02-0.26-0.07l-3.22-1.86l-34.74-20.06
						l-1.71-0.98l1.02-0.59l1.71,0.98l34.7,20.04l2.75,1.59C402.37,325.14,402.45,325.45,402.31,325.7z"/>
				</g>
				<g>
					<path class="st7" d="M343.58,359.57c-0.1,0.16-0.27,0.26-0.44,0.26c-0.09,0-0.18-0.02-0.26-0.07l-3.18-1.83l-26.93-15.55
						l-1.03-0.59l-6.61-3.82l-1.71-0.98l1.02-0.59l1.71,0.98l6.61,3.82l1.03,0.59l26.83,15.49l2.76,1.59
						C343.64,359.02,343.72,359.33,343.58,359.57z"/>
				</g>
				<g>
					<path class="st7" d="M292.61,389.29c-0.09,0.16-0.27,0.26-0.44,0.26c-0.09,0-0.17-0.02-0.26-0.07l-2.95-1.7c0,0,0,0,0,0
						l-34.87-20.13l-1.7-0.98l1.02-0.59l1.7,0.98l34.95,20.17l2.37,1.37C292.67,388.73,292.75,389.05,292.61,389.29z"/>
				</g>
				<g>
					<polygon class="st7" points="330.22,332.31 313.8,341.79 312.78,342.38 308.26,344.99 307.24,345.58 286.66,357.46 
						283.59,359.23 283.08,358.34 285.82,356.76 306.23,344.98 307.25,344.39 311.75,341.79 312.78,341.19 328.16,332.31 
						321.5,328.47 319.79,327.48 320.82,326.89 322.52,327.87 					"/>
				</g>
				<g>
					<path class="st7" d="M282.79,402.35c1.53,0.88,1.53,2.31,0,3.19c-1.53,0.88-4,0.88-5.53,0c-1.53-0.88-1.53-2.31,0-3.19
						C278.78,401.47,281.26,401.47,282.79,402.35z"/>
				</g>
				<g>
					<path class="st7" d="M294.79,387.57c1.53,0.88,1.53,2.31,0,3.19c-1.53,0.88-4,0.88-5.53,0c-1.53-0.88-1.53-2.31,0-3.19
						C290.79,386.69,293.26,386.69,294.79,387.57z"/>
				</g>
				<g>
					<path class="st7" d="M285.86,356.79c1.53,0.88,1.53,2.31,0,3.19c-1.53,0.88-4,0.88-5.53,0c-1.53-0.88-1.53-2.31,0-3.19
						C281.86,355.91,284.34,355.91,285.86,356.79z"/>
				</g>
				<g>
					<path class="st7" d="M332.66,380.8c1.53,0.88,1.53,2.31,0,3.19c-1.53,0.88-4,0.88-5.53,0c-1.53-0.88-1.53-2.31,0-3.19
						C328.66,379.92,331.13,379.92,332.66,380.8z"/>
				</g>
				<g>
					<path class="st7" d="M334.81,369.72c1.53,0.88,1.53,2.31,0,3.19c-1.53,0.88-4,0.88-5.53,0c-1.53-0.88-1.53-2.31,0-3.19
						C330.81,368.84,333.29,368.84,334.81,369.72z"/>
				</g>
				<g>
					<path class="st7" d="M345.9,357.42c1.53,0.88,1.53,2.31,0,3.19c-1.53,0.88-4,0.88-5.53,0c-1.53-0.88-1.53-2.31,0-3.19
						C341.9,356.53,344.38,356.53,345.9,357.42z"/>
				</g>
				<g>
					<path class="st7" d="M377.52,367.99c1.53,0.88,1.53,2.31,0,3.19c-1.53,0.88-4,0.88-5.53,0c-1.53-0.88-1.53-2.31,0-3.19
						C373.52,367.1,376,367.1,377.52,367.99z"/>
				</g>
				<g>
					<ellipse class="st7" cx="374.59" cy="341.51" rx="3.91" ry="2.26"/>
				</g>
				<g>
					<path class="st7" d="M388.96,340.78c1.53,0.88,1.53,2.31,0,3.19c-1.53,0.88-4,0.88-5.53,0c-1.53-0.88-1.53-2.31,0-3.19
						C384.96,339.9,387.43,339.9,388.96,340.78z"/>
				</g>
				<g>
					<path class="st7" d="M404.47,323.63c1.53,0.88,1.53,2.31,0,3.19c-1.53,0.88-4,0.88-5.53,0c-1.53-0.88-1.53-2.31,0-3.19
						C400.47,322.75,402.94,322.75,404.47,323.63z"/>
				</g>
			</g>
			<g>
				<g>
					<path class="st7" d="M195.71,200.35c0,0.18-0.09,0.35-0.25,0.44l-8.12,4.86l-1.01,0.61l-10.19,6.11l-1.01,0.6l-9.56,5.73
						l26.85,15.5l1.71,0.98l-1.02,0.59l-1.71-0.98l-27.09-15.64c-0.16-0.09-0.25-0.26-0.26-0.44c0-0.18,0.09-0.35,0.25-0.44
						l9.81-5.88l1.01-0.61l10.19-6.11l1.01-0.61l7.86-4.71l-15.07-8.7l-2.55-1.47c-0.24-0.14-0.33-0.46-0.19-0.7
						c0.14-0.25,0.46-0.33,0.7-0.19l3.02,1.74l15.35,8.86C195.61,200,195.71,200.17,195.71,200.35z"/>
				</g>
				<g>
					<path class="st7" d="M103.91,286.63l-26.37-15.22l11.41-6.59c0.16-0.09,0.26-0.26,0.26-0.44c0-0.18-0.1-0.35-0.26-0.44
						l-15.49-8.94l-2.88-1.66c-0.25-0.14-0.56-0.06-0.7,0.19c-0.14,0.24-0.06,0.56,0.19,0.7l2.19,1.27l15.41,8.89l-11.41,6.59
						c-0.16,0.09-0.26,0.26-0.26,0.44c0,0.18,0.1,0.35,0.26,0.44l26.63,15.37L103.91,286.63z"/>
				</g>
				<g>
					<path class="st7" d="M157.57,256.44l-1.02,0.59l-1.71-0.98l-18.34-10.59c-0.16-0.09-0.26-0.26-0.26-0.44
						c0-0.18,0.1-0.36,0.26-0.44l8.65-5l-21.17-12.45l-2.01-1.18c-0.25-0.14-0.33-0.46-0.18-0.7c0.14-0.24,0.46-0.32,0.7-0.18
						l2.56,1.51l21.37,12.57c0.16,0.09,0.26,0.26,0.25,0.44c0,0.18-0.1,0.35-0.26,0.44l-8.64,4.99l18.08,10.44L157.57,256.44z"/>
				</g>
				<g>
					<path class="st7" d="M180.49,243.12l-1.02,0.59l-1.71-0.98l-28.53-16.47c-0.16-0.09-0.26-0.26-0.26-0.44
						c0-0.18,0.1-0.35,0.26-0.44l12.59-7.27l-16-9.24l-3.38-1.96c-0.25-0.14-0.33-0.45-0.19-0.7c0.14-0.25,0.45-0.33,0.7-0.19
						l3.86,2.23l16.29,9.41c0.16,0.09,0.26,0.26,0.26,0.44s-0.1,0.35-0.26,0.44l-12.59,7.27l28.27,16.32L180.49,243.12z"/>
				</g>
				<g>
					<path class="st7" d="M144.65,263.94l-1.02,0.59l-1.71-0.98L123.3,252.8l-13.32,7.69c-0.16,0.09-0.35,0.09-0.51,0l-18.02-10.4
						l-2.22-1.28c-0.25-0.14-0.33-0.46-0.19-0.7c0.14-0.25,0.45-0.33,0.7-0.19l2.65,1.53l17.33,10.01l13.32-7.69
						c0.16-0.09,0.36-0.09,0.51,0l19.39,11.19L144.65,263.94z"/>
				</g>
				<g>
					<path class="st7" d="M204.86,228.95l-1.02,0.59l-1.71-0.99l-27-15.59l-1.02-0.58l-8.36-4.83c0,0,0,0,0,0l-2.17-1.25
						c-0.25-0.14-0.33-0.46-0.19-0.7c0.14-0.25,0.46-0.33,0.7-0.19l2.8,1.62l8.23,4.75l1.02,0.59l27.02,15.6L204.86,228.95z"/>
				</g>
				<g>
					<path class="st7" d="M216.25,222.34l-1.02,0.59l-1.71-0.99l-27.19-15.68l-1.02-0.59l-31.45-18.14l-1.63-0.94
						c-0.25-0.14-0.33-0.45-0.19-0.7c0.14-0.25,0.45-0.33,0.7-0.19l2.39,1.38l31.18,17.99l1.02,0.59l27.2,15.69L216.25,222.34z"/>
				</g>
				<g>
					<path class="st7" d="M174.94,246.34l-1.02,0.59l-1.71-0.98l-36.04-20.81c0,0,0,0,0,0l-2.41-1.4c-0.25-0.14-0.33-0.46-0.19-0.7
						c0.14-0.25,0.45-0.33,0.7-0.19l3.02,1.74l35.94,20.75L174.94,246.34z"/>
				</g>
				<g>
					<path class="st7" d="M124.28,275.78l-1.02,0.59l-1.71-0.98l-16.09-9.29l-3.86-2.23c-0.24-0.14-0.33-0.46-0.18-0.7
						c0.14-0.24,0.45-0.33,0.7-0.19l4.42,2.55l16.04,9.26L124.28,275.78z"/>
				</g>
				<g>
					<path class="st7" d="M73.39,251.84c1.53,0.88,1.53,2.31,0,3.19c-1.53,0.88-4,0.88-5.53,0c-1.53-0.88-1.53-2.31,0-3.19
						C69.39,250.96,71.86,250.96,73.39,251.84z"/>
				</g>
				<g>
					<path class="st7" d="M106.18,262.58c1.53,0.88,1.53,2.31,0,3.19c-1.53,0.88-4,0.88-5.53,0c-1.53-0.88-1.53-2.31,0-3.19
						C102.18,261.7,104.65,261.7,106.18,262.58z"/>
				</g>
				<g>
					<path class="st7" d="M91.76,246.73c1.53,0.88,1.53,2.31,0,3.19c-1.53,0.88-4,0.88-5.53,0c-1.53-0.88-1.53-2.31,0-3.19
						C87.76,245.85,90.23,245.85,91.76,246.73z"/>
				</g>
				<g>
					<path class="st7" d="M124.7,223.6c1.53,0.88,1.53,2.31,0,3.19c-1.53,0.88-4,0.88-5.53,0c-1.53-0.88-1.53-2.31,0-3.19
						C120.7,222.72,123.17,222.72,124.7,223.6z"/>
				</g>
				<g>
					<path class="st7" d="M97.82,239.15c1.53,0.88,1.53,2.31,0,3.19c-1.53,0.88-4,0.88-5.53,0c-1.53-0.88-1.53-2.31,0-3.19
						C93.82,238.27,96.29,238.27,97.82,239.15z"/>
				</g>
				<g>
					<path class="st7" d="M151.4,260.02l-1.02,0.59l-1.71-0.98L106,235l-7.74,4.47l-2.92,1.68c-0.24,0.14-0.56,0.06-0.7-0.19
						c-0.14-0.24-0.05-0.56,0.19-0.7l2.4-1.38l8.51-4.91c0.16-0.09,0.35-0.09,0.51,0l43.44,25.08L151.4,260.02z"/>
				</g>
				<g>
					<path class="st7" d="M222.7,218.59l-1.02,0.59l-1.71-0.98l-18.54-10.71c-0.16-0.09-0.26-0.26-0.26-0.44s0.1-0.35,0.26-0.44
						l8.65-5l-21.17-12.45l-2.01-1.18c-0.24-0.14-0.32-0.46-0.18-0.7c0.14-0.25,0.46-0.33,0.7-0.18l2.56,1.5l21.37,12.58
						c0.16,0.09,0.25,0.26,0.25,0.44c0,0.18-0.1,0.35-0.26,0.44l-8.64,4.99L221,217.6L222.7,218.59z"/>
				</g>
				<g>
					<path class="st7" d="M189.63,185.63c1.53,0.88,1.53,2.31,0,3.19c-1.53,0.88-4,0.88-5.53,0c-1.53-0.88-1.53-2.31,0-3.19
						C185.63,184.75,188.1,184.75,189.63,185.63z"/>
				</g>
				<g>
					<path class="st7" d="M137.04,221.58c1.53,0.88,1.53,2.31,0,3.19c-1.53,0.88-4,0.88-5.53,0c-1.53-0.88-1.53-2.31,0-3.19
						C133.04,220.69,135.52,220.69,137.04,221.58z"/>
				</g>
				<g>
					<path class="st7" d="M146.27,205.44c1.53,0.88,1.53,2.31,0,3.19c-1.53,0.88-4,0.88-5.53,0c-1.53-0.88-1.53-2.31,0-3.19
						C142.27,204.56,144.75,204.56,146.27,205.44z"/>
				</g>
				<g>
					<path class="st7" d="M155.26,183.83c1.53,0.88,1.53,2.31,0,3.19c-1.53,0.88-4,0.88-5.53,0c-1.53-0.88-1.53-2.31,0-3.19
						C151.26,182.95,153.74,182.95,155.26,183.83z"/>
				</g>
				<g>
					<path class="st7" d="M179.54,188.26c1.53,0.88,1.53,2.31,0,3.19c-1.53,0.88-4,0.88-5.53,0c-1.53-0.88-1.53-2.31,0-3.19
						C175.54,187.38,178.01,187.38,179.54,188.26z"/>
				</g>
				<g>
					<path class="st7" d="M166.7,203.96c1.53,0.88,1.53,2.31,0,3.19c-1.53,0.88-4,0.88-5.53,0c-1.53-0.88-1.53-2.31,0-3.19
						C162.7,203.08,165.17,203.08,166.7,203.96z"/>
				</g>
			</g>
			<g>
				<g>
					<path class="st7" d="M368.33,259.15c0,0.18-0.1,0.35-0.26,0.44L342.6,274.3l-1.71,0.98l-1.03-0.59l1.71-0.99l25.24-14.57
						l-23.16-13.88l-1.01-0.61l-5.71-3.42c-0.16-0.09-0.25-0.26-0.25-0.44c0-0.18,0.1-0.35,0.26-0.44l15.35-8.86l3.02-1.74
						c0.24-0.14,0.56-0.06,0.7,0.19c0.14,0.25,0.06,0.56-0.18,0.7l-2.55,1.47l-15.07,8.7l5.45,3.27l1.01,0.6l23.42,14.03
						C368.24,258.8,368.33,258.97,368.33,259.15z"/>
				</g>
				<g>
					<path class="st7" d="M343.92,226.83l-2.01,1.18l-21.17,12.45l8.65,4.99c0.16,0.09,0.26,0.26,0.26,0.44
						c0,0.18-0.1,0.35-0.26,0.44l-17.61,10.17l-1.71,0.98l-1.02-0.59l1.71-0.98l17.35-10.02l-8.64-4.99
						c-0.16-0.09-0.26-0.26-0.26-0.44c0-0.18,0.1-0.35,0.25-0.44l21.37-12.58l2.56-1.5c0.25-0.14,0.56-0.06,0.7,0.18
						C344.25,226.37,344.17,226.69,343.92,226.83z"/>
				</g>
				<g>
					<path class="st7" d="M322.05,204.61l-3.29,1.9l-16.52,9.54l12.88,7.43c0.16,0.09,0.26,0.26,0.26,0.44
						c0,0.18-0.1,0.35-0.26,0.44l-29.5,17.03l-1.71,0.99l-1.03-0.59l1.71-0.98l29.25-16.89l-12.88-7.43
						c-0.16-0.09-0.26-0.26-0.26-0.44c0-0.18,0.1-0.35,0.26-0.44l16.91-9.76l3.68-2.12c0.25-0.14,0.56-0.06,0.7,0.19
						C322.39,204.16,322.3,204.47,322.05,204.61z"/>
				</g>
				<g>
					<path class="st7" d="M395.88,269.28l-2.2,1.27l-14.87,8.58c-0.16,0.09-0.35,0.09-0.51,0l-11.19-6.46l-13.67,7.89l-1.71,0.99
						l-1.03-0.59l1.71-0.98l14.44-8.33c0.16-0.09,0.36-0.09,0.51,0l11.19,6.46l14-8.08l2.81-1.62c0.25-0.14,0.56-0.06,0.7,0.19
						C396.21,268.82,396.12,269.13,395.88,269.28z"/>
				</g>
				<g>
					<path class="st7" d="M301.28,207.37l-2.17,1.25c0,0,0,0,0,0l-35.13,20.29l-1.71,0.98l-1.03-0.59l1.71-0.98l35.03-20.22
						l2.8-1.62c0.25-0.14,0.56-0.06,0.7,0.19C301.61,206.91,301.53,207.22,301.28,207.37z"/>
				</g>
				<g>
					<path class="st7" d="M313.66,187.49l-1.63,0.94l-59.12,34.09l-1.71,0.98l-1.03-0.59l1.71-0.98l58.87-33.95l2.39-1.38
						c0.25-0.14,0.56-0.06,0.7,0.19C313.99,187.03,313.9,187.35,313.66,187.49z"/>
				</g>
				<g>
					<path class="st7" d="M332.14,224.64l-2.42,1.39l-35.36,20.42l-1.71,0.99l-1.03-0.59l1.71-0.98l35.27-20.36l3.03-1.75
						c0.25-0.14,0.56-0.06,0.7,0.19C332.47,224.19,332.38,224.5,332.14,224.64z"/>
				</g>
				<g>
					<path class="st7" d="M293.82,224.18l-3.86,2.23l-15.17,8.76l-1.71,0.98l-1.03-0.59l1.71-0.98l15.12-8.73l4.41-2.55
						c0.25-0.14,0.56-0.06,0.7,0.19C294.15,223.72,294.07,224.03,293.82,224.18z"/>
				</g>
				<g>
					<ellipse class="st7" cx="292.01" cy="224.48" rx="3.91" ry="2.26"/>
				</g>
				<g>
					<path class="st7" d="M392.79,266.97c-1.53,0.88-1.53,2.31,0,3.19c1.53,0.88,4,0.88,5.53,0c1.53-0.88,1.53-2.31,0-3.19
						C396.79,266.09,394.31,266.09,392.79,266.97z"/>
				</g>
				<g>
					<path class="st7" d="M341.19,224.49c-1.53,0.88-1.53,2.31,0,3.19c1.53,0.88,4,0.88,5.53,0c1.53-0.88,1.53-2.31,0-3.19
						C345.2,223.61,342.72,223.61,341.19,224.49z"/>
				</g>
				<g>
					<path class="st7" d="M368.08,240.04c-1.53,0.88-1.53,2.31,0,3.19c1.53,0.88,4,0.88,5.53,0c1.53-0.88,1.53-2.31,0-3.19
						C372.08,239.16,369.6,239.16,368.08,240.04z"/>
				</g>
				<g>
					<path class="st7" d="M371.24,241.85c-0.14,0.25-0.45,0.33-0.7,0.19l-2.91-1.68l-7.74-4.47l-15.22,8.79l-1.02,0.59l-25.67,14.82
						l-1.71,0.99l-1.02-0.59l1.71-0.98l25.7-14.84l1.02-0.58l15.98-9.22c0.16-0.09,0.36-0.09,0.51,0l8.51,4.92l2.4,1.38
						C371.3,241.29,371.38,241.6,371.24,241.85z"/>
				</g>
				<g>
					<path class="st7" d="M278.99,188.86l-2,1.18l-21.17,12.45l8.65,4.99c0.16,0.09,0.26,0.26,0.26,0.44c0,0.18-0.1,0.35-0.26,0.44
						l-18.03,10.41l-1.71,0.98l-6.43,3.71c-0.08,0.05-0.17,0.07-0.25,0.07c-0.18,0-0.35-0.09-0.44-0.26
						c-0.14-0.25-0.06-0.56,0.18-0.7l5.91-3.42l1.71-0.98l17.77-10.26l-8.64-4.99c-0.16-0.09-0.25-0.26-0.26-0.44
						c0-0.18,0.1-0.35,0.25-0.44l21.37-12.58l2.56-1.5c0.24-0.14,0.56-0.06,0.7,0.18C279.32,188.41,279.24,188.72,278.99,188.86z"/>
				</g>
				<g>
					<path class="st7" d="M276.27,186.52c-1.53,0.88-1.53,2.31,0,3.19c1.53,0.88,4,0.88,5.53,0c1.53-0.88,1.53-2.31,0-3.19
						C280.27,185.64,277.79,185.64,276.27,186.52z"/>
				</g>
				<g>
					<path class="st7" d="M328.85,222.47c-1.53,0.88-1.53,2.31,0,3.19c1.53,0.88,4,0.88,5.53,0c1.53-0.88,1.53-2.31,0-3.19
						C332.85,221.59,330.38,221.59,328.85,222.47z"/>
				</g>
				<g>
					<ellipse class="st7" cx="321.35" cy="204.82" rx="3.91" ry="2.26"/>
				</g>
				<g>
					<path class="st7" d="M310.63,184.72c-1.53,0.88-1.53,2.31,0,3.19c1.53,0.88,4,0.88,5.53,0c1.53-0.88,1.53-2.31,0-3.19
						C314.63,183.84,312.16,183.84,310.63,184.72z"/>
				</g>
				<g>
					<path class="st7" d="M352.85,228.7c-1.53,0.88-1.53,2.31,0,3.19c1.53,0.88,4,0.88,5.53,0c1.53-0.88,1.53-2.31,0-3.19
						C356.85,227.82,354.37,227.82,352.85,228.7z"/>
				</g>
				<g>
					<path class="st7" d="M298.16,205.02c-1.53,0.88-1.53,2.31,0,3.19c1.53,0.88,4,0.88,5.53,0c1.53-0.88,1.53-2.31,0-3.19
						C302.16,204.14,299.69,204.14,298.16,205.02z"/>
				</g>
			</g>
		</g>
	</g>
	<g>
		<g>
			<g class="st1">
				<g class="st1">
					<defs>
						<path id="SVGID_9_" class="st1" d="M180.66,222.37l-8.49-4.93c-0.93-0.54-1.62-1.61-1.89-3.3l8.49,4.93
							C179.04,220.76,179.73,221.83,180.66,222.37z"/>
					</defs>
					<use xlink:href="#SVGID_9_"  style="overflow:visible;fill:#DAD9E8;"/>
					<clipPath id="SVGID_10_">
						<use xlink:href="#SVGID_9_"  style="overflow:visible;"/>
					</clipPath>
					<g class="st16">
						<path class="st17" d="M180.66,222.37l-8.49-4.93c-0.93-0.54-1.61-1.6-1.88-3.27l8.49,4.93
							C179.05,220.77,179.73,221.83,180.66,222.37z"/>
						<path class="st17" d="M178.78,219.1l-8.49-4.93c0-0.01,0-0.02,0-0.03l8.49,4.93C178.77,219.08,178.78,219.09,178.78,219.1z"/>
					</g>
				</g>
				<g>
					<defs>
						<path id="SVGID_11_" d="M187.97,133.79l8.49,4.93c-2.48-1.44-5.91-1.26-9.76,0.96l-8.49-4.93
							C182.05,132.53,185.49,132.35,187.97,133.79z"/>
					</defs>
					<use xlink:href="#SVGID_11_"  style="overflow:visible;fill:#DAD9E8;"/>
					<clipPath id="SVGID_12_">
						<use xlink:href="#SVGID_11_"  style="overflow:visible;"/>
					</clipPath>
					<g class="st18">
						<path class="st17" d="M186.7,139.69l-8.49-4.93c3.85-2.22,7.28-2.4,9.76-0.96l8.49,4.93
							C193.98,137.29,190.54,137.47,186.7,139.69z"/>
					</g>
				</g>
				<g>
					<polygon class="st17" points="178.77,219.07 170.28,214.14 162.12,162.38 170.61,167.31 					"/>
				</g>
				<g>
					<polygon class="st19" points="184.11,141.18 175.62,136.25 178.21,134.75 186.7,139.69 					"/>
				</g>
				<g class="st1">
					<defs>
						<path id="SVGID_13_" class="st1" d="M170.61,167.31l-8.49-4.93c-1.39-8.81,5.04-21.25,13.5-26.13l8.49,4.93
							C175.65,146.07,169.23,158.5,170.61,167.31z"/>
					</defs>
					<use xlink:href="#SVGID_13_"  style="overflow:visible;fill:#EBEBF1;"/>
					<clipPath id="SVGID_14_">
						<use xlink:href="#SVGID_13_"  style="overflow:visible;"/>
					</clipPath>
					<g class="st20">
						<path class="st19" d="M170.61,167.31l-8.49-4.93c-0.42-2.68-0.12-5.69,0.74-8.73l8.49,4.93
							C170.49,161.62,170.19,164.63,170.61,167.31z"/>
						<path class="st19" d="M171.35,158.58l-8.49-4.93c0.97-3.42,2.64-6.86,4.8-9.88l8.49,4.93
							C174,151.73,172.32,155.17,171.35,158.58z"/>
						<path class="st19" d="M176.15,148.71l-8.49-4.93c1.65-2.31,3.57-4.37,5.67-5.99l8.49,4.93
							C179.72,144.33,177.8,146.4,176.15,148.71z"/>
						<path class="st19" d="M181.83,142.72l-8.49-4.93c0.74-0.57,1.5-1.09,2.29-1.54l8.49,4.93
							C183.33,141.63,182.57,142.15,181.83,142.72z"/>
					</g>
				</g>
				<g>
					<path class="st9" d="M186.7,139.69c8.46-4.88,14.93,0.11,13.6,10.49l-7.84,60.99c-0.62,4.82-3.72,8.84-6.82,10.64
						c-3.11,1.79-6.22,1.36-6.86-2.73l-8.16-51.76c-1.39-8.81,5.04-21.25,13.5-26.13L186.7,139.69z"/>
				</g>
			</g>
		</g>
		<g>
			<g class="st1">
				<g class="st1">
					<defs>
						<path id="SVGID_15_" class="st1" d="M196.09,140.13l5.91,3.44c-2.51-1.46-5.99-1.25-9.82,0.96l-5.91-3.44
							C190.1,138.87,193.58,138.67,196.09,140.13z"/>
					</defs>
					<use xlink:href="#SVGID_15_"  style="overflow:visible;fill:#05D4F5;"/>
					<clipPath id="SVGID_16_">
						<use xlink:href="#SVGID_15_"  style="overflow:visible;"/>
					</clipPath>
					<g class="st21">
						<path class="st7" d="M192.18,144.52l-5.91-3.44c3.84-2.22,7.31-2.42,9.82-0.96l5.91,3.44
							C199.49,142.1,196.02,142.31,192.18,144.52z"/>
					</g>
				</g>
				<g>
					<path class="st7" d="M193.55,150.3c5.22-3.02,9.48-0.59,9.5,5.42c0.02,6-4.21,13.33-9.44,16.34c-5.22,3.02-9.49,0.59-9.5-5.41
						C184.09,160.65,188.33,153.31,193.55,150.3z"/>
				</g>
				<g class="st1">
					<defs>
						<path id="SVGID_17_" class="st1" d="M182.44,177.22l-5.91-3.44c-2.48-1.44-4.02-4.5-4.03-8.86
							c-0.02-8.76,6.14-19.44,13.77-23.85l5.91,3.44c-7.63,4.4-13.79,15.08-13.77,23.85C178.43,172.72,179.96,175.78,182.44,177.22z
							"/>
					</defs>
					<use xlink:href="#SVGID_17_"  style="overflow:visible;fill:#05D4F5;"/>
					<clipPath id="SVGID_18_">
						<use xlink:href="#SVGID_17_"  style="overflow:visible;"/>
					</clipPath>
					<g class="st22">
						<path class="st7" d="M182.44,177.22l-5.91-3.44c-2.2-1.28-3.66-3.84-3.97-7.44l5.91,3.44
							C178.78,173.39,180.24,175.95,182.44,177.22z"/>
						<path class="st7" d="M178.48,169.78l-5.91-3.44c-0.04-0.45-0.06-0.93-0.06-1.41c-0.02-7.56,4.56-16.54,10.71-21.69l5.91,3.44
							c-6.15,5.15-10.73,14.13-10.71,21.69C178.42,168.86,178.44,169.33,178.48,169.78z"/>
						<path class="st7" d="M189.13,146.68l-5.91-3.44c0.98-0.82,2.01-1.55,3.06-2.16l5.91,3.44
							C191.13,145.13,190.11,145.86,189.13,146.68z"/>
					</g>
				</g>
				<g class="st1">
					<defs>
						<path id="SVGID_19_" class="st1" d="M193.55,150.3l-1.37-5.78c7.63-4.4,13.83-0.87,13.85,7.9
							c0.02,8.76-6.14,19.44-13.76,23.84c-7.63,4.4-13.83,0.87-13.86-7.89c-0.02-8.76,6.14-19.44,13.77-23.85L193.55,150.3
							c-5.22,3.01-9.46,10.35-9.44,16.35c0.01,6,4.28,8.43,9.5,5.41c5.22-3.01,9.46-10.34,9.44-16.34
							C203.04,149.71,198.78,147.28,193.55,150.3z"/>
					</defs>
					<use xlink:href="#SVGID_19_"  style="overflow:visible;fill:#05D4F5;"/>
					<clipPath id="SVGID_20_">
						<use xlink:href="#SVGID_19_"  style="overflow:visible;"/>
					</clipPath>
					<g class="st23">
						<path class="st5" d="M193.55,150.3l-1.37-5.78c7.63-4.4,13.83-0.87,13.85,7.9c0.02,8.76-6.14,19.44-13.76,23.84
							c-7.63,4.4-13.83,0.87-13.86-7.89c-0.02-8.76,6.14-19.44,13.77-23.85L193.55,150.3c-5.22,3.01-9.46,10.35-9.44,16.35
							c0.01,6,4.28,8.43,9.5,5.41c5.22-3.01,9.46-10.34,9.44-16.34C203.04,149.71,198.78,147.28,193.55,150.3z"/>
					</g>
				</g>
			</g>
		</g>
		<g>
			<path class="st6" d="M191.32,95.3l-15.33-50.04L191.32,95.3z"/>
			
				<rect x="182.15" y="44.11" transform="matrix(0.9562 -0.2928 0.2928 0.9562 -12.5283 56.8616)" class="st24" width="3.01" height="52.34"/>
		</g>
		<g>
			<g>
				<path class="st4" d="M209.57,252.43c-14.06-8.69-17.23-20.35-18.58-25.33c1.09,4.78,4.83,9.53,11.21,13.37
					c15.94,9.59,42.33,9.86,58.95,0.6c7.13-3.98,11.31-9.07,12.48-14.34c-1.08,4.13-2.71,10.38-8.94,17.6
					c-2.36,2.73-7.56,7.82-15.87,11.15C236.18,260.55,220.78,259.35,209.57,252.43z"/>
			</g>
			<g>
				<path class="st2" d="M261.42,138.49c15.54,9.35,15.01,24.26-1.19,33.29c-16.2,9.03-41.92,8.77-57.46-0.58
					c-15.54-9.35-15.01-24.26,1.19-33.29C220.16,128.87,245.88,129.13,261.42,138.49z"/>
			</g>
			<g class="st1">
				<path class="st3" d="M190.97,226.97l-12.53-54.75c1.46,6.38,6.32,12.56,14.61,17.55c20.71,12.47,55,12.81,76.59,0.77
					c9.27-5.17,14.69-11.78,16.22-18.63l-12.22,54.82c-1.18,5.27-5.35,10.36-12.48,14.34c-16.61,9.26-43.01,9-58.95-0.6
					C195.83,236.63,192.09,231.88,190.97,226.97z"/>
			</g>
			<path class="st17" d="M197.3,137.03c21.16-11.49,51.12-11.15,71.24,0.81c-1.79-1.08-4.3-1-7.12,0.57
				c-15.54-9.35-41.27-9.61-57.46-0.58c-16.2,9.03-16.73,23.93-1.19,33.29c15.54,9.35,41.27,9.61,57.46,0.58
				c16.2-9.03,16.73-23.93,1.19-33.29c2.82-1.57,5.33-1.65,7.12-0.57c4.21,2.72,10.58,6.84,15.01,15.5
				c4.13,8.08,2.88,15.33,2.34,18.43c-1.57,7.03-6.99,13.64-16.26,18.8c-21.59,12.04-55.88,11.69-76.59-0.77
				c-8.28-4.98-13.14-11.15-14.61-17.53c-0.52-2.78-1.01-5.41-0.51-9.53c0.62-5.16,2.68-9.06,2.77-9.22
				C182.24,150.63,186.33,142.98,197.3,137.03z"/>
		</g>
		<g>
			<g>
				<path class="st19" d="M254.65,70.9c11.92,7.17,11.51,18.61-0.91,25.53c-12.42,6.93-32.16,6.73-44.08-0.45
					c-11.92-7.17-11.51-18.6,0.91-25.53C223,63.53,242.73,63.73,254.65,70.9z"/>
			</g>
			<g class="st1">
				<path class="st3" d="M193.92,156.44c-19.19-11.87-23.4-27.58-23.55-38.67c0.03,8.91,5.75,17.81,17.23,24.72
					c23.66,14.24,62.84,14.64,87.5,0.89c12.69-7.08,19.07-16.52,19.04-25.97c-0.21,5.8-0.53,8.8-2.86,15.3
					c-1.83,5.09-5.09,9.42-6.85,11.75c-0.82,1.09-8.43,10.78-23.12,16.51C235.83,170.88,209.1,165.84,193.92,156.44z"/>
			</g>
			<path class="st2" d="M195.68,68.67c11.24-6.12,23.85-9.13,37.49-8.95c14.01,0.18,26.59,3.51,37.38,9.91
				c-4.04-2.43-9.68-2.2-15.91,1.28c-11.92-7.17-31.65-7.37-44.08-0.45c-12.42,6.93-12.83,18.36-0.91,25.53
				c11.92,7.17,31.65,7.37,44.08,0.45c12.42-6.93,12.83-18.36,0.91-25.53c6.23-3.48,11.87-3.71,15.91-1.28
				c5.69,3.67,23,14.85,23.55,38.67c0.03,9.44-6.35,18.89-19.04,25.97c-24.66,13.75-63.84,13.36-87.5-0.88
				c-11.48-6.91-17.2-15.82-17.23-24.72c0.13-3.46,0.27-7.39,1.79-12.18c1.79-5.68,3.34-8.12,5.9-12.16
				C180.04,81.13,186.34,73.76,195.68,68.67z"/>
			<g>
				<path class="st25" d="M244.4,143.61c-20.04,2.36-41.64-1.08-56.83-10.23c-11.42-6.87-17.14-15.72-17.23-24.57
					c-0.02-5.75,2.35-11.06,6.34-15.31c0.08,7.94,5.21,15.87,15.45,22.04c13.63,8.2,33,11.28,50.97,9.17
					C243.9,131.21,244.38,137.86,244.4,143.61z"/>
			</g>
			<g class="st1">
				<path class="st17" d="M170.36,117.76l-0.03-9.1c0.03,8.91,5.75,17.81,17.23,24.72c23.66,14.24,62.84,14.64,87.5,0.88
					c12.69-7.08,19.07-16.52,19.04-25.97l0.03,9.1c0.03,9.44-6.35,18.89-19.04,25.97c-24.66,13.75-63.84,13.36-87.5-0.89
					C176.11,135.57,170.39,126.67,170.36,117.76z"/>
			</g>
			<g>
				<path class="st7" d="M180.39,118.03c-1.22,3.44-3.3,3.67-4.74,0.52c-2.41-5.25,0.04-11.59,3.17-10.69
					c0.57,0.16,0.87,0.49,1.18,0.84C182.01,111.55,180.93,116.51,180.39,118.03z"/>
				<path class="st7" d="M215.47,133.59c-0.91,5.16-7.4,6.03-10.68,1.43c-3.42-4.8,0.33-10.34,5.12-9.74
					c0.18,0.02,0.41,0.07,0.58,0.1C214.72,126.61,215.95,130.92,215.47,133.59z"/>
			</g>
		</g>
		<path class="st6" d="M273.27,111.39c0-3.06-2.15-4.29-4.79-2.77c-2.65,1.53-4.79,5.24-4.79,8.3c0,3.06,2.15,4.29,4.79,2.77
			C271.13,118.17,273.27,114.45,273.27,111.39z"/>
		<g>
			<path class="st6" d="M269.1,114.23l34.93-26.22L269.1,114.23z"/>
			<path class="st24" d="M269.11,115.73c-0.46,0-0.91-0.21-1.21-0.6c-0.5-0.67-0.36-1.61,0.3-2.11l34.93-26.22
				c0.66-0.5,1.61-0.37,2.11,0.3c0.5,0.66,0.36,1.61-0.3,2.11l-34.93,26.22C269.74,115.64,269.42,115.73,269.11,115.73z"/>
		</g>
		<path class="st6" d="M312.91,86.13c0-4.49-3.64-8.12-8.12-8.12c-4.49,0-8.12,3.64-8.12,8.12c0,4.49,3.64,8.12,8.12,8.12
			C309.27,94.25,312.91,90.61,312.91,86.13z"/>
		<path class="st6" d="M183.37,45.25c0-4.49-3.64-8.12-8.12-8.12c-4.49,0-8.12,3.64-8.12,8.12s3.64,8.12,8.12,8.12
			C179.74,53.38,183.37,49.74,183.37,45.25z"/>
		<g>
			<g class="st1">
				<g class="st1">
					<defs>
						<path id="SVGID_21_" class="st1" d="M280.46,169.28l5.91,3.44c-2.51-1.46-5.99-1.25-9.82,0.96l-5.91-3.44
							C274.47,168.03,277.95,167.82,280.46,169.28z"/>
					</defs>
					<use xlink:href="#SVGID_21_"  style="overflow:visible;fill:#05D4F5;"/>
					<clipPath id="SVGID_22_">
						<use xlink:href="#SVGID_21_"  style="overflow:visible;"/>
					</clipPath>
					<g class="st26">
						<path class="st7" d="M276.55,173.68l-5.91-3.44c3.84-2.22,7.31-2.42,9.82-0.96l5.91,3.44
							C283.86,171.26,280.39,171.47,276.55,173.68z"/>
					</g>
				</g>
				<g>
					<path class="st7" d="M277.92,179.46c5.22-3.02,9.48-0.59,9.5,5.42c0.02,6-4.21,13.33-9.44,16.34c-5.23,3.02-9.49,0.59-9.5-5.41
						C268.46,189.81,272.7,182.47,277.92,179.46z"/>
				</g>
				<g class="st1">
					<defs>
						<path id="SVGID_23_" class="st1" d="M266.81,206.38l-5.91-3.44c-2.48-1.44-4.02-4.5-4.03-8.85
							c-0.02-8.76,6.14-19.44,13.77-23.85l5.91,3.44c-7.63,4.4-13.79,15.08-13.77,23.85C262.8,201.88,264.33,204.94,266.81,206.38z"
							/>
					</defs>
					<use xlink:href="#SVGID_23_"  style="overflow:visible;fill:#05D4F5;"/>
					<clipPath id="SVGID_24_">
						<use xlink:href="#SVGID_23_"  style="overflow:visible;"/>
					</clipPath>
					<g class="st27">
						<path class="st7" d="M266.81,206.38l-5.91-3.44c-2.2-1.28-3.66-3.84-3.97-7.44l5.91,3.44
							C263.15,202.54,264.61,205.1,266.81,206.38z"/>
						<path class="st7" d="M262.84,198.94l-5.91-3.44c-0.04-0.45-0.06-0.93-0.06-1.41c-0.02-7.56,4.56-16.54,10.71-21.69l5.91,3.44
							c-6.15,5.15-10.73,14.13-10.71,21.69C262.78,198.01,262.8,198.49,262.84,198.94z"/>
						<path class="st7" d="M273.49,175.84l-5.91-3.44c0.98-0.82,2.01-1.55,3.06-2.16l5.91,3.44
							C275.5,174.29,274.48,175.01,273.49,175.84z"/>
					</g>
				</g>
				<g class="st1">
					<defs>
						<path id="SVGID_25_" class="st1" d="M277.92,179.46l-1.37-5.78c7.63-4.4,13.83-0.87,13.85,7.9
							c0.02,8.76-6.14,19.44-13.76,23.84c-7.63,4.4-13.83,0.87-13.86-7.89c-0.02-8.76,6.14-19.44,13.77-23.85L277.92,179.46
							c-5.22,3.01-9.46,10.35-9.44,16.35c0.01,6,4.28,8.43,9.5,5.41c5.22-3.01,9.46-10.34,9.44-16.34
							C287.4,178.87,283.14,176.44,277.92,179.46z"/>
					</defs>
					<use xlink:href="#SVGID_25_"  style="overflow:visible;fill:#05D4F5;"/>
					<clipPath id="SVGID_26_">
						<use xlink:href="#SVGID_25_"  style="overflow:visible;"/>
					</clipPath>
					<g class="st28">
						<path class="st5" d="M277.92,179.46l-1.37-5.78c7.63-4.4,13.83-0.87,13.85,7.9c0.02,8.76-6.14,19.44-13.76,23.84
							c-7.63,4.4-13.83,0.87-13.86-7.89c-0.02-8.76,6.14-19.44,13.77-23.85L277.92,179.46c-5.22,3.01-9.46,10.35-9.44,16.35
							c0.01,6,4.28,8.43,9.5,5.41c5.22-3.01,9.46-10.34,9.44-16.34C287.4,178.87,283.14,176.44,277.92,179.46z"/>
					</g>
				</g>
			</g>
		</g>
		<g>
			<g class="st1">
				<g class="st1">
					<defs>
						<path id="SVGID_27_" class="st1" d="M280.53,260.52l-8.49-4.93c-0.93-0.54-1.62-1.61-1.89-3.3l8.49,4.93
							C278.91,258.91,279.59,259.98,280.53,260.52z"/>
					</defs>
					<use xlink:href="#SVGID_27_"  style="overflow:visible;fill:#DAD9E8;"/>
					<clipPath id="SVGID_28_">
						<use xlink:href="#SVGID_27_"  style="overflow:visible;"/>
					</clipPath>
					<g class="st29">
						<path class="st17" d="M280.53,260.52l-8.49-4.93c-0.93-0.54-1.61-1.6-1.88-3.27l8.49,4.93
							C278.91,258.92,279.6,259.98,280.53,260.52z"/>
						<path class="st17" d="M278.65,257.25l-8.49-4.93c0-0.01,0-0.02-0.01-0.03l8.49,4.93
							C278.64,257.23,278.64,257.24,278.65,257.25z"/>
					</g>
				</g>
				<g>
					<defs>
						<path id="SVGID_29_" d="M287.83,171.94l8.49,4.93c-2.48-1.44-5.91-1.26-9.76,0.96l-8.49-4.93
							C281.92,170.68,285.36,170.5,287.83,171.94z"/>
					</defs>
					<use xlink:href="#SVGID_29_"  style="overflow:visible;fill:#DAD9E8;"/>
					<clipPath id="SVGID_30_">
						<use xlink:href="#SVGID_29_"  style="overflow:visible;"/>
					</clipPath>
					<g class="st30">
						<path class="st17" d="M286.57,177.84l-8.49-4.93c3.85-2.22,7.28-2.4,9.76-0.96l8.49,4.93
							C293.85,175.44,290.41,175.62,286.57,177.84z"/>
					</g>
				</g>
				<g>
					<polygon class="st17" points="278.64,257.22 270.15,252.29 261.99,200.53 270.48,205.46 					"/>
				</g>
				<g>
					<polygon class="st19" points="283.98,179.33 275.49,174.4 278.08,172.9 286.57,177.84 					"/>
				</g>
				<g class="st1">
					<defs>
						<path id="SVGID_31_" class="st1" d="M270.48,205.46l-8.49-4.93c-1.39-8.81,5.04-21.25,13.5-26.13l8.49,4.93
							C275.52,184.22,269.09,196.65,270.48,205.46z"/>
					</defs>
					<use xlink:href="#SVGID_31_"  style="overflow:visible;fill:#EBEBF1;"/>
					<clipPath id="SVGID_32_">
						<use xlink:href="#SVGID_31_"  style="overflow:visible;"/>
					</clipPath>
					<g class="st31">
						<path class="st19" d="M270.48,205.46l-8.49-4.93c-0.42-2.68-0.12-5.69,0.74-8.73l8.49,4.93
							C270.36,199.77,270.06,202.78,270.48,205.46z"/>
						<path class="st19" d="M271.22,196.73l-8.49-4.93c0.97-3.42,2.64-6.86,4.8-9.88l8.49,4.93
							C273.86,189.88,272.19,193.32,271.22,196.73z"/>
						<path class="st19" d="M276.02,186.86l-8.49-4.93c1.65-2.31,3.57-4.37,5.67-5.99l8.49,4.93
							C279.59,182.48,277.66,184.55,276.02,186.86z"/>
						<path class="st19" d="M281.69,180.87l-8.49-4.93c0.74-0.57,1.51-1.09,2.29-1.54l8.49,4.93
							C283.2,179.78,282.43,180.3,281.69,180.87z"/>
					</g>
				</g>
				<g>
					<path class="st9" d="M286.57,177.84c8.46-4.88,14.93,0.11,13.6,10.49l-7.84,60.99c-0.62,4.82-3.72,8.84-6.82,10.64
						c-3.11,1.79-6.22,1.36-6.86-2.73l-8.16-51.76c-1.39-8.81,5.04-21.25,13.5-26.13L286.57,177.84z"/>
				</g>
			</g>
		</g>
	</g>
</g>
</svg>
